999
"DXF R12 Output" (www.mydxf.blogspot.com)
 0 
SECTION
 2 
HEADER
 9 
$ACADVER
 1 
AC1009
 9 
$EXTMIN
 10 
 0 
 20 
 0 
 9 
$EXTMAX
 10 
 8.5 
 20 
 11 
 0 
ENDSEC
 0 
SECTION
 2 
ENTITIES
0
POLYLINE
8
Layer 1
62
7
70
1
10
0.000000
20
0.000000
66
1
0
VERTEX
8
Layer 1
10
39.285019
20
17.412802
70
0
0
VERTEX
8
Layer 1
10
37.906939
20
17.306498
70
0
0
VERTEX
8
Layer 1
10
36.624505
20
16.992975
70
0
0
VERTEX
8
Layer 1
10
35.466690
20
16.480321
70
0
0
VERTEX
8
Layer 1
10
34.462465
20
15.776621
70
0
0
VERTEX
8
Layer 1
10
33.639847
20
14.891074
70
0
0
VERTEX
8
Layer 1
10
33.006167
20
13.800616
70
0
0
VERTEX
8
Layer 1
10
32.598655
20
12.499467
70
0
0
VERTEX
8
Layer 1
10
32.454545
20
10.981848
70
0
0
VERTEX
8
Layer 1
10
32.584507
20
9.704888
70
0
0
VERTEX
8
Layer 1
10
32.956082
20
8.548284
70
0
0
VERTEX
8
Layer 1
10
33.541802
20
7.527417
70
0
0
VERTEX
8
Layer 1
10
34.314199
20
6.657669
70
0
0
VERTEX
8
Layer 1
10
35.245805
20
5.954422
70
0
0
VERTEX
8
Layer 1
10
36.309151
20
5.433059
70
0
0
VERTEX
8
Layer 1
10
37.476770
20
5.108961
70
0
0
VERTEX
8
Layer 1
10
38.721193
20
4.997510
70
0
0
VERTEX
8
Layer 1
10
39.868541
20
5.103628
70
0
0
VERTEX
8
Layer 1
10
41.076511
20
5.419023
70
0
0
VERTEX
8
Layer 1
10
42.277734
20
5.939256
70
0
0
VERTEX
8
Layer 1
10
43.404841
20
6.659885
70
0
0
VERTEX
8
Layer 1
10
44.369854
20
7.553882
70
0
0
VERTEX
8
Layer 1
10
45.122812
20
8.614392
70
0
0
VERTEX
8
Layer 1
10
45.612294
20
9.836877
70
0
0
VERTEX
8
Layer 1
10
45.786882
20
11.216798
70
0
0
VERTEX
8
Layer 1
10
45.694084
20
12.244029
70
0
0
VERTEX
8
Layer 1
10
45.411009
20
13.306507
70
0
0
VERTEX
8
Layer 1
10
44.930638
20
14.349589
70
0
0
VERTEX
8
Layer 1
10
44.245951
20
15.318628
70
0
0
VERTEX
8
Layer 1
10
43.363649
20
16.149476
70
0
0
VERTEX
8
Layer 1
10
42.252648
20
16.813390
70
0
0
VERTEX
8
Layer 1
10
40.898066
20
17.253466
70
0
0
VERTEX
8
Layer 1
10
39.285019
20
17.412802
70
0
0
VERTEX
8
Layer 1
10
39.285019
20
17.412802
70
0
0
SEQEND
8
Layer 1
0
POLYLINE
8
Layer 1
62
7
70
1
10
0.000000
20
0.000000
66
1
0
VERTEX
8
Layer 1
10
12.287605
20
26.820474
70
0
0
VERTEX
8
Layer 1
10
11.968756
20
24.748101
70
0
0
VERTEX
8
Layer 1
10
11.024380
20
18.570618
70
0
0
VERTEX
8
Layer 1
10
10.089555
20
12.440494
70
0
0
VERTEX
8
Layer 1
10
9.782586
20
10.426224
70
0
0
VERTEX
8
Layer 1
10
9.699666
20
9.882241
70
0
0
VERTEX
8
Layer 1
10
13.846687
20
9.386413
70
0
0
VERTEX
8
Layer 1
10
14.797281
20
19.188683
70
0
0
VERTEX
8
Layer 1
10
14.811753
20
19.284992
70
0
0
VERTEX
8
Layer 1
10
14.844826
20
19.446123
70
0
0
VERTEX
8
Layer 1
10
14.982277
20
19.851728
70
0
0
VERTEX
8
Layer 1
10
15.242468
20
20.177959
70
0
0
VERTEX
8
Layer 1
10
15.549053
20
20.350732
70
0
0
VERTEX
8
Layer 1
10
15.987639
20
20.394917
70
0
0
VERTEX
8
Layer 1
10
16.054288
20
20.383540
70
0
0
VERTEX
8
Layer 1
10
16.117867
20
20.368459
70
0
0
VERTEX
8
Layer 1
10
16.491045
20
20.180440
70
0
0
VERTEX
8
Layer 1
10
16.692753
20
19.977935
70
0
0
VERTEX
8
Layer 1
10
16.885264
20
19.666520
70
0
0
VERTEX
8
Layer 1
10
16.903070
20
19.630273
70
0
0
VERTEX
8
Layer 1
10
17.293251
20
18.482511
70
0
0
VERTEX
8
Layer 1
10
17.804319
20
16.698957
70
0
0
VERTEX
8
Layer 1
10
18.815873
20
13.126029
70
0
0
VERTEX
8
Layer 1
10
18.951789
20
12.673856
70
0
0
VERTEX
8
Layer 1
10
18.960309
20
12.643429
70
0
0
VERTEX
8
Layer 1
10
19.001928
20
12.514048
70
0
0
VERTEX
8
Layer 1
10
21.259403
20
12.142044
70
0
0
VERTEX
8
Layer 1
10
21.313404
20
12.140192
70
0
0
VERTEX
8
Layer 1
10
21.328644
20
12.144955
70
0
0
VERTEX
8
Layer 1
10
21.342852
20
12.154215
70
0
0
VERTEX
8
Layer 1
10
21.346980
20
12.158449
70
0
0
VERTEX
8
Layer 1
10
21.359124
20
12.173265
70
0
0
VERTEX
8
Layer 1
10
23.984819
20
15.489019
70
0
0
VERTEX
8
Layer 1
10
25.154514
20
16.969890
70
0
0
VERTEX
8
Layer 1
10
25.956783
20
17.889316
70
0
0
VERTEX
8
Layer 1
10
25.992184
20
17.920008
70
0
0
VERTEX
8
Layer 1
10
26.257032
20
18.112889
70
0
0
VERTEX
8
Layer 1
10
26.496929
20
18.224278
70
0
0
VERTEX
8
Layer 1
10
26.930581
20
18.270580
70
0
0
VERTEX
8
Layer 1
10
27.015247
20
18.257087
70
0
0
VERTEX
8
Layer 1
10
27.060491
20
18.246768
70
0
0
VERTEX
8
Layer 1
10
27.626169
20
17.858096
70
0
0
VERTEX
8
Layer 1
10
27.807409
20
17.379465
70
0
0
VERTEX
8
Layer 1
10
27.776717
20
16.891838
70
0
0
VERTEX
8
Layer 1
10
27.753434
20
16.776745
70
0
0
VERTEX
8
Layer 1
10
27.727769
20
16.679643
70
0
0
VERTEX
8
Layer 1
10
24.665644
20
7.138251
70
0
0
VERTEX
8
Layer 1
10
28.838489
20
5.956623
70
0
0
VERTEX
8
Layer 1
10
33.152779
20
23.139437
70
0
0
VERTEX
8
Layer 1
10
28.936120
20
24.226873
70
0
0
VERTEX
8
Layer 1
10
28.911514
20
24.231635
70
0
0
VERTEX
8
Layer 1
10
28.872091
20
24.232958
70
0
0
VERTEX
8
Layer 1
10
28.777899
20
24.221846
70
0
0
VERTEX
8
Layer 1
10
28.756468
20
24.216554
70
0
0
VERTEX
8
Layer 1
10
25.877421
20
21.493830
70
0
0
VERTEX
8
Layer 1
10
22.130410
20
17.477890
70
0
0
VERTEX
8
Layer 1
10
22.091119
20
17.436879
70
0
0
VERTEX
8
Layer 1
10
22.076911
20
17.422327
70
0
0
VERTEX
8
Layer 1
10
22.050559
20
17.395869
70
0
0
VERTEX
8
Layer 1
10
21.932740
20
17.291623
70
0
0
VERTEX
8
Layer 1
10
21.625797
20
17.126524
70
0
0
VERTEX
8
Layer 1
10
21.114967
20
17.096097
70
0
0
VERTEX
8
Layer 1
10
20.523783
20
17.457252
70
0
0
VERTEX
8
Layer 1
10
20.346539
20
17.770254
70
0
0
VERTEX
8
Layer 1
10
20.326906
20
17.823700
70
0
0
VERTEX
8
Layer 1
10
18.474389
20
22.973834
70
0
0
VERTEX
8
Layer 1
10
16.905398
20
26.619973
70
0
0
VERTEX
8
Layer 1
10
16.865870
20
26.646061
70
0
0
VERTEX
8
Layer 1
10
16.731012
20
26.716864
70
0
0
VERTEX
8
Layer 1
10
16.661744
20
26.742449
70
0
0
VERTEX
8
Layer 1
10
16.643938
20
26.746047
70
0
0
VERTEX
8
Layer 1
10
12.373647
20
27.375728
70
0
0
VERTEX
8
Layer 1
10
12.287605
20
26.820474
70
0
0
VERTEX
8
Layer 1
10
12.287605
20
26.820474
70
0
0
SEQEND
8
Layer 1
0
POLYLINE
8
Layer 1
62
7
70
1
10
0.000000
20
0.000000
66
1
0
VERTEX
8
Layer 1
10
40.780178
20
11.263893
70
0
0
VERTEX
8
Layer 1
10
40.740722
20
11.725459
70
0
0
VERTEX
8
Layer 1
10
40.536761
20
12.369586
70
0
0
VERTEX
8
Layer 1
10
40.117397
20
12.846629
70
0
0
VERTEX
8
Layer 1
10
39.766626
20
12.998169
70
0
0
VERTEX
8
Layer 1
10
39.214640
20
13.064381
70
0
0
VERTEX
8
Layer 1
10
38.414376
20
12.892766
70
0
0
VERTEX
8
Layer 1
10
37.961575
20
12.489971
70
0
0
VERTEX
8
Layer 1
10
37.688162
20
11.891121
70
0
0
VERTEX
8
Layer 1
10
37.602271
20
11.263893
70
0
0
VERTEX
8
Layer 1
10
37.745692
20
10.526815
70
0
0
VERTEX
8
Layer 1
10
38.124955
20
9.967040
70
0
0
VERTEX
8
Layer 1
10
38.663563
20
9.611457
70
0
0
VERTEX
8
Layer 1
10
39.285019
20
9.486954
70
0
0
VERTEX
8
Layer 1
10
39.961789
20
9.627216
70
0
0
VERTEX
8
Layer 1
10
40.391505
20
9.979608
70
0
0
VERTEX
8
Layer 1
10
40.677023
20
10.546840
70
0
0
VERTEX
8
Layer 1
10
40.780178
20
11.263893
70
0
0
VERTEX
8
Layer 1
10
40.780178
20
11.263893
70
0
0
SEQEND
8
Layer 1
0
POLYLINE
8
Layer 1
62
7
70
1
10
0.000000
20
0.000000
66
1
0
VERTEX
8
Layer 1
10
61.790185
20
25.824954
70
0
0
VERTEX
8
Layer 1
10
66.425679
20
8.055560
70
0
0
VERTEX
8
Layer 1
10
70.141482
20
9.039015
70
0
0
VERTEX
8
Layer 1
10
69.230523
20
12.512990
70
0
0
VERTEX
8
Layer 1
10
69.248349
20
13.042255
70
0
0
VERTEX
8
Layer 1
10
69.553314
20
13.475278
70
0
0
VERTEX
8
Layer 1
10
69.677139
20
13.572645
70
0
0
VERTEX
8
Layer 1
10
72.027695
20
15.571040
70
0
0
VERTEX
8
Layer 1
10
72.615433
20
15.801029
70
0
0
VERTEX
8
Layer 1
10
73.214085
20
15.601203
70
0
0
VERTEX
8
Layer 1
10
73.545574
20
15.064298
70
0
0
VERTEX
8
Layer 1
10
73.456178
20
14.439683
70
0
0
VERTEX
8
Layer 1
10
72.354719
20
12.373819
70
0
0
VERTEX
8
Layer 1
10
77.792958
20
10.348701
70
0
0
VERTEX
8
Layer 1
10
78.992313
20
13.185560
70
0
0
VERTEX
8
Layer 1
10
78.688043
20
13.421303
70
0
0
VERTEX
8
Layer 1
10
77.250563
20
14.224313
70
0
0
VERTEX
8
Layer 1
10
75.493500
20
14.935909
70
0
0
VERTEX
8
Layer 1
10
74.095411
20
15.282380
70
0
0
VERTEX
8
Layer 1
10
73.603286
20
15.486142
70
0
0
VERTEX
8
Layer 1
10
73.304837
20
15.927433
70
0
0
VERTEX
8
Layer 1
10
73.298784
20
16.460072
70
0
0
VERTEX
8
Layer 1
10
73.587411
20
16.907978
70
0
0
VERTEX
8
Layer 1
10
76.334577
20
19.209321
70
0
0
VERTEX
8
Layer 1
10
74.016565
20
21.672589
70
0
0
VERTEX
8
Layer 1
10
73.986667
20
21.653539
70
0
0
VERTEX
8
Layer 1
10
73.435276
20
21.229941
70
0
0
VERTEX
8
Layer 1
10
71.959168
20
19.830297
70
0
0
VERTEX
8
Layer 1
10
69.509394
20
17.155363
70
0
0
VERTEX
8
Layer 1
10
69.095884
20
16.876261
70
0
0
VERTEX
8
Layer 1
10
68.597641
20
16.852151
70
0
0
VERTEX
8
Layer 1
10
68.159061
20
17.089912
70
0
0
VERTEX
8
Layer 1
10
67.907608
20
17.520752
70
0
0
VERTEX
8
Layer 1
10
65.487732
20
26.784041
70
0
0
VERTEX
8
Layer 1
10
61.790185
20
25.824954
70
0
0
VERTEX
8
Layer 1
10
61.790185
20
25.824954
70
0
0
SEQEND
8
Layer 1
0
POLYLINE
8
Layer 1
62
7
70
1
10
0.000000
20
0.000000
66
1
0
VERTEX
8
Layer 1
10
54.729787
20
23.407989
70
0
0
VERTEX
8
Layer 1
10
53.427998
20
23.624446
70
0
0
VERTEX
8
Layer 1
10
52.036266
20
23.587872
70
0
0
VERTEX
8
Layer 1
10
50.583515
20
23.289112
70
0
0
VERTEX
8
Layer 1
10
49.098667
20
22.719014
70
0
0
VERTEX
8
Layer 1
10
47.002112
20
21.430760
70
0
0
VERTEX
8
Layer 1
10
46.796795
20
21.313814
70
0
0
VERTEX
8
Layer 1
10
44.761358
20
20.476674
70
0
0
VERTEX
8
Layer 1
10
49.104753
20
9.965320
70
0
0
VERTEX
8
Layer 1
10
52.633496
20
11.431375
70
0
0
VERTEX
8
Layer 1
10
49.546871
20
18.909813
70
0
0
VERTEX
8
Layer 1
10
49.548458
20
19.619689
70
0
0
VERTEX
8
Layer 1
10
50.051695
20
20.120016
70
0
0
VERTEX
8
Layer 1
10
51.535014
20
20.464569
70
0
0
VERTEX
8
Layer 1
10
52.295202
20
20.419234
70
0
0
VERTEX
8
Layer 1
10
53.051273
20
20.197538
70
0
0
VERTEX
8
Layer 1
10
53.754923
20
19.799461
70
0
0
VERTEX
8
Layer 1
10
54.382919
20
19.239186
70
0
0
VERTEX
8
Layer 1
10
55.415322
20
17.663892
70
0
0
VERTEX
8
Layer 1
10
55.758486
20
16.942374
70
0
0
VERTEX
8
Layer 1
10
56.399509
20
15.908057
70
0
0
VERTEX
8
Layer 1
10
57.145728
20
15.173207
70
0
0
VERTEX
8
Layer 1
10
57.943987
20
14.687742
70
0
0
VERTEX
8
Layer 1
10
58.741130
20
14.401583
70
0
0
VERTEX
8
Layer 1
10
60.142891
20
14.240188
70
0
0
VERTEX
8
Layer 1
10
60.588449
20
14.277758
70
0
0
VERTEX
8
Layer 1
10
60.654065
20
14.290723
70
0
0
VERTEX
8
Layer 1
10
60.703807
20
14.367717
70
0
0
VERTEX
8
Layer 1
10
60.726032
20
14.410844
70
0
0
VERTEX
8
Layer 1
10
60.726296
20
14.411108
70
0
0
VERTEX
8
Layer 1
10
60.727090
20
14.412696
70
0
0
VERTEX
8
Layer 1
10
60.729736
20
14.418252
70
0
0
VERTEX
8
Layer 1
10
60.741378
20
14.438889
70
0
0
VERTEX
8
Layer 1
10
60.785034
20
14.518264
70
0
0
VERTEX
8
Layer 1
10
60.941138
20
14.801633
70
0
0
VERTEX
8
Layer 1
10
61.413154
20
15.664173
70
0
0
VERTEX
8
Layer 1
10
61.877497
20
16.527508
70
0
0
VERTEX
8
Layer 1
10
61.884112
20
16.540472
70
0
0
VERTEX
8
Layer 1
10
60.894960
20
17.019409
70
0
0
VERTEX
8
Layer 1
10
60.100227
20
17.666670
70
0
0
VERTEX
8
Layer 1
10
59.465137
20
18.458790
70
0
0
VERTEX
8
Layer 1
10
58.954913
20
19.372304
70
0
0
VERTEX
8
Layer 1
10
58.621803
20
20.072920
70
0
0
VERTEX
8
Layer 1
10
57.887358
20
21.283991
70
0
0
VERTEX
8
Layer 1
10
56.975336
20
22.241508
70
0
0
VERTEX
8
Layer 1
10
55.913544
20
22.948499
70
0
0
VERTEX
8
Layer 1
10
54.729787
20
23.407989
70
0
0
VERTEX
8
Layer 1
10
54.729787
20
23.407989
70
0
0
SEQEND
8
Layer 1
0
POLYLINE
8
Layer 1
62
7
70
1
10
0.000000
20
0.000000
66
1
0
VERTEX
8
Layer 1
10
61.976187
20
16.473533
70
0
0
VERTEX
8
Layer 1
10
61.977509
20
16.452631
70
0
0
VERTEX
8
Layer 1
10
61.976187
20
16.473533
70
0
0
VERTEX
8
Layer 1
10
61.976187
20
16.473533
70
0
0
SEQEND
8
Layer 1
0
POLYLINE
8
Layer 1
62
7
70
1
10
0.000000
20
0.000000
66
1
0
VERTEX
8
Layer 1
10
51.603739
20
30.879389
70
0
0
VERTEX
8
Layer 1
10
51.326626
20
29.090915
70
0
0
VERTEX
8
Layer 1
10
50.663180
20
27.523762
70
0
0
VERTEX
8
Layer 1
10
49.694388
20
26.185408
70
0
0
VERTEX
8
Layer 1
10
48.501239
20
25.083328
70
0
0
VERTEX
8
Layer 1
10
47.124080
20
24.200969
70
0
0
VERTEX
8
Layer 1
10
45.648075
20
23.560455
70
0
0
VERTEX
8
Layer 1
10
44.145827
20
23.170071
70
0
0
VERTEX
8
Layer 1
10
42.689938
20
23.038102
70
0
0
VERTEX
8
Layer 1
10
41.220792
20
23.162616
70
0
0
VERTEX
8
Layer 1
10
39.818026
20
23.526612
70
0
0
VERTEX
8
Layer 1
10
38.514286
20
24.115771
70
0
0
VERTEX
8
Layer 1
10
37.342219
20
24.915774
70
0
0
VERTEX
8
Layer 1
10
36.334471
20
25.912302
70
0
0
VERTEX
8
Layer 1
10
35.523687
20
27.091036
70
0
0
VERTEX
8
Layer 1
10
34.942513
20
28.437656
70
0
0
VERTEX
8
Layer 1
10
34.623596
20
29.937844
70
0
0
VERTEX
8
Layer 1
10
33.501218
20
28.633796
70
0
0
VERTEX
8
Layer 1
10
32.174550
20
27.550584
70
0
0
VERTEX
8
Layer 1
10
30.686651
20
26.695427
70
0
0
VERTEX
8
Layer 1
10
29.080582
20
26.075541
70
0
0
VERTEX
8
Layer 1
10
29.283517
20
26.046093
70
0
0
VERTEX
8
Layer 1
10
29.329555
20
26.036541
70
0
0
VERTEX
8
Layer 1
10
29.374798
20
26.026196
70
0
0
VERTEX
8
Layer 1
10
33.909751
20
24.856845
70
0
0
VERTEX
8
Layer 1
10
33.912132
20
24.856316
70
0
0
VERTEX
8
Layer 1
10
34.512835
20
24.563323
70
0
0
VERTEX
8
Layer 1
10
34.918077
20
24.063361
70
0
0
VERTEX
8
Layer 1
10
35.066243
20
23.528043
70
0
0
VERTEX
8
Layer 1
10
35.038991
20
23.057416
70
0
0
VERTEX
8
Layer 1
10
35.029466
20
23.011379
70
0
0
VERTEX
8
Layer 1
10
35.020206
20
22.971956
70
0
0
VERTEX
8
Layer 1
10
33.645433
20
17.496940
70
0
0
VERTEX
8
Layer 1
10
34.897497
20
18.274694
70
0
0
VERTEX
8
Layer 1
10
36.277504
20
18.826701
70
0
0
VERTEX
8
Layer 1
10
37.751372
20
19.155813
70
0
0
VERTEX
8
Layer 1
10
39.285019
20
19.264883
70
0
0
VERTEX
8
Layer 1
10
40.554418
20
19.186749
70
0
0
VERTEX
8
Layer 1
10
41.717430
20
18.962068
70
0
0
VERTEX
8
Layer 1
10
42.774625
20
18.605427
70
0
0
VERTEX
8
Layer 1
10
43.726574
20
18.131410
70
0
0
VERTEX
8
Layer 1
10
42.885200
20
20.167376
70
0
0
VERTEX
8
Layer 1
10
42.872236
20
20.200713
70
0
0
VERTEX
8
Layer 1
10
42.784183
20
20.693400
70
0
0
VERTEX
8
Layer 1
10
42.866712
20
21.197993
70
0
0
VERTEX
8
Layer 1
10
43.125504
20
21.649702
70
0
0
VERTEX
8
Layer 1
10
43.566237
20
21.983738
70
0
0
VERTEX
8
Layer 1
10
43.608835
20
22.003847
70
0
0
VERTEX
8
Layer 1
10
43.654078
20
22.023955
70
0
0
VERTEX
8
Layer 1
10
45.983996
20
22.982275
70
0
0
VERTEX
8
Layer 1
10
48.303331
20
24.391708
70
0
0
VERTEX
8
Layer 1
10
50.059467
20
25.065316
70
0
0
VERTEX
8
Layer 1
10
51.821557
20
25.427451
70
0
0
VERTEX
8
Layer 1
10
53.552790
20
25.472534
70
0
0
VERTEX
8
Layer 1
10
55.216355
20
25.194982
70
0
0
VERTEX
8
Layer 1
10
56.774460
20
24.588360
70
0
0
VERTEX
8
Layer 1
10
58.165530
20
23.660665
70
0
0
VERTEX
8
Layer 1
10
59.351614
20
22.418448
70
0
0
VERTEX
8
Layer 1
10
60.294762
20
20.868256
70
0
0
VERTEX
8
Layer 1
10
60.627872
20
20.167376
70
0
0
VERTEX
8
Layer 1
10
61.131968
20
19.304902
70
0
0
VERTEX
8
Layer 1
10
61.738062
20
18.687299
70
0
0
VERTEX
8
Layer 1
10
59.888891
20
25.776536
70
0
0
VERTEX
8
Layer 1
10
59.878043
20
25.822838
70
0
0
VERTEX
8
Layer 1
10
59.868518
20
25.868875
70
0
0
VERTEX
8
Layer 1
10
59.856083
20
25.938857
70
0
0
VERTEX
8
Layer 1
10
59.877870
20
26.458293
70
0
0
VERTEX
8
Layer 1
10
60.079193
20
26.913495
70
0
0
VERTEX
8
Layer 1
10
60.415155
20
27.269409
70
0
0
VERTEX
8
Layer 1
10
60.840861
20
27.490981
70
0
0
VERTEX
8
Layer 1
10
60.885046
20
27.503628
70
0
0
VERTEX
8
Layer 1
10
62.176476
20
27.838748
70
0
0
VERTEX
8
Layer 1
10
60.913489
20
28.420844
70
0
0
VERTEX
8
Layer 1
10
59.775914
20
29.205584
70
0
0
VERTEX
8
Layer 1
10
59.924081
20
28.616226
70
0
0
VERTEX
8
Layer 1
10
59.950035
20
28.062831
70
0
0
VERTEX
8
Layer 1
10
59.767977
20
27.559309
70
0
0
VERTEX
8
Layer 1
10
59.410699
20
27.160562
70
0
0
VERTEX
8
Layer 1
10
58.910992
20
26.921492
70
0
0
VERTEX
8
Layer 1
10
54.329473
20
25.768863
70
0
0
VERTEX
8
Layer 1
10
53.776106
20
25.742905
70
0
0
VERTEX
8
Layer 1
10
53.272596
20
25.924960
70
0
0
VERTEX
8
Layer 1
10
52.873862
20
26.282245
70
0
0
VERTEX
8
Layer 1
10
52.634819
20
26.781977
70
0
0
VERTEX
8
Layer 1
10
51.603739
20
30.879389
70
0
0
VERTEX
8
Layer 1
10
51.603739
20
30.879389
70
0
0
SEQEND
8
Layer 1
0
POLYLINE
8
Layer 1
62
7
70
1
10
0.000000
20
0.000000
66
1
0
VERTEX
8
Layer 1
10
81.071935
20
31.722483
70
0
0
VERTEX
8
Layer 1
10
80.062150
20
31.643431
70
0
0
VERTEX
8
Layer 1
10
78.989039
20
31.261020
70
0
0
VERTEX
8
Layer 1
10
77.903277
20
30.459644
70
0
0
VERTEX
8
Layer 1
10
76.855541
20
29.123696
70
0
0
VERTEX
8
Layer 1
10
76.082776
20
27.597584
70
0
0
VERTEX
8
Layer 1
10
75.672061
20
26.175295
70
0
0
VERTEX
8
Layer 1
10
75.574281
20
24.868526
70
0
0
VERTEX
8
Layer 1
10
75.740323
20
23.688976
70
0
0
VERTEX
8
Layer 1
10
76.133692
20
22.620143
70
0
0
VERTEX
8
Layer 1
10
76.722918
20
21.672060
70
0
0
VERTEX
8
Layer 1
10
77.475359
20
20.860501
70
0
0
VERTEX
8
Layer 1
10
78.358372
20
20.201243
70
0
0
VERTEX
8
Layer 1
10
79.406832
20
19.683627
70
0
0
VERTEX
8
Layer 1
10
80.540124
20
19.369857
70
0
0
VERTEX
8
Layer 1
10
81.725604
20
19.278435
70
0
0
VERTEX
8
Layer 1
10
82.930631
20
19.427867
70
0
0
VERTEX
8
Layer 1
10
84.124963
20
19.837300
70
0
0
VERTEX
8
Layer 1
10
85.297293
20
20.538189
70
0
0
VERTEX
8
Layer 1
10
86.411828
20
21.560943
70
0
0
VERTEX
8
Layer 1
10
87.432775
20
22.935973
70
0
0
VERTEX
8
Layer 1
10
87.580677
20
23.176214
70
0
0
VERTEX
8
Layer 1
10
87.669842
20
23.405872
70
0
0
VERTEX
8
Layer 1
10
87.605019
20
23.560653
70
0
0
VERTEX
8
Layer 1
10
86.676597
20
24.815570
70
0
0
VERTEX
8
Layer 1
10
86.381058
20
25.186251
70
0
0
VERTEX
8
Layer 1
10
86.259614
20
24.984374
70
0
0
VERTEX
8
Layer 1
10
85.554368
20
24.027811
70
0
0
VERTEX
8
Layer 1
10
84.769747
20
23.293523
70
0
0
VERTEX
8
Layer 1
10
83.923611
20
22.774093
70
0
0
VERTEX
8
Layer 1
10
83.033818
20
22.462104
70
0
0
VERTEX
8
Layer 1
10
82.148999
20
22.351629
70
0
0
VERTEX
8
Layer 1
10
81.296996
20
22.420664
70
0
0
VERTEX
8
Layer 1
10
80.500209
20
22.645423
70
0
0
VERTEX
8
Layer 1
10
79.781035
20
23.002118
70
0
0
VERTEX
8
Layer 1
10
78.784479
20
23.876864
70
0
0
VERTEX
8
Layer 1
10
78.196877
20
24.966326
70
0
0
VERTEX
8
Layer 1
10
78.076843
20
26.153137
70
0
0
VERTEX
8
Layer 1
10
78.482991
20
27.319928
70
0
0
VERTEX
8
Layer 1
10
79.164160
20
28.063756
70
0
0
VERTEX
8
Layer 1
10
79.929466
20
28.438452
70
0
0
VERTEX
8
Layer 1
10
80.625848
20
28.527855
70
0
0
VERTEX
8
Layer 1
10
81.282279
20
28.365083
70
0
0
VERTEX
8
Layer 1
10
81.329904
20
28.337434
70
0
0
VERTEX
8
Layer 1
10
81.380704
20
28.304864
70
0
0
VERTEX
8
Layer 1
10
81.822557
20
27.814989
70
0
0
VERTEX
8
Layer 1
10
81.934476
20
27.050953
70
0
0
VERTEX
8
Layer 1
10
81.669893
20
26.071943
70
0
0
VERTEX
8
Layer 1
10
81.975751
20
25.988467
70
0
0
VERTEX
8
Layer 1
10
83.226964
20
25.677846
70
0
0
VERTEX
8
Layer 1
10
84.014297
20
27.370119
70
0
0
VERTEX
8
Layer 1
10
84.559933
20
29.022149
70
0
0
VERTEX
8
Layer 1
10
84.560198
20
29.023419
70
0
0
VERTEX
8
Layer 1
10
84.631040
20
29.726492
70
0
0
VERTEX
8
Layer 1
10
84.525273
20
30.183562
70
0
0
VERTEX
8
Layer 1
10
84.283477
20
30.536913
70
0
0
VERTEX
8
Layer 1
10
83.857730
20
30.871372
70
0
0
VERTEX
8
Layer 1
10
82.874705
20
31.342519
70
0
0
VERTEX
8
Layer 1
10
82.045936
20
31.592931
70
0
0
VERTEX
8
Layer 1
10
81.071935
20
31.722483
70
0
0
VERTEX
8
Layer 1
10
81.071935
20
31.722483
70
0
0
SEQEND
8
Layer 1
0
POLYLINE
8
Layer 1
62
7
70
1
10
0.000000
20
0.000000
66
1
0
VERTEX
8
Layer 1
10
74.372429
20
29.027308
70
0
0
VERTEX
8
Layer 1
10
74.371900
20
29.027308
70
0
0
VERTEX
8
Layer 1
10
74.370577
20
29.027044
70
0
0
VERTEX
8
Layer 1
10
74.367402
20
29.026541
70
0
0
VERTEX
8
Layer 1
10
74.358671
20
29.025244
70
0
0
VERTEX
8
Layer 1
10
74.332742
20
29.021620
70
0
0
VERTEX
8
Layer 1
10
74.247546
20
29.010772
70
0
0
VERTEX
8
Layer 1
10
73.955446
20
28.983652
70
0
0
VERTEX
8
Layer 1
10
72.974373
20
28.975900
70
0
0
VERTEX
8
Layer 1
10
71.934826
20
29.103515
70
0
0
VERTEX
8
Layer 1
10
70.765105
20
29.452863
70
0
0
VERTEX
8
Layer 1
10
69.077032
20
28.317578
70
0
0
VERTEX
8
Layer 1
10
67.283192
20
27.617822
70
0
0
VERTEX
8
Layer 1
10
67.190059
20
27.594327
70
0
0
VERTEX
8
Layer 1
10
69.260686
20
19.667579
70
0
0
VERTEX
8
Layer 1
10
70.636782
20
21.127019
70
0
0
VERTEX
8
Layer 1
10
72.238303
20
22.643344
70
0
0
VERTEX
8
Layer 1
10
72.970139
20
23.201878
70
0
0
VERTEX
8
Layer 1
10
73.770503
20
23.567532
70
0
0
VERTEX
8
Layer 1
10
73.865753
20
23.583672
70
0
0
VERTEX
8
Layer 1
10
73.720765
20
24.886897
70
0
0
VERTEX
8
Layer 1
10
73.808570
20
26.257187
70
0
0
VERTEX
8
Layer 1
10
74.146554
20
27.682955
70
0
0
VERTEX
8
Layer 1
10
74.752106
20
29.152615
70
0
0
VERTEX
8
Layer 1
10
74.467415
20
29.047469
70
0
0
VERTEX
8
Layer 1
10
74.372958
20
29.027573
70
0
0
VERTEX
8
Layer 1
10
74.228761
20
29.942236
70
0
0
VERTEX
8
Layer 1
10
74.372429
20
29.027308
70
0
0
VERTEX
8
Layer 1
10
74.372429
20
29.027308
70
0
0
SEQEND
8
Layer 1
0
POLYLINE
8
Layer 1
62
7
70
1
10
0.000000
20
0.000000
66
1
0
VERTEX
8
Layer 1
10
15.088216
20
32.745176
70
0
0
VERTEX
8
Layer 1
10
14.888747
20
32.546474
70
0
0
VERTEX
8
Layer 1
10
15.356186
20
31.944270
70
0
0
VERTEX
8
Layer 1
10
15.742186
20
31.193317
70
0
0
VERTEX
8
Layer 1
10
16.329745
20
29.530122
70
0
0
VERTEX
8
Layer 1
10
16.636688
20
28.619586
70
0
0
VERTEX
8
Layer 1
10
16.936672
20
28.575136
70
0
0
VERTEX
8
Layer 1
10
16.987313
20
28.566087
70
0
0
VERTEX
8
Layer 1
10
17.033562
20
28.556800
70
0
0
VERTEX
8
Layer 1
10
17.833265
20
28.225278
70
0
0
VERTEX
8
Layer 1
10
18.148992
20
27.999456
70
0
0
VERTEX
8
Layer 1
10
18.473529
20
27.613959
70
0
0
VERTEX
8
Layer 1
10
18.474296
20
27.614223
70
0
0
VERTEX
8
Layer 1
10
19.935019
20
24.323201
70
0
0
VERTEX
8
Layer 1
10
21.641805
20
19.701181
70
0
0
VERTEX
8
Layer 1
10
25.037274
20
23.278641
70
0
0
VERTEX
8
Layer 1
10
27.680409
20
25.727588
70
0
0
VERTEX
8
Layer 1
10
27.707661
20
25.748490
70
0
0
VERTEX
8
Layer 1
10
25.684183
20
25.569896
70
0
0
VERTEX
8
Layer 1
10
24.004599
20
25.690367
70
0
0
VERTEX
8
Layer 1
10
22.361672
20
26.047003
70
0
0
VERTEX
8
Layer 1
10
20.787800
20
26.632642
70
0
0
VERTEX
8
Layer 1
10
19.315383
20
27.440121
70
0
0
VERTEX
8
Layer 1
10
17.976817
20
28.462277
70
0
0
VERTEX
8
Layer 1
10
16.804502
20
29.691946
70
0
0
VERTEX
8
Layer 1
10
15.830835
20
31.121967
70
0
0
VERTEX
8
Layer 1
10
15.088216
20
32.745176
70
0
0
VERTEX
8
Layer 1
10
15.088216
20
32.745176
70
0
0
SEQEND
8
Layer 1
0
POLYLINE
8
Layer 1
62
7
70
1
10
0.000000
20
0.000000
66
1
0
VERTEX
8
Layer 1
10
43.253764
20
37.305608
70
0
0
VERTEX
8
Layer 1
10
41.875684
20
37.199267
70
0
0
VERTEX
8
Layer 1
10
40.593250
20
36.885671
70
0
0
VERTEX
8
Layer 1
10
39.435435
20
36.372959
70
0
0
VERTEX
8
Layer 1
10
38.431210
20
35.669268
70
0
0
VERTEX
8
Layer 1
10
37.608592
20
34.783690
70
0
0
VERTEX
8
Layer 1
10
36.974912
20
33.693239
70
0
0
VERTEX
8
Layer 1
10
36.567400
20
32.392102
70
0
0
VERTEX
8
Layer 1
10
36.423290
20
30.874468
70
0
0
VERTEX
8
Layer 1
10
36.553252
20
29.597503
70
0
0
VERTEX
8
Layer 1
10
36.924827
20
28.440901
70
0
0
VERTEX
8
Layer 1
10
37.510547
20
27.420042
70
0
0
VERTEX
8
Layer 1
10
38.282944
20
26.550305
70
0
0
VERTEX
8
Layer 1
10
39.214550
20
25.847071
70
0
0
VERTEX
8
Layer 1
10
40.277896
20
25.325720
70
0
0
VERTEX
8
Layer 1
10
41.445515
20
25.001630
70
0
0
VERTEX
8
Layer 1
10
42.689938
20
24.890183
70
0
0
VERTEX
8
Layer 1
10
43.837244
20
24.996263
70
0
0
VERTEX
8
Layer 1
10
45.045123
20
25.311594
70
0
0
VERTEX
8
Layer 1
10
46.246256
20
25.831806
70
0
0
VERTEX
8
Layer 1
10
47.373322
20
26.552531
70
0
0
VERTEX
8
Layer 1
10
48.338487
20
27.446490
70
0
0
VERTEX
8
Layer 1
10
49.091524
20
28.507009
70
0
0
VERTEX
8
Layer 1
10
49.581035
20
29.729557
70
0
0
VERTEX
8
Layer 1
10
49.755627
20
31.109603
70
0
0
VERTEX
8
Layer 1
10
49.662829
20
32.136763
70
0
0
VERTEX
8
Layer 1
10
49.379754
20
33.199140
70
0
0
VERTEX
8
Layer 1
10
48.899383
20
34.242141
70
0
0
VERTEX
8
Layer 1
10
48.214696
20
35.211169
70
0
0
VERTEX
8
Layer 1
10
47.332394
20
36.042014
70
0
0
VERTEX
8
Layer 1
10
46.221393
20
36.706023
70
0
0
VERTEX
8
Layer 1
10
44.866811
20
37.146214
70
0
0
VERTEX
8
Layer 1
10
43.253764
20
37.305608
70
0
0
VERTEX
8
Layer 1
10
43.253764
20
37.305608
70
0
0
SEQEND
8
Layer 1
0
POLYLINE
8
Layer 1
62
7
70
1
10
0.000000
20
0.000000
66
1
0
VERTEX
8
Layer 1
10
82.384796
20
47.327985
70
0
0
VERTEX
8
Layer 1
10
83.228382
20
47.470950
70
0
0
VERTEX
8
Layer 1
10
84.090001
20
47.443168
70
0
0
VERTEX
8
Layer 1
10
84.942442
20
47.238097
70
0
0
VERTEX
8
Layer 1
10
85.758494
20
46.849196
70
0
0
VERTEX
8
Layer 1
10
93.788324
20
41.931683
70
0
0
VERTEX
8
Layer 1
10
94.505484
20
41.381589
70
0
0
VERTEX
8
Layer 1
10
95.075454
20
40.715497
70
0
0
VERTEX
8
Layer 1
10
95.491734
20
39.960639
70
0
0
VERTEX
8
Layer 1
10
95.747825
20
39.144248
70
0
0
VERTEX
8
Layer 1
10
96.029738
20
36.836042
70
0
0
VERTEX
8
Layer 1
10
96.019552
20
34.548415
70
0
0
VERTEX
8
Layer 1
10
95.994152
20
34.262903
70
0
0
VERTEX
8
Layer 1
10
95.981981
20
34.167812
70
0
0
VERTEX
8
Layer 1
10
95.618973
20
32.124781
70
0
0
VERTEX
8
Layer 1
10
95.550182
20
31.833343
70
0
0
VERTEX
8
Layer 1
10
95.041124
20
30.614542
70
0
0
VERTEX
8
Layer 1
10
94.338656
20
29.467601
70
0
0
VERTEX
8
Layer 1
10
93.812893
20
28.776014
70
0
0
VERTEX
8
Layer 1
10
93.179303
20
28.220003
70
0
0
VERTEX
8
Layer 1
10
92.461601
20
27.805265
70
0
0
VERTEX
8
Layer 1
10
91.683500
20
27.537498
70
0
0
VERTEX
8
Layer 1
10
90.868712
20
27.422399
70
0
0
VERTEX
8
Layer 1
10
90.040952
20
27.465668
70
0
0
VERTEX
8
Layer 1
10
89.223932
20
27.673001
70
0
0
VERTEX
8
Layer 1
10
88.441366
20
28.050097
70
0
0
VERTEX
8
Layer 1
10
87.780966
20
28.547083
70
0
0
VERTEX
8
Layer 1
10
87.242606
20
29.142726
70
0
0
VERTEX
8
Layer 1
10
86.552243
20
30.547099
70
0
0
VERTEX
8
Layer 1
10
86.526049
20
30.644519
70
0
0
VERTEX
8
Layer 1
10
86.384762
20
31.221495
70
0
0
VERTEX
8
Layer 1
10
86.264906
20
31.713434
70
0
0
VERTEX
8
Layer 1
10
85.849246
20
33.023173
70
0
0
VERTEX
8
Layer 1
10
85.483262
20
33.667112
70
0
0
VERTEX
8
Layer 1
10
85.035918
20
34.078938
70
0
0
VERTEX
8
Layer 1
10
82.741719
20
35.484007
70
0
0
VERTEX
8
Layer 1
10
82.171311
20
35.695418
70
0
0
VERTEX
8
Layer 1
10
81.431239
20
35.728693
70
0
0
VERTEX
8
Layer 1
10
79.583127
20
35.386852
70
0
0
VERTEX
8
Layer 1
10
79.294731
20
35.317875
70
0
0
VERTEX
8
Layer 1
10
79.005013
20
35.250697
70
0
0
VERTEX
8
Layer 1
10
78.204501
20
35.148033
70
0
0
VERTEX
8
Layer 1
10
77.392181
20
35.197953
70
0
0
VERTEX
8
Layer 1
10
76.590875
20
35.405888
70
0
0
VERTEX
8
Layer 1
10
75.823402
20
35.777270
70
0
0
VERTEX
8
Layer 1
10
75.131844
20
36.302985
70
0
0
VERTEX
8
Layer 1
10
74.575844
20
36.936546
70
0
0
VERTEX
8
Layer 1
10
74.161106
20
37.654236
70
0
0
VERTEX
8
Layer 1
10
73.893336
20
38.432341
70
0
0
VERTEX
8
Layer 1
10
73.778238
20
39.247144
70
0
0
VERTEX
8
Layer 1
10
73.821518
20
40.074930
70
0
0
VERTEX
8
Layer 1
10
74.028881
20
40.891983
70
0
0
VERTEX
8
Layer 1
10
74.406031
20
41.674587
70
0
0
VERTEX
8
Layer 1
10
75.108235
20
42.821793
70
0
0
VERTEX
8
Layer 1
10
75.962838
20
43.828981
70
0
0
VERTEX
8
Layer 1
10
77.845875
20
45.274609
70
0
0
VERTEX
8
Layer 1
10
78.167608
20
45.481063
70
0
0
VERTEX
8
Layer 1
10
80.200597
20
46.529937
70
0
0
VERTEX
8
Layer 1
10
82.384796
20
47.327985
70
0
0
VERTEX
8
Layer 1
10
82.384796
20
47.327985
70
0
0
SEQEND
8
Layer 1
0
POLYLINE
8
Layer 1
62
7
70
1
10
0.000000
20
0.000000
66
1
0
VERTEX
8
Layer 1
10
44.748923
20
31.156619
70
0
0
VERTEX
8
Layer 1
10
44.709467
20
31.618277
70
0
0
VERTEX
8
Layer 1
10
44.505506
20
32.262497
70
0
0
VERTEX
8
Layer 1
10
44.086142
20
32.739222
70
0
0
VERTEX
8
Layer 1
10
43.735371
20
32.890789
70
0
0
VERTEX
8
Layer 1
10
43.183385
20
32.957027
70
0
0
VERTEX
8
Layer 1
10
42.383121
20
32.785306
70
0
0
VERTEX
8
Layer 1
10
41.930320
20
32.382406
70
0
0
VERTEX
8
Layer 1
10
41.656774
20
31.783790
70
0
0
VERTEX
8
Layer 1
10
41.570752
20
31.156619
70
0
0
VERTEX
8
Layer 1
10
41.714214
20
30.419489
70
0
0
VERTEX
8
Layer 1
10
42.093568
20
29.859653
70
0
0
VERTEX
8
Layer 1
10
42.632267
20
29.504019
70
0
0
VERTEX
8
Layer 1
10
43.253764
20
29.379495
70
0
0
VERTEX
8
Layer 1
10
43.930534
20
29.519816
70
0
0
VERTEX
8
Layer 1
10
44.360250
20
29.872228
70
0
0
VERTEX
8
Layer 1
10
44.645768
20
30.439503
70
0
0
VERTEX
8
Layer 1
10
44.748923
20
31.156619
70
0
0
VERTEX
8
Layer 1
10
44.748923
20
31.156619
70
0
0
SEQEND
8
Layer 1
0
POLYLINE
8
Layer 1
62
7
70
1
10
0.000000
20
0.000000
66
1
0
VERTEX
8
Layer 1
10
49.850348
20
45.437910
70
0
0
VERTEX
8
Layer 1
10
54.319419
20
27.676242
70
0
0
VERTEX
8
Layer 1
10
58.016702
20
28.606674
70
0
0
VERTEX
8
Layer 1
10
53.547895
20
46.368078
70
0
0
VERTEX
8
Layer 1
10
49.850348
20
45.437910
70
0
0
VERTEX
8
Layer 1
10
49.850348
20
45.437910
70
0
0
SEQEND
8
Layer 1
0
POLYLINE
8
Layer 1
62
7
70
1
10
0.000000
20
0.000000
66
1
0
VERTEX
8
Layer 1
10
12.835107
20
33.217747
70
0
0
VERTEX
8
Layer 1
10
12.840028
20
33.220843
70
0
0
VERTEX
8
Layer 1
10
12.866645
20
33.240740
70
0
0
VERTEX
8
Layer 1
10
12.982903
20
33.330645
70
0
0
VERTEX
8
Layer 1
10
13.411818
20
33.698071
70
0
0
VERTEX
8
Layer 1
10
14.544577
20
34.956137
70
0
0
VERTEX
8
Layer 1
10
14.584850
20
35.982663
70
0
0
VERTEX
8
Layer 1
10
14.684356
20
37.041792
70
0
0
VERTEX
8
Layer 1
10
14.669236
20
38.153623
70
0
0
VERTEX
8
Layer 1
10
14.866522
20
40.004910
70
0
0
VERTEX
8
Layer 1
10
14.266878
20
40.623419
70
0
0
VERTEX
8
Layer 1
10
13.536622
20
41.062739
70
0
0
VERTEX
8
Layer 1
10
13.137135
20
41.408235
70
0
0
VERTEX
8
Layer 1
10
12.991449
20
41.915913
70
0
0
VERTEX
8
Layer 1
10
12.916423
20
42.452193
70
0
0
VERTEX
8
Layer 1
10
12.436168
20
43.467243
70
0
0
VERTEX
8
Layer 1
10
11.811250
20
42.905371
70
0
0
VERTEX
8
Layer 1
10
10.948921
20
41.815398
70
0
0
VERTEX
8
Layer 1
10
10.667646
20
41.548437
70
0
0
VERTEX
8
Layer 1
10
10.301698
20
41.420085
70
0
0
VERTEX
8
Layer 1
10
9.000350
20
41.162616
70
0
0
VERTEX
8
Layer 1
10
7.715293
20
40.732010
70
0
0
VERTEX
8
Layer 1
10
6.497778
20
40.135723
70
0
0
VERTEX
8
Layer 1
10
5.393472
20
39.406502
70
0
0
VERTEX
8
Layer 1
10
5.042687
20
39.240695
70
0
0
VERTEX
8
Layer 1
10
4.654756
20
39.233121
70
0
0
VERTEX
8
Layer 1
10
3.273919
20
39.403235
70
0
0
VERTEX
8
Layer 1
10
2.433441
20
39.363878
70
0
0
VERTEX
8
Layer 1
10
2.804981
20
38.304064
70
0
0
VERTEX
8
Layer 1
10
3.127980
20
37.869646
70
0
0
VERTEX
8
Layer 1
10
3.380699
20
37.406533
70
0
0
VERTEX
8
Layer 1
10
3.339593
20
36.880555
70
0
0
VERTEX
8
Layer 1
10
3.102269
20
35.644744
70
0
0
VERTEX
8
Layer 1
10
3.371634
20
34.332912
70
0
0
VERTEX
8
Layer 1
10
3.956650
20
33.182277
70
0
0
VERTEX
8
Layer 1
10
4.596276
20
32.373972
70
0
0
VERTEX
8
Layer 1
10
5.268178
20
31.849383
70
0
0
VERTEX
8
Layer 1
10
5.950022
20
31.549895
70
0
0
VERTEX
8
Layer 1
10
6.702965
20
31.408819
70
0
0
VERTEX
8
Layer 1
10
7.505929
20
31.410675
70
0
0
VERTEX
8
Layer 1
10
9.230428
20
31.748597
70
0
0
VERTEX
8
Layer 1
10
9.762084
20
31.742485
70
0
0
VERTEX
8
Layer 1
10
10.202717
20
31.444988
70
0
0
VERTEX
8
Layer 1
10
10.407035
20
30.954025
70
0
0
VERTEX
8
Layer 1
10
10.307625
20
30.431609
70
0
0
VERTEX
8
Layer 1
10
10.211756
20
30.066646
70
0
0
VERTEX
8
Layer 1
10
10.273784
20
29.420558
70
0
0
VERTEX
8
Layer 1
10
10.269766
20
28.955229
70
0
0
VERTEX
8
Layer 1
10
10.039946
20
28.550583
70
0
0
VERTEX
8
Layer 1
10
9.990072
20
28.501502
70
0
0
VERTEX
8
Layer 1
10
10.264471
20
28.463270
70
0
0
VERTEX
8
Layer 1
10
10.662377
20
28.222447
70
0
0
VERTEX
8
Layer 1
10
11.084334
20
28.864537
70
0
0
VERTEX
8
Layer 1
10
11.592400
20
29.172908
70
0
0
VERTEX
8
Layer 1
10
12.213971
20
29.263475
70
0
0
VERTEX
8
Layer 1
10
12.303374
20
29.257019
70
0
0
VERTEX
8
Layer 1
10
12.348591
20
29.251595
70
0
0
VERTEX
8
Layer 1
10
14.579714
20
28.922666
70
0
0
VERTEX
8
Layer 1
10
14.570930
20
28.949547
70
0
0
VERTEX
8
Layer 1
10
14.028588
20
30.490267
70
0
0
VERTEX
8
Layer 1
10
13.518617
20
31.298981
70
0
0
VERTEX
8
Layer 1
10
13.093498
20
31.580111
70
0
0
VERTEX
8
Layer 1
10
12.670321
20
31.859497
70
0
0
VERTEX
8
Layer 1
10
12.457626
20
32.319858
70
0
0
VERTEX
8
Layer 1
10
12.507401
20
32.793690
70
0
0
VERTEX
8
Layer 1
10
12.784465
20
33.178721
70
0
0
VERTEX
8
Layer 1
10
12.835107
20
33.217747
70
0
0
VERTEX
8
Layer 1
10
12.835107
20
33.217747
70
0
0
SEQEND
8
Layer 1
0
POLYLINE
8
Layer 1
62
7
70
1
10
0.000000
20
0.000000
66
1
0
VERTEX
8
Layer 1
10
8.365109
20
29.652862
70
0
0
VERTEX
8
Layer 1
10
7.387101
20
29.548686
70
0
0
VERTEX
8
Layer 1
10
6.384626
20
29.579466
70
0
0
VERTEX
8
Layer 1
10
6.398040
20
29.570418
70
0
0
VERTEX
8
Layer 1
10
6.452042
20
29.531418
70
0
0
VERTEX
8
Layer 1
10
6.465244
20
29.521602
70
0
0
VERTEX
8
Layer 1
10
7.203659
20
29.184054
70
0
0
VERTEX
8
Layer 1
10
7.780407
20
29.231434
70
0
0
VERTEX
8
Layer 1
10
8.374925
20
29.547425
70
0
0
VERTEX
8
Layer 1
10
8.365109
20
29.652862
70
0
0
VERTEX
8
Layer 1
10
8.365109
20
29.652862
70
0
0
SEQEND
8
Layer 1
0
POLYLINE
8
Layer 1
62
7
70
1
10
0.000000
20
0.000000
66
1
0
VERTEX
8
Layer 1
10
65.547792
20
47.953777
70
0
0
VERTEX
8
Layer 1
10
66.718308
20
41.984387
70
0
0
VERTEX
8
Layer 1
10
66.702366
20
41.560099
70
0
0
VERTEX
8
Layer 1
10
66.498704
20
41.187543
70
0
0
VERTEX
8
Layer 1
10
66.150347
20
40.944996
70
0
0
VERTEX
8
Layer 1
10
65.730355
20
40.883405
70
0
0
VERTEX
8
Layer 1
10
64.457181
20
40.889599
70
0
0
VERTEX
8
Layer 1
10
63.144320
20
40.672056
70
0
0
VERTEX
8
Layer 1
10
61.826862
20
40.162765
70
0
0
VERTEX
8
Layer 1
10
60.791979
20
39.449586
70
0
0
VERTEX
8
Layer 1
10
60.013576
20
38.580253
70
0
0
VERTEX
8
Layer 1
10
59.465558
20
37.602496
70
0
0
VERTEX
8
Layer 1
10
59.116437
20
36.534728
70
0
0
VERTEX
8
Layer 1
10
58.960569
20
35.449234
70
0
0
VERTEX
8
Layer 1
10
58.977886
20
34.398893
70
0
0
VERTEX
8
Layer 1
10
59.148323
20
33.436584
70
0
0
VERTEX
8
Layer 1
10
59.576080
20
32.338289
70
0
0
VERTEX
8
Layer 1
10
60.219095
20
31.375344
70
0
0
VERTEX
8
Layer 1
10
61.045373
20
30.565019
70
0
0
VERTEX
8
Layer 1
10
62.022918
20
29.924582
70
0
0
VERTEX
8
Layer 1
10
63.119737
20
29.471304
70
0
0
VERTEX
8
Layer 1
10
64.303835
20
29.222454
70
0
0
VERTEX
8
Layer 1
10
65.543215
20
29.195302
70
0
0
VERTEX
8
Layer 1
10
66.805885
20
29.407117
70
0
0
VERTEX
8
Layer 1
10
68.433136
20
30.074918
70
0
0
VERTEX
8
Layer 1
10
69.967916
20
31.225358
70
0
0
VERTEX
8
Layer 1
10
70.025331
20
31.276528
70
0
0
VERTEX
8
Layer 1
10
70.535017
20
31.481266
70
0
0
VERTEX
8
Layer 1
10
71.073873
20
31.359713
70
0
0
VERTEX
8
Layer 1
10
72.075121
20
30.968160
70
0
0
VERTEX
8
Layer 1
10
73.072798
20
30.825388
70
0
0
VERTEX
8
Layer 1
10
73.824478
20
30.831076
70
0
0
VERTEX
8
Layer 1
10
73.868928
20
30.834939
70
0
0
VERTEX
8
Layer 1
10
73.885332
20
30.927967
70
0
0
VERTEX
8
Layer 1
10
73.886655
20
30.936486
70
0
0
VERTEX
8
Layer 1
10
74.283000
20
33.612558
70
0
0
VERTEX
8
Layer 1
10
73.273153
20
34.159091
70
0
0
VERTEX
8
Layer 1
10
72.562946
20
35.030564
70
0
0
VERTEX
8
Layer 1
10
72.006363
20
36.205524
70
0
0
VERTEX
8
Layer 1
10
71.574199
20
37.578207
70
0
0
VERTEX
8
Layer 1
10
70.289649
20
43.885046
70
0
0
VERTEX
8
Layer 1
10
69.614433
20
47.475252
70
0
0
VERTEX
8
Layer 1
10
69.356200
20
48.898947
70
0
0
VERTEX
8
Layer 1
10
65.547792
20
47.953777
70
0
0
VERTEX
8
Layer 1
10
65.547792
20
47.953777
70
0
0
SEQEND
8
Layer 1
0
POLYLINE
8
Layer 1
62
7
70
1
10
0.000000
20
0.000000
66
1
0
VERTEX
8
Layer 1
10
84.791443
20
45.269715
70
0
0
VERTEX
8
Layer 1
10
83.844170
20
45.607379
70
0
0
VERTEX
8
Layer 1
10
82.874275
20
45.541521
70
0
0
VERTEX
8
Layer 1
10
80.957239
20
44.839420
70
0
0
VERTEX
8
Layer 1
10
79.102115
20
43.882188
70
0
0
VERTEX
8
Layer 1
10
78.909499
20
43.758681
70
0
0
VERTEX
8
Layer 1
10
77.173305
20
42.427247
70
0
0
VERTEX
8
Layer 1
10
76.687795
20
41.854424
70
0
0
VERTEX
8
Layer 1
10
75.985063
20
40.707457
70
0
0
VERTEX
8
Layer 1
10
75.653073
20
39.798605
70
0
0
VERTEX
8
Layer 1
10
75.693922
20
38.865328
70
0
0
VERTEX
8
Layer 1
10
76.081689
20
38.015439
70
0
0
VERTEX
8
Layer 1
10
76.790453
20
37.356751
70
0
0
VERTEX
8
Layer 1
10
77.681139
20
37.027352
70
0
0
VERTEX
8
Layer 1
10
78.597820
20
37.057561
70
0
0
VERTEX
8
Layer 1
10
79.148946
20
37.187524
70
0
0
VERTEX
8
Layer 1
10
79.651125
20
37.306639
70
0
0
VERTEX
8
Layer 1
10
81.314823
20
37.577176
70
0
0
VERTEX
8
Layer 1
10
82.509117
20
37.516348
70
0
0
VERTEX
8
Layer 1
10
83.708770
20
37.063250
70
0
0
VERTEX
8
Layer 1
10
86.002969
20
35.658420
70
0
0
VERTEX
8
Layer 1
10
86.951631
20
34.795767
70
0
0
VERTEX
8
Layer 1
10
87.548663
20
33.759560
70
0
0
VERTEX
8
Layer 1
10
88.064070
20
32.154759
70
0
0
VERTEX
8
Layer 1
10
88.186043
20
31.653506
70
0
0
VERTEX
8
Layer 1
10
88.320716
20
31.103412
70
0
0
VERTEX
8
Layer 1
10
88.351672
20
30.992816
70
0
0
VERTEX
8
Layer 1
10
88.745140
20
30.226296
70
0
0
VERTEX
8
Layer 1
10
89.408681
20
29.629340
70
0
0
VERTEX
8
Layer 1
10
90.317462
20
29.297362
70
0
0
VERTEX
8
Layer 1
10
91.250675
20
29.338269
70
0
0
VERTEX
8
Layer 1
10
92.100495
20
29.726119
70
0
0
VERTEX
8
Layer 1
10
92.759096
20
30.434969
70
0
0
VERTEX
8
Layer 1
10
93.461564
20
31.581936
70
0
0
VERTEX
8
Layer 1
10
93.510776
20
31.665650
70
0
0
VERTEX
8
Layer 1
10
93.751282
20
32.274641
70
0
0
VERTEX
8
Layer 1
10
93.812665
20
32.535097
70
0
0
VERTEX
8
Layer 1
10
94.148156
20
34.426468
70
0
0
VERTEX
8
Layer 1
10
94.170646
20
34.654089
70
0
0
VERTEX
8
Layer 1
10
94.180105
20
36.741675
70
0
0
VERTEX
8
Layer 1
10
93.934373
20
38.768302
70
0
0
VERTEX
8
Layer 1
10
93.588464
20
39.608121
70
0
0
VERTEX
8
Layer 1
10
92.936366
20
40.277007
70
0
0
VERTEX
8
Layer 1
10
93.218610
20
39.329843
70
0
0
VERTEX
8
Layer 1
10
92.950389
20
38.350234
70
0
0
VERTEX
8
Layer 1
10
92.664640
20
37.992888
70
0
0
VERTEX
8
Layer 1
10
93.016270
20
37.846918
70
0
0
VERTEX
8
Layer 1
10
93.097497
20
37.799902
70
0
0
VERTEX
8
Layer 1
10
93.176343
20
37.748731
70
0
0
VERTEX
8
Layer 1
10
93.665685
20
37.252016
70
0
0
VERTEX
8
Layer 1
10
93.927593
20
36.628302
70
0
0
VERTEX
8
Layer 1
10
93.944779
20
35.950949
70
0
0
VERTEX
8
Layer 1
10
93.699953
20
35.293322
70
0
0
VERTEX
8
Layer 1
10
93.207460
20
34.763330
70
0
0
VERTEX
8
Layer 1
10
92.571870
20
34.473194
70
0
0
VERTEX
8
Layer 1
10
91.873722
20
34.442554
70
0
0
VERTEX
8
Layer 1
10
91.193558
20
34.691051
70
0
0
VERTEX
8
Layer 1
10
90.877117
20
34.936505
70
0
0
VERTEX
8
Layer 1
10
90.701434
20
34.556934
70
0
0
VERTEX
8
Layer 1
10
90.208941
20
34.026852
70
0
0
VERTEX
8
Layer 1
10
89.573351
20
33.736644
70
0
0
VERTEX
8
Layer 1
10
88.875203
20
33.705947
70
0
0
VERTEX
8
Layer 1
10
88.195039
20
33.954399
70
0
0
VERTEX
8
Layer 1
10
87.664579
20
34.447337
70
0
0
VERTEX
8
Layer 1
10
87.374600
20
35.083206
70
0
0
VERTEX
8
Layer 1
10
87.344227
20
35.781311
70
0
0
VERTEX
8
Layer 1
10
87.592583
20
36.460953
70
0
0
VERTEX
8
Layer 1
10
87.864046
20
36.803826
70
0
0
VERTEX
8
Layer 1
10
87.369540
20
37.014143
70
0
0
VERTEX
8
Layer 1
10
86.839076
20
37.507077
70
0
0
VERTEX
8
Layer 1
10
86.549068
20
38.142880
70
0
0
VERTEX
8
Layer 1
10
86.518616
20
38.840894
70
0
0
VERTEX
8
Layer 1
10
86.766820
20
39.520458
70
0
0
VERTEX
8
Layer 1
10
87.259312
20
40.050499
70
0
0
VERTEX
8
Layer 1
10
87.894903
20
40.340699
70
0
0
VERTEX
8
Layer 1
10
88.593050
20
40.371412
70
0
0
VERTEX
8
Layer 1
10
89.273215
20
40.122993
70
0
0
VERTEX
8
Layer 1
10
89.647600
20
39.819146
70
0
0
VERTEX
8
Layer 1
10
89.841539
20
40.254253
70
0
0
VERTEX
8
Layer 1
10
90.176137
20
40.657387
70
0
0
VERTEX
8
Layer 1
10
90.595865
20
40.940363
70
0
0
VERTEX
8
Layer 1
10
91.572441
20
41.117005
70
0
0
VERTEX
8
Layer 1
10
84.791443
20
45.269715
70
0
0
VERTEX
8
Layer 1
10
84.791443
20
45.269715
70
0
0
SEQEND
8
Layer 1
0
POLYLINE
8
Layer 1
62
7
70
1
10
0.000000
20
0.000000
66
1
0
VERTEX
8
Layer 1
10
64.809606
20
38.532664
70
0
0
VERTEX
8
Layer 1
10
65.490039
20
38.636634
70
0
0
VERTEX
8
Layer 1
10
66.189671
20
38.590522
70
0
0
VERTEX
8
Layer 1
10
66.853386
20
38.379379
70
0
0
VERTEX
8
Layer 1
10
67.426067
20
37.988258
70
0
0
VERTEX
8
Layer 1
10
67.490361
20
37.923912
70
0
0
VERTEX
8
Layer 1
10
67.529255
20
37.880493
70
0
0
VERTEX
8
Layer 1
10
67.716315
20
37.522380
70
0
0
VERTEX
8
Layer 1
10
68.900059
20
34.044305
70
0
0
VERTEX
8
Layer 1
10
68.954199
20
33.459609
70
0
0
VERTEX
8
Layer 1
10
68.645795
20
32.959885
70
0
0
VERTEX
8
Layer 1
10
67.685392
20
32.293569
70
0
0
VERTEX
8
Layer 1
10
66.702962
20
31.890440
70
0
0
VERTEX
8
Layer 1
10
65.970000
20
31.769803
70
0
0
VERTEX
8
Layer 1
10
65.280543
20
31.798882
70
0
0
VERTEX
8
Layer 1
10
64.070923
20
32.246701
70
0
0
VERTEX
8
Layer 1
10
63.151667
20
33.114929
70
0
0
VERTEX
8
Layer 1
10
62.600338
20
34.284599
70
0
0
VERTEX
8
Layer 1
10
62.483090
20
35.543931
70
0
0
VERTEX
8
Layer 1
10
62.790077
20
36.803641
70
0
0
VERTEX
8
Layer 1
10
63.554511
20
37.865846
70
0
0
VERTEX
8
Layer 1
10
64.118650
20
38.261046
70
0
0
VERTEX
8
Layer 1
10
64.809606
20
38.532664
70
0
0
VERTEX
8
Layer 1
10
64.809606
20
38.532664
70
0
0
SEQEND
8
Layer 1
0
POLYLINE
8
Layer 1
62
7
70
1
10
0.000000
20
0.000000
66
1
0
VERTEX
8
Layer 1
10
66.014252
20
36.723472
70
0
0
VERTEX
8
Layer 1
10
65.286914
20
36.743104
70
0
0
VERTEX
8
Layer 1
10
64.811528
20
36.487588
70
0
0
VERTEX
8
Layer 1
10
64.476860
20
36.038682
70
0
0
VERTEX
8
Layer 1
10
64.322918
20
35.446668
70
0
0
VERTEX
8
Layer 1
10
64.389713
20
34.761827
70
0
0
VERTEX
8
Layer 1
10
64.643688
20
34.206260
70
0
0
VERTEX
8
Layer 1
10
65.052691
20
33.817124
70
0
0
VERTEX
8
Layer 1
10
65.589191
20
33.629883
70
0
0
VERTEX
8
Layer 1
10
66.225654
20
33.680000
70
0
0
VERTEX
8
Layer 1
10
66.916745
20
33.989271
70
0
0
VERTEX
8
Layer 1
10
66.014252
20
36.723472
70
0
0
VERTEX
8
Layer 1
10
66.014252
20
36.723472
70
0
0
SEQEND
8
Layer 1
0
POLYLINE
8
Layer 1
62
7
70
1
10
0.000000
20
0.000000
66
1
0
VERTEX
8
Layer 1
10
74.394919
20
34.264438
70
0
0
VERTEX
8
Layer 1
10
74.379838
20
34.213796
70
0
0
VERTEX
8
Layer 1
10
74.394919
20
34.264438
70
0
0
VERTEX
8
Layer 1
10
74.394919
20
34.264438
70
0
0
SEQEND
8
Layer 1
0
POLYLINE
8
Layer 1
62
7
70
1
10
0.000000
20
0.000000
66
1
0
VERTEX
8
Layer 1
10
89.140129
20
35.537241
70
0
0
VERTEX
8
Layer 1
10
89.130340
20
35.532849
70
0
0
VERTEX
8
Layer 1
10
89.122138
20
35.524329
70
0
0
VERTEX
8
Layer 1
10
89.118169
20
35.512952
70
0
0
VERTEX
8
Layer 1
10
89.118434
20
35.502104
70
0
0
VERTEX
8
Layer 1
10
89.123196
20
35.492288
70
0
0
VERTEX
8
Layer 1
10
89.131663
20
35.484007
70
0
0
VERTEX
8
Layer 1
10
89.143040
20
35.480144
70
0
0
VERTEX
8
Layer 1
10
89.153888
20
35.480382
70
0
0
VERTEX
8
Layer 1
10
89.163677
20
35.485038
70
0
0
VERTEX
8
Layer 1
10
89.171879
20
35.493584
70
0
0
VERTEX
8
Layer 1
10
89.170821
20
35.525864
70
0
0
VERTEX
8
Layer 1
10
89.162354
20
35.533880
70
0
0
VERTEX
8
Layer 1
10
89.162090
20
35.534145
70
0
0
VERTEX
8
Layer 1
10
89.150977
20
35.537743
70
0
0
VERTEX
8
Layer 1
10
89.140129
20
35.537241
70
0
0
VERTEX
8
Layer 1
10
89.140129
20
35.537241
70
0
0
SEQEND
8
Layer 1
0
POLYLINE
8
Layer 1
62
7
70
1
10
0.000000
20
0.000000
66
1
0
VERTEX
8
Layer 1
10
92.160609
20
36.270532
70
0
0
VERTEX
8
Layer 1
10
92.120392
20
36.260716
70
0
0
VERTEX
8
Layer 1
10
92.121715
20
36.228411
70
0
0
VERTEX
8
Layer 1
10
92.130182
20
36.220394
70
0
0
VERTEX
8
Layer 1
10
92.162726
20
36.221690
70
0
0
VERTEX
8
Layer 1
10
92.170398
20
36.229972
70
0
0
VERTEX
8
Layer 1
10
92.169340
20
36.262516
70
0
0
VERTEX
8
Layer 1
10
92.160873
20
36.270268
70
0
0
VERTEX
8
Layer 1
10
92.160609
20
36.270532
70
0
0
VERTEX
8
Layer 1
10
92.160609
20
36.270532
70
0
0
SEQEND
8
Layer 1
0
POLYLINE
8
Layer 1
62
7
70
1
10
0.000000
20
0.000000
66
1
0
VERTEX
8
Layer 1
10
90.069345
20
38.052076
70
0
0
VERTEX
8
Layer 1
10
89.875670
20
37.616440
70
0
0
VERTEX
8
Layer 1
10
89.604473
20
37.273831
70
0
0
VERTEX
8
Layer 1
10
90.017751
20
37.110266
70
0
0
VERTEX
8
Layer 1
10
90.098978
20
37.063250
70
0
0
VERTEX
8
Layer 1
10
90.177824
20
37.012344
70
0
0
VERTEX
8
Layer 1
10
90.415155
20
36.818299
70
0
0
VERTEX
8
Layer 1
10
90.591103
20
37.197340
70
0
0
VERTEX
8
Layer 1
10
90.876852
20
37.554951
70
0
0
VERTEX
8
Layer 1
10
90.443994
20
37.747699
70
0
0
VERTEX
8
Layer 1
10
90.069345
20
38.052076
70
0
0
VERTEX
8
Layer 1
10
90.069345
20
38.052076
70
0
0
SEQEND
8
Layer 1
0
POLYLINE
8
Layer 1
62
7
70
1
10
0.000000
20
0.000000
66
1
0
VERTEX
8
Layer 1
10
83.080649
20
44.250144
70
0
0
VERTEX
8
Layer 1
10
83.512652
20
44.714188
70
0
0
VERTEX
8
Layer 1
10
84.069892
20
44.968335
70
0
0
VERTEX
8
Layer 1
10
84.681852
20
44.995221
70
0
0
VERTEX
8
Layer 1
10
85.278011
20
44.777484
70
0
0
VERTEX
8
Layer 1
10
85.742830
20
44.345684
70
0
0
VERTEX
8
Layer 1
10
85.997379
20
43.788407
70
0
0
VERTEX
8
Layer 1
10
86.024272
20
43.176222
70
0
0
VERTEX
8
Layer 1
10
85.806119
20
42.579699
70
0
0
VERTEX
8
Layer 1
10
85.806384
20
42.579435
70
0
0
VERTEX
8
Layer 1
10
85.587309
20
42.222353
70
0
0
VERTEX
8
Layer 1
10
85.944760
20
42.003490
70
0
0
VERTEX
8
Layer 1
10
85.945819
20
42.002988
70
0
0
VERTEX
8
Layer 1
10
86.409546
20
41.571287
70
0
0
VERTEX
8
Layer 1
10
86.663996
20
41.014195
70
0
0
VERTEX
8
Layer 1
10
86.691186
20
40.401986
70
0
0
VERTEX
8
Layer 1
10
86.473133
20
39.804938
70
0
0
VERTEX
8
Layer 1
10
86.040994
20
39.340068
70
0
0
VERTEX
8
Layer 1
10
85.483195
20
39.085735
70
0
0
VERTEX
8
Layer 1
10
84.870628
20
39.059228
70
0
0
VERTEX
8
Layer 1
10
84.274183
20
39.277836
70
0
0
VERTEX
8
Layer 1
10
83.918319
20
39.495640
70
0
0
VERTEX
8
Layer 1
10
83.699509
20
39.138056
70
0
0
VERTEX
8
Layer 1
10
83.698715
20
39.137025
70
0
0
VERTEX
8
Layer 1
10
83.266713
20
38.673077
70
0
0
VERTEX
8
Layer 1
10
82.709473
20
38.418910
70
0
0
VERTEX
8
Layer 1
10
82.097513
20
38.391958
70
0
0
VERTEX
8
Layer 1
10
81.501354
20
38.609658
70
0
0
VERTEX
8
Layer 1
10
81.036241
20
39.041765
70
0
0
VERTEX
8
Layer 1
10
80.781622
20
39.599463
70
0
0
VERTEX
8
Layer 1
10
80.754907
20
40.212029
70
0
0
VERTEX
8
Layer 1
10
80.973510
20
40.808739
70
0
0
VERTEX
8
Layer 1
10
81.191527
20
41.165318
70
0
0
VERTEX
8
Layer 1
10
80.834869
20
41.383387
70
0
0
VERTEX
8
Layer 1
10
80.833546
20
41.384419
70
0
0
VERTEX
8
Layer 1
10
80.369707
20
41.816071
70
0
0
VERTEX
8
Layer 1
10
80.115269
20
42.373080
70
0
0
VERTEX
8
Layer 1
10
80.088141
20
42.985205
70
0
0
VERTEX
8
Layer 1
10
80.306232
20
43.582204
70
0
0
VERTEX
8
Layer 1
10
80.350682
20
43.651472
70
0
0
VERTEX
8
Layer 1
10
80.785938
20
44.080104
70
0
0
VERTEX
8
Layer 1
10
81.332814
20
44.309867
70
0
0
VERTEX
8
Layer 1
10
81.926919
20
44.325090
70
0
0
VERTEX
8
Layer 1
10
82.503859
20
44.110100
70
0
0
VERTEX
8
Layer 1
10
82.861046
20
43.891766
70
0
0
VERTEX
8
Layer 1
10
83.080120
20
44.249112
70
0
0
VERTEX
8
Layer 1
10
83.080649
20
44.250144
70
0
0
VERTEX
8
Layer 1
10
83.080649
20
44.250144
70
0
0
SEQEND
8
Layer 1
0
POLYLINE
8
Layer 1
62
7
70
1
10
0.000000
20
0.000000
66
1
0
VERTEX
8
Layer 1
10
88.325743
20
38.597513
70
0
0
VERTEX
8
Layer 1
10
88.304312
20
38.592354
70
0
0
VERTEX
8
Layer 1
10
88.296639
20
38.583808
70
0
0
VERTEX
8
Layer 1
10
88.306164
20
38.543512
70
0
0
VERTEX
8
Layer 1
10
88.346380
20
38.553063
70
0
0
VERTEX
8
Layer 1
10
88.345057
20
38.585634
70
0
0
VERTEX
8
Layer 1
10
88.336591
20
38.593386
70
0
0
VERTEX
8
Layer 1
10
88.325743
20
38.597513
70
0
0
VERTEX
8
Layer 1
10
88.325743
20
38.597513
70
0
0
SEQEND
8
Layer 1
0
POLYLINE
8
Layer 1
62
7
70
1
10
0.000000
20
0.000000
66
1
0
VERTEX
8
Layer 1
10
91.389085
20
39.330805
70
0
0
VERTEX
8
Layer 1
10
91.379295
20
39.326149
70
0
0
VERTEX
8
Layer 1
10
91.371093
20
39.317629
70
0
0
VERTEX
8
Layer 1
10
91.367124
20
39.306252
70
0
0
VERTEX
8
Layer 1
10
91.367389
20
39.295404
70
0
0
VERTEX
8
Layer 1
10
91.372152
20
39.285588
70
0
0
VERTEX
8
Layer 1
10
91.380618
20
39.277307
70
0
0
VERTEX
8
Layer 1
10
91.420835
20
39.286884
70
0
0
VERTEX
8
Layer 1
10
91.424804
20
39.298235
70
0
0
VERTEX
8
Layer 1
10
91.424539
20
39.309109
70
0
0
VERTEX
8
Layer 1
10
91.419776
20
39.318925
70
0
0
VERTEX
8
Layer 1
10
91.411310
20
39.327180
70
0
0
VERTEX
8
Layer 1
10
91.411045
20
39.327445
70
0
0
VERTEX
8
Layer 1
10
91.399933
20
39.331070
70
0
0
VERTEX
8
Layer 1
10
91.389085
20
39.330805
70
0
0
VERTEX
8
Layer 1
10
91.389085
20
39.330805
70
0
0
SEQEND
8
Layer 1
0
POLYLINE
8
Layer 1
62
7
70
1
10
0.000000
20
0.000000
66
1
0
VERTEX
8
Layer 1
10
83.408203
20
41.724964
70
0
0
VERTEX
8
Layer 1
10
83.358726
20
41.713084
70
0
0
VERTEX
8
Layer 1
10
83.365341
20
41.688531
70
0
0
VERTEX
8
Layer 1
10
83.370897
20
41.662443
70
0
0
VERTEX
8
Layer 1
10
83.420374
20
41.674323
70
0
0
VERTEX
8
Layer 1
10
83.414024
20
41.699908
70
0
0
VERTEX
8
Layer 1
10
83.408203
20
41.724964
70
0
0
VERTEX
8
Layer 1
10
83.408203
20
41.724964
70
0
0
SEQEND
8
Layer 1
0
POLYLINE
8
Layer 1
62
7
70
1
10
0.000000
20
0.000000
66
1
0
VERTEX
8
Layer 1
10
42.632259
20
11.263893
70
0
0
VERTEX
8
Layer 1
10
42.448274
20
10.005669
70
0
0
VERTEX
8
Layer 1
10
41.851739
20
8.840313
70
0
0
VERTEX
8
Layer 1
10
41.366378
20
8.342327
70
0
0
VERTEX
8
Layer 1
10
40.773166
20
7.962361
70
0
0
VERTEX
8
Layer 1
10
40.077561
20
7.720011
70
0
0
VERTEX
8
Layer 1
10
39.285019
20
7.634873
70
0
0
VERTEX
8
Layer 1
10
37.960843
20
7.898931
70
0
0
VERTEX
8
Layer 1
10
36.831508
20
8.641446
70
0
0
VERTEX
8
Layer 1
10
36.045221
20
9.787930
70
0
0
VERTEX
8
Layer 1
10
35.827036
20
10.489382
70
0
0
VERTEX
8
Layer 1
10
35.750190
20
11.263893
70
0
0
VERTEX
8
Layer 1
10
35.902061
20
12.381227
70
0
0
VERTEX
8
Layer 1
10
36.448425
20
13.558093
70
0
0
VERTEX
8
Layer 1
10
36.934112
20
14.103861
70
0
0
VERTEX
8
Layer 1
10
37.555606
20
14.533742
70
0
0
VERTEX
8
Layer 1
10
38.315062
20
14.815391
70
0
0
VERTEX
8
Layer 1
10
39.214640
20
14.916462
70
0
0
VERTEX
8
Layer 1
10
40.253492
20
14.785162
70
0
0
VERTEX
8
Layer 1
10
41.113552
20
14.408198
70
0
0
VERTEX
8
Layer 1
10
41.756456
20
13.852011
70
0
0
VERTEX
8
Layer 1
10
42.182468
20
13.219426
70
0
0
VERTEX
8
Layer 1
10
42.567403
20
12.031118
70
0
0
VERTEX
8
Layer 1
10
42.632259
20
11.263893
70
0
0
VERTEX
8
Layer 1
10
42.632259
20
11.263893
70
0
0
SEQEND
8
Layer 1
0
POLYLINE
8
Layer 1
62
7
70
1
10
0.000000
20
0.000000
66
1
0
VERTEX
8
Layer 1
10
46.601004
20
31.156619
70
0
0
VERTEX
8
Layer 1
10
46.417019
20
29.898550
70
0
0
VERTEX
8
Layer 1
10
45.820484
20
28.733013
70
0
0
VERTEX
8
Layer 1
10
45.335123
20
28.235057
70
0
0
VERTEX
8
Layer 1
10
44.741911
20
27.855030
70
0
0
VERTEX
8
Layer 1
10
44.046306
20
27.612595
70
0
0
VERTEX
8
Layer 1
10
43.253764
20
27.527414
70
0
0
VERTEX
8
Layer 1
10
41.929547
20
27.791493
70
0
0
VERTEX
8
Layer 1
10
40.800121
20
28.534059
70
0
0
VERTEX
8
Layer 1
10
40.013743
20
29.680604
70
0
0
VERTEX
8
Layer 1
10
39.795528
20
30.382085
70
0
0
VERTEX
8
Layer 1
10
39.718671
20
31.156619
70
0
0
VERTEX
8
Layer 1
10
39.870773
20
32.273890
70
0
0
VERTEX
8
Layer 1
10
40.417170
20
33.450554
70
0
0
VERTEX
8
Layer 1
10
40.902857
20
33.996351
70
0
0
VERTEX
8
Layer 1
10
41.524351
20
34.426296
70
0
0
VERTEX
8
Layer 1
10
42.283807
20
34.708009
70
0
0
VERTEX
8
Layer 1
10
43.183385
20
34.809108
70
0
0
VERTEX
8
Layer 1
10
44.222138
20
34.677743
70
0
0
VERTEX
8
Layer 1
10
45.082297
20
34.300633
70
0
0
VERTEX
8
Layer 1
10
45.725201
20
33.744711
70
0
0
VERTEX
8
Layer 1
10
46.151213
20
33.112311
70
0
0
VERTEX
8
Layer 1
10
46.536148
20
31.923943
70
0
0
VERTEX
8
Layer 1
10
46.601004
20
31.156619
70
0
0
VERTEX
8
Layer 1
10
46.601004
20
31.156619
70
0
0
SEQEND
8
Layer 1
0
POLYLINE
8
Layer 1
62
7
70
1
10
0.000000
20
0.000000
66
1
0
VERTEX
8
Layer 1
10
30.535524
20
34.252558
70
0
0
VERTEX
8
Layer 1
10
30.433792
20
33.671570
70
0
0
VERTEX
8
Layer 1
10
30.192360
20
33.147712
70
0
0
VERTEX
8
Layer 1
10
29.343578
20
32.149599
70
0
0
VERTEX
8
Layer 1
10
27.983413
20
31.350347
70
0
0
VERTEX
8
Layer 1
10
27.117301
20
31.110587
70
0
0
VERTEX
8
Layer 1
10
26.130667
20
31.023058
70
0
0
VERTEX
8
Layer 1
10
25.122858
20
31.122498
70
0
0
VERTEX
8
Layer 1
10
24.158702
20
31.414643
70
0
0
VERTEX
8
Layer 1
10
23.266162
20
31.890257
70
0
0
VERTEX
8
Layer 1
10
22.473197
20
32.540104
70
0
0
VERTEX
8
Layer 1
10
21.807771
20
33.354949
70
0
0
VERTEX
8
Layer 1
10
21.297844
20
34.325557
70
0
0
VERTEX
8
Layer 1
10
20.971379
20
35.442692
70
0
0
VERTEX
8
Layer 1
10
20.856337
20
36.697120
70
0
0
VERTEX
8
Layer 1
10
20.925919
20
37.702675
70
0
0
VERTEX
8
Layer 1
10
21.151053
20
38.722364
70
0
0
VERTEX
8
Layer 1
10
21.556323
20
39.712634
70
0
0
VERTEX
8
Layer 1
10
22.166314
20
40.629934
70
0
0
VERTEX
8
Layer 1
10
23.009222
20
41.431318
70
0
0
VERTEX
8
Layer 1
10
24.061998
20
42.038974
70
0
0
VERTEX
8
Layer 1
10
25.328431
20
42.424446
70
0
0
VERTEX
8
Layer 1
10
26.812312
20
42.559273
70
0
0
VERTEX
8
Layer 1
10
28.119683
20
42.450444
70
0
0
VERTEX
8
Layer 1
10
29.267907
20
42.151551
70
0
0
VERTEX
8
Layer 1
10
29.927777
20
45.412325
70
0
0
VERTEX
8
Layer 1
10
28.385192
20
45.863846
70
0
0
VERTEX
8
Layer 1
10
26.600910
20
46.019278
70
0
0
VERTEX
8
Layer 1
10
25.292452
20
45.929263
70
0
0
VERTEX
8
Layer 1
10
23.701699
20
45.626296
70
0
0
VERTEX
8
Layer 1
10
21.973385
20
45.061001
70
0
0
VERTEX
8
Layer 1
10
20.252241
20
44.183998
70
0
0
VERTEX
8
Layer 1
10
19.233487
20
43.446910
70
0
0
VERTEX
8
Layer 1
10
18.309243
20
42.549963
70
0
0
VERTEX
8
Layer 1
10
17.515720
20
41.477067
70
0
0
VERTEX
8
Layer 1
10
16.889127
20
40.212131
70
0
0
VERTEX
8
Layer 1
10
16.861643
20
40.067285
70
0
0
VERTEX
8
Layer 1
10
16.801020
20
39.819808
70
0
0
VERTEX
8
Layer 1
10
16.472815
20
37.940312
70
0
0
VERTEX
8
Layer 1
10
16.346623
20
36.225557
70
0
0
VERTEX
8
Layer 1
10
16.498205
20
34.558231
70
0
0
VERTEX
8
Layer 1
10
17.019641
20
32.982027
70
0
0
VERTEX
8
Layer 1
10
17.782692
20
31.577704
70
0
0
VERTEX
8
Layer 1
10
18.756095
20
30.357059
70
0
0
VERTEX
8
Layer 1
10
19.908588
20
29.331893
70
0
0
VERTEX
8
Layer 1
10
21.208906
20
28.514003
70
0
0
VERTEX
8
Layer 1
10
22.625786
20
27.915188
70
0
0
VERTEX
8
Layer 1
10
24.127967
20
27.547246
70
0
0
VERTEX
8
Layer 1
10
25.684183
20
27.421977
70
0
0
VERTEX
8
Layer 1
10
27.363016
20
27.563351
70
0
0
VERTEX
8
Layer 1
10
28.970893
20
27.978573
70
0
0
VERTEX
8
Layer 1
10
30.460692
20
28.654326
70
0
0
VERTEX
8
Layer 1
10
31.785288
20
29.577294
70
0
0
VERTEX
8
Layer 1
10
32.897560
20
30.734158
70
0
0
VERTEX
8
Layer 1
10
33.750382
20
32.111601
70
0
0
VERTEX
8
Layer 1
10
34.296632
20
33.696307
70
0
0
VERTEX
8
Layer 1
10
34.489188
20
35.474958
70
0
0
VERTEX
8
Layer 1
10
34.376343
20
36.830784
70
0
0
VERTEX
8
Layer 1
10
34.086492
20
37.601200
70
0
0
VERTEX
8
Layer 1
10
33.693058
20
37.937415
70
0
0
VERTEX
8
Layer 1
10
32.900367
20
38.074539
70
0
0
VERTEX
8
Layer 1
10
32.895604
20
38.074539
70
0
0
VERTEX
8
Layer 1
10
32.882111
20
38.074301
70
0
0
VERTEX
8
Layer 1
10
32.837132
20
38.073269
70
0
0
VERTEX
8
Layer 1
10
32.691082
20
38.068877
70
0
0
VERTEX
8
Layer 1
10
32.215891
20
38.051044
70
0
0
VERTEX
8
Layer 1
10
30.717557
20
37.987464
70
0
0
VERTEX
8
Layer 1
10
26.941958
20
37.801965
70
0
0
VERTEX
8
Layer 1
10
26.982704
20
35.379099
70
0
0
VERTEX
8
Layer 1
10
28.034421
20
35.444213
70
0
0
VERTEX
8
Layer 1
10
29.209699
20
35.507793
70
0
0
VERTEX
8
Layer 1
10
29.280342
20
35.507793
70
0
0
VERTEX
8
Layer 1
10
29.730729
20
35.436246
70
0
0
VERTEX
8
Layer 1
10
30.205324
20
35.133381
70
0
0
VERTEX
8
Layer 1
10
30.476588
20
34.664474
70
0
0
VERTEX
8
Layer 1
10
30.535524
20
34.252558
70
0
0
VERTEX
8
Layer 1
10
30.535524
20
34.252558
70
0
0
SEQEND
8
Layer 1
0
POLYLINE
8
Layer 1
62
7
70
1
10
0.000000
20
0.000000
66
1
0
VERTEX
8
Layer 1
10
22.708418
20
36.697120
70
0
0
VERTEX
8
Layer 1
10
22.785831
20
35.815952
70
0
0
VERTEX
8
Layer 1
10
23.004376
20
35.046471
70
0
0
VERTEX
8
Layer 1
10
23.343539
20
34.390466
70
0
0
VERTEX
8
Layer 1
10
23.782807
20
33.849724
70
0
0
VERTEX
8
Layer 1
10
24.879606
20
33.121179
70
0
0
VERTEX
8
Layer 1
10
26.130667
20
32.875139
70
0
0
VERTEX
8
Layer 1
10
27.328470
20
33.082744
70
0
0
VERTEX
8
Layer 1
10
28.141842
20
33.558795
70
0
0
VERTEX
8
Layer 1
10
28.185762
20
33.598085
70
0
0
VERTEX
8
Layer 1
10
28.152425
20
33.596022
70
0
0
VERTEX
8
Layer 1
10
26.804110
20
33.515403
70
0
0
VERTEX
8
Layer 1
10
26.765481
20
33.514636
70
0
0
VERTEX
8
Layer 1
10
26.718385
20
33.514636
70
0
0
VERTEX
8
Layer 1
10
26.017508
20
33.674540
70
0
0
VERTEX
8
Layer 1
10
25.494292
20
34.100132
70
0
0
VERTEX
8
Layer 1
10
25.219956
20
34.619597
70
0
0
VERTEX
8
Layer 1
10
25.134353
20
35.153807
70
0
0
VERTEX
8
Layer 1
10
25.087337
20
37.950793
70
0
0
VERTEX
8
Layer 1
10
25.087072
20
37.966536
70
0
0
VERTEX
8
Layer 1
10
25.087072
20
38.013579
70
0
0
VERTEX
8
Layer 1
10
25.215860
20
38.637099
70
0
0
VERTEX
8
Layer 1
10
25.564095
20
39.144258
70
0
0
VERTEX
8
Layer 1
10
26.074702
20
39.493475
70
0
0
VERTEX
8
Layer 1
10
26.690604
20
39.643172
70
0
0
VERTEX
8
Layer 1
10
26.691133
20
39.643172
70
0
0
VERTEX
8
Layer 1
10
32.900367
20
39.926620
70
0
0
VERTEX
8
Layer 1
10
33.722298
20
39.853097
70
0
0
VERTEX
8
Layer 1
10
34.460117
20
39.623116
70
0
0
VERTEX
8
Layer 1
10
35.098369
20
39.222559
70
0
0
VERTEX
8
Layer 1
10
35.621603
20
38.637307
70
0
0
VERTEX
8
Layer 1
10
36.121070
20
37.498118
70
0
0
VERTEX
8
Layer 1
10
36.322483
20
36.145729
70
0
0
VERTEX
8
Layer 1
10
37.217303
20
37.068144
70
0
0
VERTEX
8
Layer 1
10
38.527882
20
37.987823
70
0
0
VERTEX
8
Layer 1
10
39.999989
20
38.640194
70
0
0
VERTEX
8
Layer 1
10
41.589868
20
39.028926
70
0
0
VERTEX
8
Layer 1
10
43.253764
20
39.157689
70
0
0
VERTEX
8
Layer 1
10
45.262011
20
38.955659
70
0
0
VERTEX
8
Layer 1
10
46.990437
20
38.390944
70
0
0
VERTEX
8
Layer 1
10
48.441199
20
37.525600
70
0
0
VERTEX
8
Layer 1
10
49.616456
20
36.421689
70
0
0
VERTEX
8
Layer 1
10
50.541703
20
35.099276
70
0
0
VERTEX
8
Layer 1
10
47.949054
20
45.405102
70
0
0
VERTEX
8
Layer 1
10
47.918730
20
45.958453
70
0
0
VERTEX
8
Layer 1
10
48.092028
20
46.468401
70
0
0
VERTEX
8
Layer 1
10
48.445656
20
46.876065
70
0
0
VERTEX
8
Layer 1
10
48.956322
20
47.122563
70
0
0
VERTEX
8
Layer 1
10
53.538105
20
48.275457
70
0
0
VERTEX
8
Layer 1
10
54.087541
20
48.302706
70
0
0
VERTEX
8
Layer 1
10
54.580199
20
48.125802
70
0
0
VERTEX
8
Layer 1
10
54.972100
20
47.781884
70
0
0
VERTEX
8
Layer 1
10
55.219266
20
47.308088
70
0
0
VERTEX
8
Layer 1
10
55.238316
20
47.239350
70
0
0
VERTEX
8
Layer 1
10
57.589665
20
37.894463
70
0
0
VERTEX
8
Layer 1
10
57.766671
20
38.340683
70
0
0
VERTEX
8
Layer 1
10
58.511923
20
39.664242
70
0
0
VERTEX
8
Layer 1
10
59.563686
20
40.835813
70
0
0
VERTEX
8
Layer 1
10
60.942027
20
41.789986
70
0
0
VERTEX
8
Layer 1
10
62.667013
20
42.461351
70
0
0
VERTEX
8
Layer 1
10
64.679431
20
42.756679
70
0
0
VERTEX
8
Layer 1
10
63.686186
20
47.823549
70
0
0
VERTEX
8
Layer 1
10
63.711454
20
48.531292
70
0
0
VERTEX
8
Layer 1
10
64.024853
20
49.119080
70
0
0
VERTEX
8
Layer 1
10
64.493396
20
49.510388
70
0
0
VERTEX
8
Layer 1
10
65.033178
20
49.733759
70
0
0
VERTEX
8
Layer 1
10
65.048789
20
49.737913
70
0
0
VERTEX
8
Layer 1
10
68.995573
20
50.717688
70
0
0
VERTEX
8
Layer 1
10
69.670690
20
50.798487
70
0
0
VERTEX
8
Layer 1
10
70.341243
20
50.626737
70
0
0
VERTEX
8
Layer 1
10
70.855526
20
50.179501
70
0
0
VERTEX
8
Layer 1
10
71.094775
20
49.662454
70
0
0
VERTEX
8
Layer 1
10
71.112767
20
49.594244
70
0
0
VERTEX
8
Layer 1
10
71.128642
20
49.525506
70
0
0
VERTEX
8
Layer 1
10
71.138960
20
49.455497
70
0
0
VERTEX
8
Layer 1
10
71.218864
20
48.999197
70
0
0
VERTEX
8
Layer 1
10
71.435823
20
47.811669
70
0
0
VERTEX
8
Layer 1
10
72.108922
20
44.232311
70
0
0
VERTEX
8
Layer 1
10
73.363574
20
38.055674
70
0
0
VERTEX
8
Layer 1
10
74.146211
20
35.991477
70
0
0
VERTEX
8
Layer 1
10
74.482264
20
35.561599
70
0
0
VERTEX
8
Layer 1
10
74.734379
20
35.409077
70
0
0
VERTEX
8
Layer 1
10
74.789147
20
35.396668
70
0
0
VERTEX
8
Layer 1
10
74.800789
20
35.394868
70
0
0
VERTEX
8
Layer 1
10
75.373082
20
35.255354
70
0
0
VERTEX
8
Layer 1
10
75.796349
20
35.003147
70
0
0
VERTEX
8
Layer 1
10
76.157306
20
34.422050
70
0
0
VERTEX
8
Layer 1
10
76.181119
20
33.786707
70
0
0
VERTEX
8
Layer 1
10
75.734238
20
30.772154
70
0
0
VERTEX
8
Layer 1
10
77.021604
20
32.156988
70
0
0
VERTEX
8
Layer 1
10
78.389758
20
33.030330
70
0
0
VERTEX
8
Layer 1
10
79.780981
20
33.474929
70
0
0
VERTEX
8
Layer 1
10
81.137552
20
33.573532
70
0
0
VERTEX
8
Layer 1
10
82.436502
20
33.403438
70
0
0
VERTEX
8
Layer 1
10
83.529349
20
33.075111
70
0
0
VERTEX
8
Layer 1
10
84.829543
20
32.448022
70
0
0
VERTEX
8
Layer 1
10
85.622300
20
31.816602
70
0
0
VERTEX
8
Layer 1
10
86.217016
20
30.937253
70
0
0
VERTEX
8
Layer 1
10
86.479648
20
29.839895
70
0
0
VERTEX
8
Layer 1
10
86.365447
20
28.610537
70
0
0
VERTEX
8
Layer 1
10
85.935235
20
27.205972
70
0
0
VERTEX
8
Layer 1
10
86.472537
20
27.266141
70
0
0
VERTEX
8
Layer 1
10
87.047542
20
27.101065
70
0
0
VERTEX
8
Layer 1
10
87.135649
20
27.050688
70
0
0
VERTEX
8
Layer 1
10
87.185919
20
27.017615
70
0
0
VERTEX
8
Layer 1
10
87.428277
20
26.804705
70
0
0
VERTEX
8
Layer 1
10
87.639415
20
26.569332
70
0
0
VERTEX
8
Layer 1
10
88.137095
20
25.954362
70
0
0
VERTEX
8
Layer 1
10
88.930050
20
24.895210
70
0
0
VERTEX
8
Layer 1
10
89.148067
20
24.585912
70
0
0
VERTEX
8
Layer 1
10
89.172408
20
24.548606
70
0
0
VERTEX
8
Layer 1
10
89.395617
20
24.097492
70
0
0
VERTEX
8
Layer 1
10
89.519012
20
23.512234
70
0
0
VERTEX
8
Layer 1
10
89.445756
20
22.850380
70
0
0
VERTEX
8
Layer 1
10
89.157592
20
22.204401
70
0
0
VERTEX
8
Layer 1
10
89.009425
20
21.964424
70
0
0
VERTEX
8
Layer 1
10
87.783124
20
20.316514
70
0
0
VERTEX
8
Layer 1
10
86.404473
20
19.053449
70
0
0
VERTEX
8
Layer 1
10
84.912118
20
18.160419
70
0
0
VERTEX
8
Layer 1
10
83.344703
20
17.622617
70
0
0
VERTEX
8
Layer 1
10
81.954870
20
17.433010
70
0
0
VERTEX
8
Layer 1
10
80.585996
20
17.489862
70
0
0
VERTEX
8
Layer 1
10
79.266483
20
17.775017
70
0
0
VERTEX
8
Layer 1
10
78.024733
20
18.270316
70
0
0
VERTEX
8
Layer 1
10
77.668869
20
17.901487
70
0
0
VERTEX
8
Layer 1
10
77.442915
20
17.724746
70
0
0
VERTEX
8
Layer 1
10
76.162333
20
16.664297
70
0
0
VERTEX
8
Layer 1
10
78.043254
20
15.898065
70
0
0
VERTEX
8
Layer 1
10
79.745845
20
14.941862
70
0
0
VERTEX
8
Layer 1
10
80.387988
20
14.411637
70
0
0
VERTEX
8
Layer 1
10
80.840954
20
13.665778
70
0
0
VERTEX
8
Layer 1
10
80.857359
20
13.597516
70
0
0
VERTEX
8
Layer 1
10
80.869794
20
13.528724
70
0
0
VERTEX
8
Layer 1
10
80.752584
20
12.594746
70
0
0
VERTEX
8
Layer 1
10
80.737238
20
12.556117
70
0
0
VERTEX
8
Layer 1
10
79.447660
20
9.505210
70
0
0
VERTEX
8
Layer 1
10
79.438400
20
9.484044
70
0
0
VERTEX
8
Layer 1
10
79.036201
20
8.870839
70
0
0
VERTEX
8
Layer 1
10
78.705013
20
8.610312
70
0
0
VERTEX
8
Layer 1
10
78.264710
20
8.443968
70
0
0
VERTEX
8
Layer 1
10
77.766401
20
8.428159
70
0
0
VERTEX
8
Layer 1
10
77.317503
20
8.546891
70
0
0
VERTEX
8
Layer 1
10
71.629233
20
10.667259
70
0
0
VERTEX
8
Layer 1
10
72.042776
20
9.089550
70
0
0
VERTEX
8
Layer 1
10
72.053888
20
9.041925
70
0
0
VERTEX
8
Layer 1
10
72.069565
20
8.534526
70
0
0
VERTEX
8
Layer 1
10
71.909823
20
8.033897
70
0
0
VERTEX
8
Layer 1
10
71.565733
20
7.616265
70
0
0
VERTEX
8
Layer 1
10
71.028365
20
7.357855
70
0
0
VERTEX
8
Layer 1
10
66.477008
20
6.152944
70
0
0
VERTEX
8
Layer 1
10
66.427266
20
6.141302
70
0
0
VERTEX
8
Layer 1
10
65.909114
20
6.129441
70
0
0
VERTEX
8
Layer 1
10
65.418147
20
6.298828
70
0
0
VERTEX
8
Layer 1
10
65.012508
20
6.639615
70
0
0
VERTEX
8
Layer 1
10
64.750339
20
7.141955
70
0
0
VERTEX
8
Layer 1
10
64.742402
20
7.170265
70
0
0
VERTEX
8
Layer 1
10
62.848781
20
14.429629
70
0
0
VERTEX
8
Layer 1
10
62.564090
20
13.909194
70
0
0
VERTEX
8
Layer 1
10
62.406928
20
13.623709
70
0
0
VERTEX
8
Layer 1
10
62.362742
20
13.543541
70
0
0
VERTEX
8
Layer 1
10
62.351101
20
13.522374
70
0
0
VERTEX
8
Layer 1
10
62.349778
20
13.520522
70
0
0
VERTEX
8
Layer 1
10
61.949397
20
12.966154
70
0
0
VERTEX
8
Layer 1
10
61.429558
20
12.600302
70
0
0
VERTEX
8
Layer 1
10
60.878167
20
12.448696
70
0
0
VERTEX
8
Layer 1
10
60.193955
20
12.388900
70
0
0
VERTEX
8
Layer 1
10
59.309488
20
12.422833
70
0
0
VERTEX
8
Layer 1
10
58.273612
20
12.609563
70
0
0
VERTEX
8
Layer 1
10
57.144020
20
13.017856
70
0
0
VERTEX
8
Layer 1
10
56.016091
20
13.705399
70
0
0
VERTEX
8
Layer 1
10
54.969967
20
14.729393
70
0
0
VERTEX
8
Layer 1
10
54.085792
20
16.147037
70
0
0
VERTEX
8
Layer 1
10
53.742628
20
16.868820
70
0
0
VERTEX
8
Layer 1
10
53.023359
20
17.981490
70
0
0
VERTEX
8
Layer 1
10
52.328697
20
18.492301
70
0
0
VERTEX
8
Layer 1
10
51.671737
20
18.615597
70
0
0
VERTEX
8
Layer 1
10
54.516269
20
11.723474
70
0
0
VERTEX
8
Layer 1
10
54.627646
20
11.206648
70
0
0
VERTEX
8
Layer 1
10
54.539321
20
10.696396
70
0
0
VERTEX
8
Layer 1
10
54.272451
20
10.252273
70
0
0
VERTEX
8
Layer 1
10
53.848197
20
9.933835
70
0
0
VERTEX
8
Layer 1
10
53.805863
20
9.913726
70
0
0
VERTEX
8
Layer 1
10
53.763530
20
9.894941
70
0
0
VERTEX
8
Layer 1
10
49.416696
20
8.089162
70
0
0
VERTEX
8
Layer 1
10
49.388386
20
8.077785
70
0
0
VERTEX
8
Layer 1
10
48.842820
20
7.981394
70
0
0
VERTEX
8
Layer 1
10
48.330219
20
8.088302
70
0
0
VERTEX
8
Layer 1
10
47.894265
20
8.373506
70
0
0
VERTEX
8
Layer 1
10
47.578638
20
8.812003
70
0
0
VERTEX
8
Layer 1
10
47.559323
20
8.855924
70
0
0
VERTEX
8
Layer 1
10
47.381788
20
9.285342
70
0
0
VERTEX
8
Layer 1
10
46.920438
20
8.060546
70
0
0
VERTEX
8
Layer 1
10
46.267894
20
6.967661
70
0
0
VERTEX
8
Layer 1
10
45.459973
20
6.010011
70
0
0
VERTEX
8
Layer 1
10
44.532494
20
5.190920
70
0
0
VERTEX
8
Layer 1
10
43.155224
20
4.308407
70
0
0
VERTEX
8
Layer 1
10
41.679231
20
3.667815
70
0
0
VERTEX
8
Layer 1
10
40.177044
20
3.277402
70
0
0
VERTEX
8
Layer 1
10
38.721193
20
3.145429
70
0
0
VERTEX
8
Layer 1
10
37.521471
20
3.228204
70
0
0
VERTEX
8
Layer 1
10
36.361712
20
3.471383
70
0
0
VERTEX
8
Layer 1
10
35.259506
20
3.867240
70
0
0
VERTEX
8
Layer 1
10
34.232443
20
4.408052
70
0
0
VERTEX
8
Layer 1
10
33.298112
20
5.086096
70
0
0
VERTEX
8
Layer 1
10
32.474103
20
5.893648
70
0
0
VERTEX
8
Layer 1
10
31.778005
20
6.822985
70
0
0
VERTEX
8
Layer 1
10
31.227409
20
7.866383
70
0
0
VERTEX
8
Layer 1
10
30.579974
20
5.286964
70
0
0
VERTEX
8
Layer 1
10
30.573624
20
5.262357
70
0
0
VERTEX
8
Layer 1
10
30.340328
20
4.763585
70
0
0
VERTEX
8
Layer 1
10
29.963760
20
4.363040
70
0
0
VERTEX
8
Layer 1
10
29.425003
20
4.090321
70
0
0
VERTEX
8
Layer 1
10
28.737418
20
4.064855
70
0
0
VERTEX
8
Layer 1
10
28.714399
20
4.069353
70
0
0
VERTEX
8
Layer 1
10
28.647989
20
4.085757
70
0
0
VERTEX
8
Layer 1
10
24.044509
20
5.389357
70
0
0
VERTEX
8
Layer 1
10
23.359051
20
5.764172
70
0
0
VERTEX
8
Layer 1
10
22.963688
20
6.304285
70
0
0
VERTEX
8
Layer 1
10
22.800655
20
6.852104
70
0
0
VERTEX
8
Layer 1
10
22.813061
20
7.399923
70
0
0
VERTEX
8
Layer 1
10
22.817955
20
7.422942
70
0
0
VERTEX
8
Layer 1
10
22.829332
20
7.471890
70
0
0
VERTEX
8
Layer 1
10
22.843276
20
7.520044
70
0
0
VERTEX
8
Layer 1
10
24.748591
20
13.457816
70
0
0
VERTEX
8
Layer 1
10
22.785650
20
10.992167
70
0
0
VERTEX
8
Layer 1
10
22.785412
20
10.992431
70
0
0
VERTEX
8
Layer 1
10
22.124510
20
10.472724
70
0
0
VERTEX
8
Layer 1
10
21.606404
20
10.310278
70
0
0
VERTEX
8
Layer 1
10
20.967435
20
10.312982
70
0
0
VERTEX
8
Layer 1
10
20.961218
20
10.314041
70
0
0
VERTEX
8
Layer 1
10
18.570684
20
10.708005
70
0
0
VERTEX
8
Layer 1
10
18.535283
20
10.714619
70
0
0
VERTEX
8
Layer 1
10
17.926724
20
10.973658
70
0
0
VERTEX
8
Layer 1
10
17.527810
20
11.374456
70
0
0
VERTEX
8
Layer 1
10
17.180062
20
12.134107
70
0
0
VERTEX
8
Layer 1
10
17.041315
20
12.596333
70
0
0
VERTEX
8
Layer 1
10
16.278575
20
15.277353
70
0
0
VERTEX
8
Layer 1
10
15.671119
20
9.011234
70
0
0
VERTEX
8
Layer 1
10
15.656646
20
8.914661
70
0
0
VERTEX
8
Layer 1
10
15.651989
20
8.891642
70
0
0
VERTEX
8
Layer 1
10
15.384208
20
8.314587
70
0
0
VERTEX
8
Layer 1
10
14.970397
20
7.906600
70
0
0
VERTEX
8
Layer 1
10
14.394463
20
7.615856
70
0
0
VERTEX
8
Layer 1
10
13.652377
20
7.544386
70
0
0
VERTEX
8
Layer 1
10
13.645392
20
7.545179
70
0
0
VERTEX
8
Layer 1
10
9.148777
20
8.082812
70
0
0
VERTEX
8
Layer 1
10
9.072816
20
8.094983
70
0
0
VERTEX
8
Layer 1
10
9.049823
20
8.099745
70
0
0
VERTEX
8
Layer 1
10
8.431763
20
8.376731
70
0
0
VERTEX
8
Layer 1
10
8.031523
20
8.843224
70
0
0
VERTEX
8
Layer 1
10
7.837419
20
9.401990
70
0
0
VERTEX
8
Layer 1
10
7.837769
20
9.955795
70
0
0
VERTEX
8
Layer 1
10
7.843193
20
9.992572
70
0
0
VERTEX
8
Layer 1
10
7.865920
20
10.141003
70
0
0
VERTEX
8
Layer 1
10
7.951698
20
10.704830
70
0
0
VERTEX
8
Layer 1
10
8.258667
20
12.719629
70
0
0
VERTEX
8
Layer 1
10
9.193492
20
18.850282
70
0
0
VERTEX
8
Layer 1
10
10.078972
20
24.644120
70
0
0
VERTEX
8
Layer 1
10
9.738401
20
25.619373
70
0
0
VERTEX
8
Layer 1
10
9.516971
20
26.241170
70
0
0
VERTEX
8
Layer 1
10
8.699984
20
25.947204
70
0
0
VERTEX
8
Layer 1
10
7.944052
20
25.817559
70
0
0
VERTEX
8
Layer 1
10
6.631879
20
25.952034
70
0
0
VERTEX
8
Layer 1
10
5.537907
20
26.504986
70
0
0
VERTEX
8
Layer 1
10
5.246178
20
26.756657
70
0
0
VERTEX
8
Layer 1
10
5.160930
20
26.845001
70
0
0
VERTEX
8
Layer 1
10
5.153177
20
26.853547
70
0
0
VERTEX
8
Layer 1
10
4.212399
20
27.516539
70
0
0
VERTEX
8
Layer 1
10
3.983985
20
27.587606
70
0
0
VERTEX
8
Layer 1
10
3.951944
20
27.593030
70
0
0
VERTEX
8
Layer 1
10
3.959458
20
27.592263
70
0
0
VERTEX
8
Layer 1
10
3.969512
20
27.591734
70
0
0
VERTEX
8
Layer 1
10
3.976233
20
27.591231
70
0
0
VERTEX
8
Layer 1
10
3.980122
20
27.591231
70
0
0
VERTEX
8
Layer 1
10
3.981921
20
27.590966
70
0
0
VERTEX
8
Layer 1
10
3.982953
20
27.590966
70
0
0
VERTEX
8
Layer 1
10
3.839285
20
27.608006
70
0
0
VERTEX
8
Layer 1
10
3.321496
20
27.751674
70
0
0
VERTEX
8
Layer 1
10
2.823339
20
28.059411
70
0
0
VERTEX
8
Layer 1
10
2.585272
20
28.397164
70
0
0
VERTEX
8
Layer 1
10
2.492869
20
28.863505
70
0
0
VERTEX
8
Layer 1
10
2.586061
20
29.263915
70
0
0
VERTEX
8
Layer 1
10
2.742218
20
29.517977
70
0
0
VERTEX
8
Layer 1
10
3.249159
20
29.921837
70
0
0
VERTEX
8
Layer 1
10
3.411163
20
30.001926
70
0
0
VERTEX
8
Layer 1
10
3.464132
20
30.024918
70
0
0
VERTEX
8
Layer 1
10
3.481965
20
30.032406
70
0
0
VERTEX
8
Layer 1
10
3.492284
20
30.036534
70
0
0
VERTEX
8
Layer 1
10
3.492813
20
30.036798
70
0
0
VERTEX
8
Layer 1
10
3.826108
20
29.197065
70
0
0
VERTEX
8
Layer 1
10
3.493316
20
30.037063
70
0
0
VERTEX
8
Layer 1
10
3.542158
20
30.054896
70
0
0
VERTEX
8
Layer 1
10
4.417557
20
30.201660
70
0
0
VERTEX
8
Layer 1
10
3.613224
20
30.763362
70
0
0
VERTEX
8
Layer 1
10
2.880375
20
31.514425
70
0
0
VERTEX
8
Layer 1
10
2.226301
20
32.466222
70
0
0
VERTEX
8
Layer 1
10
1.658295
20
33.630126
70
0
0
VERTEX
8
Layer 1
10
1.380683
20
34.501173
70
0
0
VERTEX
8
Layer 1
10
1.258583
20
35.359858
70
0
0
VERTEX
8
Layer 1
10
1.437122
20
37.015175
70
0
0
VERTEX
8
Layer 1
10
0.833306
20
38.176985
70
0
0
VERTEX
8
Layer 1
10
0.615633
20
39.003003
70
0
0
VERTEX
8
Layer 1
10
0.529169
20
39.995623
70
0
0
VERTEX
8
Layer 1
10
0.617040
20
40.391158
70
0
0
VERTEX
8
Layer 1
10
0.865321
20
40.711346
70
0
0
VERTEX
8
Layer 1
10
1.455209
20
39.997422
70
0
0
VERTEX
8
Layer 1
10
0.866615
20
40.712378
70
0
0
VERTEX
8
Layer 1
10
0.868166
20
40.713648
70
0
0
VERTEX
8
Layer 1
10
0.871007
20
40.715977
70
0
0
VERTEX
8
Layer 1
10
0.877209
20
40.720898
70
0
0
VERTEX
8
Layer 1
10
0.890385
20
40.731243
70
0
0
VERTEX
8
Layer 1
10
0.921132
20
40.754235
70
0
0
VERTEX
8
Layer 1
10
0.999682
20
40.807205
70
0
0
VERTEX
8
Layer 1
10
1.228607
20
40.930712
70
0
0
VERTEX
8
Layer 1
10
1.997551
20
41.167884
70
0
0
VERTEX
8
Layer 1
10
3.083630
20
41.259136
70
0
0
VERTEX
8
Layer 1
10
4.602051
20
41.123196
70
0
0
VERTEX
8
Layer 1
10
5.766977
20
41.848812
70
0
0
VERTEX
8
Layer 1
10
7.009888
20
42.444312
70
0
0
VERTEX
8
Layer 1
10
7.017138
20
42.447408
70
0
0
VERTEX
8
Layer 1
10
8.319138
20
42.895896
70
0
0
VERTEX
8
Layer 1
10
9.658841
20
43.197739
70
0
0
VERTEX
8
Layer 1
10
10.643331
20
44.360396
70
0
0
VERTEX
8
Layer 1
10
11.479648
20
45.057837
70
0
0
VERTEX
8
Layer 1
10
12.193308
20
45.428861
70
0
0
VERTEX
8
Layer 1
10
12.442889
20
45.501727
70
0
0
VERTEX
8
Layer 1
10
12.536181
20
45.519058
70
0
0
VERTEX
8
Layer 1
10
12.574148
20
45.524217
70
0
0
VERTEX
8
Layer 1
10
12.590949
20
45.526016
70
0
0
VERTEX
8
Layer 1
10
12.598702
20
45.526810
70
0
0
VERTEX
8
Layer 1
10
12.602565
20
45.527313
70
0
0
VERTEX
8
Layer 1
10
12.604390
20
45.527313
70
0
0
VERTEX
8
Layer 1
10
12.676727
20
44.722716
70
0
0
VERTEX
8
Layer 1
10
12.606189
20
45.527577
70
0
0
VERTEX
8
Layer 1
10
13.006947
20
45.474095
70
0
0
VERTEX
8
Layer 1
10
13.346704
20
45.254977
70
0
0
VERTEX
8
Layer 1
10
13.983364
20
44.487887
70
0
0
VERTEX
8
Layer 1
10
14.409127
20
43.747039
70
0
0
VERTEX
8
Layer 1
10
14.795455
20
42.495721
70
0
0
VERTEX
8
Layer 1
10
15.626166
20
41.900673
70
0
0
VERTEX
8
Layer 1
10
16.369352
20
43.089031
70
0
0
VERTEX
8
Layer 1
10
17.241631
20
44.121672
70
0
0
VERTEX
8
Layer 1
10
18.216263
20
45.006672
70
0
0
VERTEX
8
Layer 1
10
19.266511
20
45.752102
70
0
0
VERTEX
8
Layer 1
10
21.258214
20
46.769672
70
0
0
VERTEX
8
Layer 1
10
23.247569
20
47.421896
70
0
0
VERTEX
8
Layer 1
10
25.079994
20
47.769037
70
0
0
VERTEX
8
Layer 1
10
26.600910
20
47.871359
70
0
0
VERTEX
8
Layer 1
10
28.853702
20
47.660060
70
0
0
VERTEX
8
Layer 1
10
30.895357
20
47.008369
70
0
0
VERTEX
8
Layer 1
10
31.566736
20
46.394986
70
0
0
VERTEX
8
Layer 1
10
31.804729
20
45.535065
70
0
0
VERTEX
8
Layer 1
10
31.804729
20
45.441006
70
0
0
VERTEX
8
Layer 1
10
31.786472
20
45.257306
70
0
0
VERTEX
8
Layer 1
10
30.987167
20
41.308457
70
0
0
VERTEX
8
Layer 1
10
30.983728
20
41.291392
70
0
0
VERTEX
8
Layer 1
10
30.793654
20
40.840797
70
0
0
VERTEX
8
Layer 1
10
30.461672
20
40.476221
70
0
0
VERTEX
8
Layer 1
10
30.023676
20
40.232172
70
0
0
VERTEX
8
Layer 1
10
29.515557
20
40.143154
70
0
0
VERTEX
8
Layer 1
10
28.842987
20
40.322462
70
0
0
VERTEX
8
Layer 1
10
27.996222
20
40.589579
70
0
0
VERTEX
8
Layer 1
10
26.812312
20
40.707192
70
0
0
VERTEX
8
Layer 1
10
25.691006
20
40.608690
70
0
0
VERTEX
8
Layer 1
10
24.797899
20
40.339422
70
0
0
VERTEX
8
Layer 1
10
24.106490
20
39.938690
70
0
0
VERTEX
8
Layer 1
10
23.590273
20
39.445793
70
0
0
VERTEX
8
Layer 1
10
22.921272
20
38.177878
70
0
0
VERTEX
8
Layer 1
10
22.708418
20
36.697120
70
0
0
VERTEX
8
Layer 1
10
22.708418
20
36.697120
70
0
0
SEQEND
8
Layer 1
0
POLYLINE
8
Layer 1
62
7
70
1
10
0.000000
20
0.000000
66
1
0
VERTEX
8
Layer 1
10
61.979361
20
16.427760
70
0
0
VERTEX
8
Layer 1
10
61.983066
20
16.395481
70
0
0
VERTEX
8
Layer 1
10
61.979361
20
16.427760
70
0
0
VERTEX
8
Layer 1
10
61.979361
20
16.427760
70
0
0
SEQEND
8
Layer 1
 0 
ENDSEC
 0 
EOF