<svg width="398" height="198" viewBox="0 0 398 198" fill="none" xmlns="http://www.w3.org/2000/svg">
<path d="M148.479 132.188C141.342 132.188 134.877 134.358 130.252 138.372C125.693 142.328 122.663 148.291 122.663 156.494C122.663 169.919 133.511 179.112 146.348 179.112C151.864 179.112 158.67 176.958 164.05 172.829C169.361 168.751 173.053 162.949 173.053 155.606C173.053 150.61 171.206 144.708 167.229 140.103C163.334 135.591 157.284 132.188 148.479 132.188ZM46.4414 96.6314C46.1437 98.5552 45.7289 101.253 45.2363 104.464C44.2513 110.888 42.9561 119.365 41.667 127.812C40.3779 136.259 39.0945 144.676 38.1338 150.981C37.6535 154.133 37.2533 156.758 36.9736 158.594C36.8408 159.467 36.7346 160.161 36.6602 160.65L52.334 162.524L55.9268 125.476C55.9386 125.354 55.9568 125.232 55.9815 125.112L56.1065 124.503C56.1857 124.116 56.3313 123.536 56.626 122.97C56.7662 122.701 57.0639 122.191 57.6094 121.737C58.1866 121.257 59.1834 120.749 60.4258 120.917L60.6777 120.96L60.918 121.017C62.0888 121.334 62.7841 122.103 63.0908 122.493C63.4326 122.928 63.6776 123.394 63.8184 123.67C63.8416 123.715 63.8646 123.761 63.8857 123.807C64.3038 124.721 64.8251 126.358 65.3604 128.145C65.9249 130.029 66.5886 132.373 67.292 134.886C68.531 139.313 69.8956 144.272 71.1152 148.39L71.6289 150.099L71.6611 150.214C71.7141 150.412 71.7658 150.573 71.8184 150.703L80.3506 152.109C80.4671 152.126 80.531 152.12 80.5547 152.116C80.5811 152.112 80.5983 152.105 80.6123 152.098C80.6293 152.09 80.6484 152.078 80.666 152.063C80.6755 152.055 80.6816 152.047 80.6816 152.047C80.6967 152.028 80.7121 152.009 80.7275 151.991C83.6393 148.474 87.3578 143.676 90.6514 139.459C92.2869 137.364 93.8193 135.411 95.0723 133.862C96.2517 132.404 97.3728 131.062 98.1045 130.387C98.1479 130.347 98.1929 130.309 98.2383 130.271C98.4899 130.062 98.8455 129.778 99.2393 129.542C99.4378 129.423 99.7518 129.251 100.146 129.121C100.467 129.015 101.057 128.862 101.785 128.946L102.105 128.997L102.276 129.036C103.125 129.251 103.888 129.76 104.414 130.505C104.906 131.203 105.049 131.903 105.099 132.314C105.191 133.085 105.057 133.799 104.983 134.157L104.895 134.592C104.869 134.716 104.836 134.838 104.798 134.959L93.2246 171.021L108.996 175.487L125.302 110.544L109.365 106.434L109.272 106.416C109.284 106.418 109.236 106.408 109.123 106.411C109.014 106.414 108.889 106.428 108.767 106.453C108.737 106.459 108.71 106.467 108.686 106.473C103.559 110.596 93.1436 121.302 83.6426 131.942C83.595 131.995 83.5449 132.047 83.4941 132.097C83.4805 132.111 83.466 132.126 83.4404 132.152C83.4193 132.173 83.38 132.213 83.3408 132.252C83.2737 132.318 83.1094 132.48 82.8955 132.646C82.6786 132.814 82.2858 133.087 81.7354 133.27C81.1311 133.471 80.4678 133.521 79.8047 133.385C78.9856 133.217 78.1783 132.781 77.5703 132.02C77.1583 131.504 76.947 130.951 76.9004 130.837C76.8735 130.77 76.8489 130.703 76.8262 130.635C72.3006 117.186 66.9913 103.259 63.8945 97.3892C63.8513 97.36 63.8021 97.3255 63.7451 97.2906C63.5778 97.1881 63.3988 97.0942 63.2354 97.023C63.0685 96.9503 62.9795 96.9278 62.9736 96.9263L62.9063 96.9127L46.7666 94.5328C46.6841 95.0588 46.5753 95.7661 46.4414 96.6314ZM154.13 155.428C154.13 154.743 154.039 152.854 153.21 151.249C152.823 150.499 152.312 149.884 151.625 149.446C150.951 149.016 149.901 148.623 148.213 148.623C145.64 148.623 144.299 149.629 143.477 150.794C142.532 152.132 142.119 153.947 142.119 155.428C142.119 159.544 145.267 162.144 148.479 162.144C150.558 162.144 151.827 161.351 152.661 160.282C153.58 159.105 154.13 157.36 154.13 155.428ZM233.538 100.394L251.058 167.554L265.102 163.837L261.659 150.707C261.306 149.36 261.785 147.932 262.879 147.07L263.347 146.702C264.829 145.533 268.324 142.582 272.231 139.149C273.502 138.033 275.389 137.985 276.715 139.035C278.04 140.085 278.426 141.933 277.63 143.425L273.467 151.233C278.784 153.198 288.759 156.84 294.021 158.887L298.554 148.165C298.285 147.923 297.907 147.624 297.404 147.274C296.052 146.333 294.145 145.269 291.971 144.239C287.525 142.133 282.683 140.506 280.046 140.24C278.652 140.099 277.476 139.14 277.058 137.802C276.639 136.465 277.06 135.006 278.126 134.096C282.216 130.604 286.229 127.206 288.509 125.398L279.748 116.088C279.712 116.111 279.674 116.134 279.635 116.16C279.08 116.524 278.379 117.06 277.551 117.761C275.898 119.16 273.949 121.035 271.972 123.051C268.025 127.075 264.168 131.448 262.713 133.161C261.868 134.155 260.539 134.598 259.267 134.307C257.994 134.017 256.989 133.043 256.659 131.78L247.513 96.7691L233.538 100.394ZM206.853 109.529C200.568 107.816 193.085 108.561 185.57 112.133C182.919 113.394 180.303 114.998 177.646 117.002C177.407 117.181 177.146 117.33 176.87 117.444L169.177 120.608L185.593 160.336L198.93 154.795L187.264 126.53C186.909 125.67 186.912 124.705 187.27 123.847C187.627 122.989 188.312 122.308 189.172 121.956C192.785 120.475 196.73 120.062 200.509 121.663C204.247 123.247 207.214 126.546 209.444 131.239L210.741 133.966C213.617 140.017 218.089 142.545 222.014 143.569C224.016 144.091 225.886 144.218 227.312 144.179C228.025 144.16 228.599 144.1 228.996 144.037C229.101 144.02 229.182 144 229.244 143.988C229.284 143.944 229.354 143.857 229.432 143.697L229.516 143.534L229.517 143.533C229.517 143.533 229.518 143.529 229.52 143.527C229.522 143.522 229.525 143.515 229.53 143.506C229.54 143.489 229.555 143.463 229.574 143.428C229.612 143.359 229.668 143.258 229.739 143.128C229.882 142.87 230.085 142.501 230.329 142.057C230.817 141.169 231.467 139.985 232.113 138.797C232.761 137.607 233.399 136.423 233.868 135.534C233.877 135.518 233.884 135.501 233.893 135.485C228.36 133.535 225.137 129.652 222.822 124.782L221.563 122.134C218.356 115.387 213.079 111.226 206.853 109.529ZM234.241 135.738C234.242 135.763 234.244 135.789 234.246 135.817C234.244 135.791 234.242 135.764 234.241 135.738ZM195.038 81.2906C194.751 90.8485 189.754 98.2511 183.312 103.197C176.743 108.239 168.446 110.927 161.348 110.927C146.316 110.927 132.644 100.695 130.861 84.8492C125.792 91.9651 118.23 96.928 109.911 99.4469C110.164 99.4706 110.421 99.5055 110.678 99.5582L110.852 99.5943L111.023 99.6334L128.163 104.053L128.172 104.055C129.891 104.503 131.24 105.561 131.974 107.052C132.645 108.417 132.644 109.815 132.431 110.854L132.395 111.028C132.384 111.078 132.373 111.128 132.36 111.177L127.164 131.87C133.094 127.377 140.657 125.188 148.479 125.188C155.145 125.188 160.733 126.812 165.266 129.472L162.086 121.777C162.069 121.735 162.053 121.693 162.037 121.651C161.173 119.307 161.971 116.19 164.66 114.912L164.821 114.836L164.992 114.76L173.798 111.138C176.668 109.007 179.566 107.236 182.564 105.811C191.337 101.641 200.541 100.554 208.692 102.775C216.901 105.012 223.809 110.551 227.886 119.128L229.145 121.777C230.336 124.284 231.636 126.098 233.341 127.371L226.352 100.577C226.336 100.519 226.323 100.461 226.311 100.402L226.275 100.228L226.228 99.9635C225.81 97.2429 227.654 94.8164 229.95 94.0972L230.117 94.0494L234.998 92.7828C231.685 91.5816 228.606 89.8392 225.925 87.6168L226.485 89.8443C227.195 92.6665 225.478 95.5394 222.656 96.2496L205.34 100.606C202.518 101.316 199.645 99.5991 198.935 96.7769L195.038 81.2906ZM306.414 78.1041C301.57 77.9323 295.577 79.6528 290.478 87.9263C285.589 95.8589 284.844 102.863 286.263 108.467C287.697 114.131 291.434 118.737 296.158 121.649C301.173 124.74 307.372 125.963 313.439 124.572C319.453 123.192 325.606 119.181 330.455 111.313L331.014 110.405C331.376 109.817 331.352 109.562 331.351 109.537C331.347 109.474 331.322 109.309 331.106 108.952C330.216 107.665 328.846 105.811 327.597 104.209C327.198 103.697 326.819 103.222 326.48 102.808C326.306 103.106 326.146 103.369 326.021 103.571C322.697 108.964 318.393 112.042 313.829 113.104C309.325 114.153 304.926 113.153 301.535 111.063C295.581 107.393 293.158 100.376 296.629 94.7437C298.112 92.3377 300.189 91.062 302.096 90.5162C303.026 90.2498 303.929 90.1518 304.728 90.1783C305.326 90.1982 306.306 90.2986 307.209 90.7935L307.389 90.898L307.581 91.0211C308.065 91.3421 308.777 91.9131 309.251 92.8726C309.791 93.9665 309.765 95.036 309.674 95.7603C309.551 96.7285 309.166 97.9832 308.674 99.4605C309.033 99.5599 309.422 99.6668 309.83 99.776C311.404 100.197 313.184 100.644 314.559 100.95C316.597 97.151 318.777 91.9063 319.597 88.3101L319.598 88.3053C320.088 86.1667 319.866 84.8194 319.466 83.9205C319.057 83.0021 318.279 82.1441 316.943 81.3209C315.9 80.6778 311.588 78.2877 306.414 78.1041ZM281.093 88.2906H281.091L281.086 88.2916C281.082 88.2921 281.079 88.2929 281.074 88.2935C281.065 88.2949 281.054 88.2965 281.041 88.2984C281.016 88.3022 280.983 88.3066 280.943 88.3121C280.864 88.3231 280.755 88.3373 280.621 88.3531C280.353 88.3847 279.978 88.4229 279.517 88.4556C278.595 88.5209 277.309 88.5648 275.809 88.4849C273.47 88.3605 270.454 87.924 267.459 86.6822C263.397 90.1026 258.894 92.3922 254.299 93.6178C254.182 93.6489 254.064 93.6768 253.947 93.7066L261.773 123.666C263.346 121.941 265.147 120.012 266.974 118.15C269.014 116.07 271.136 114.02 273.027 112.419C273.971 111.62 274.911 110.887 275.793 110.308C276.592 109.784 277.665 109.165 278.818 108.926C278.938 108.902 279.058 108.882 279.178 108.865C277.89 102.486 278.773 95.3143 282.528 87.817C282.189 87.9791 281.831 88.1135 281.452 88.2144C281.335 88.2458 281.215 88.2707 281.095 88.2896L280.55 84.8326C281.095 88.2899 281.093 88.2906 281.093 88.2906ZM57.0264 74.2388C56.7689 74.5018 56.5172 74.7524 56.2725 74.9898C57.5355 76.3184 58.6455 78.0259 59.4981 80.1041C60.2733 81.9937 61.0092 84.2405 61.7188 86.3902C62.1052 87.5609 62.4878 88.7168 62.8789 89.8316L64.0127 89.9996L64.2041 90.0338L64.3789 90.0689C65.5331 90.3055 66.6273 90.8478 67.4014 91.3219C67.8128 91.5738 68.2263 91.8633 68.5947 92.1754C68.8517 92.393 69.4232 92.8978 69.8213 93.6324L69.8242 93.6314C72.8233 99.13 77.5568 111.333 81.7959 123.539C90.5172 113.969 99.689 104.645 104.619 100.762C104.653 100.735 104.687 100.709 104.722 100.683C102.192 101.128 99.6285 101.358 97.0742 101.358C80.0702 101.358 63.2379 91.5482 57.0264 74.2388ZM163.479 57.0025C156.342 57.0025 149.877 59.1734 145.252 63.1871C140.693 67.1434 137.663 73.106 137.663 81.3092C137.663 94.7343 148.511 103.927 161.348 103.927C166.864 103.927 173.669 101.774 179.049 97.6441C184.361 93.5664 188.053 87.7643 188.053 80.4205C188.053 75.4247 186.206 69.5237 182.229 64.9185C178.334 60.4069 172.284 57.0025 163.479 57.0025ZM311.376 19.1226C315.536 17.9829 320.152 18.4982 324.127 20.9322L354.476 39.5181C358.45 41.9522 361.006 45.8299 361.882 50.0533C363.041 55.6431 363.222 61.9373 362.909 67.4234C362.889 67.7829 362.857 68.1434 362.813 68.5025L362.767 68.8619C362.412 71.38 361.978 74.006 361.395 76.5836L361.135 77.6851C360.745 79.2747 360.106 80.8294 359.211 82.2916L356.556 86.6265C351.88 94.2609 341.901 96.6593 334.267 91.984C330.64 89.7629 328.192 86.3386 327.127 82.5465L327.028 82.1783C326.844 81.4564 326.667 80.7179 326.494 79.9976L326.041 78.1383C325.586 76.328 325.111 74.6674 324.47 73.1881C323.631 71.2531 322.645 69.9631 321.396 69.1978L312.725 63.8873C311.475 63.1221 309.877 62.83 307.772 62.9625C305.627 63.0975 303.328 63.6421 300.787 64.2545C300.427 64.3413 300.063 64.4286 299.697 64.5152L298.602 64.7691C294.636 65.6618 290.321 65.0714 286.577 62.7789C278.943 58.1035 276.544 48.1242 281.22 40.4898L283.874 36.1539C284.769 34.6918 285.864 33.4174 287.104 32.3472C289.384 30.3779 291.841 28.5528 294.221 26.8834C294.616 26.6059 295.022 26.3455 295.437 26.1031C300.181 23.3307 305.87 20.631 311.376 19.1226ZM169.13 80.2428C169.13 79.5573 169.039 77.6686 168.21 76.0631C167.823 75.3133 167.312 74.6997 166.625 74.2613C165.951 73.8313 164.901 73.4381 163.213 73.4381C160.64 73.4381 159.299 74.4449 158.477 75.6099C157.532 76.9476 157.118 78.7612 157.118 80.2428C157.118 84.359 160.267 86.9595 163.479 86.9595C165.558 86.9595 166.827 86.166 167.661 85.0972C168.58 83.92 169.13 82.1751 169.13 80.2428ZM188.411 26.2662L205.302 93.397L219.276 89.8804L202.386 22.7506L188.411 26.2662ZM48.5107 72.4527C48.513 72.4511 48.5199 72.4478 48.5293 72.441C48.5487 72.4269 48.5824 72.4014 48.6299 72.3658C48.7254 72.2943 48.8751 72.1804 49.0693 72.026C49.4585 71.7166 50.0239 71.248 50.6904 70.6373C51.9496 69.4837 53.5294 67.86 54.9717 65.8824C54.6732 63.7717 55.5 60.2746 55.5 57.9996C55.5 57.9996 55.1181 50.5268 56.1885 46.8004C54.8584 45.0002 53.1504 43.6995 51.1621 42.8023C49.8966 42.2313 49.0881 40.966 49.1016 39.5777C49.1062 39.099 49.0404 36.6058 47.0029 33.7144C45.7659 34.6061 43.8152 36.4046 41.3818 39.9576C40.8171 40.7821 39.927 41.3257 38.9356 41.4517C35.6759 41.8658 32.3378 42.7657 29.1602 44.0523C25.9894 45.3708 22.9851 47.0737 20.3848 49.0621C19.5905 49.6693 18.5743 49.9076 17.5928 49.7174C13.361 48.897 10.706 48.988 9.19727 49.2232C9.78069 52.7117 11.4835 54.5338 11.8223 54.8707C12.8056 55.8482 13.1195 57.3147 12.6221 58.609C11.4631 61.6248 11.3488 64.839 12.7432 68.2379C15.5162 74.9974 19.0647 77.7159 22.4883 78.7564C26.1434 79.8672 30.382 79.2991 34.8867 78.0054C36.231 77.6194 37.6759 78.0705 38.5615 79.1529C39.4471 80.2356 39.603 81.7418 38.958 82.983C38.6604 83.5557 38.332 84.8149 38.8301 86.8043C39.1242 87.9793 38.7901 89.2232 37.9463 90.0924C37.8874 90.153 37.8227 90.2131 37.7578 90.2779C38.105 90.2742 38.4548 90.3211 38.7949 90.4224C39.3727 90.5947 39.8877 90.9114 40.2988 91.3326C40.5938 90.5101 41.0973 89.6387 41.8936 88.9058C43.0001 87.8873 44.4846 87.3189 46.1631 87.398L46.501 87.4224L46.6719 87.4429L55.1045 88.6861C55.0933 88.6522 55.0824 88.6183 55.0713 88.5845C54.335 86.3537 53.6824 84.3724 53.0215 82.7613C51.8321 79.862 50.2491 78.8828 49.4873 78.6422C48.2208 78.242 47.2898 77.1585 47.084 75.8463C46.8912 74.6161 47.3667 73.3829 48.3193 72.6002L48.5107 72.4527ZM31.6162 85.9263C29.2005 86.3222 26.6699 86.4879 24.1309 86.2037C24.1482 86.2157 24.1655 86.2265 24.1816 86.2379C24.2643 86.2958 24.3326 86.3458 24.3857 86.3853C24.4041 86.399 24.4208 86.4113 24.4356 86.4224C26.5163 87.9665 28.1403 87.9148 29.4063 87.5191C30.2403 87.2584 31.0054 86.8067 31.6533 86.3248C31.6393 86.1912 31.6264 86.0585 31.6162 85.9263ZM247.74 16.7574L252.164 39.3189C252.376 40.3974 252.068 41.5128 251.334 42.3306C250.6 43.1483 249.525 43.5743 248.43 43.4801C245.385 43.2179 241.901 43.4136 238.656 44.2789C231.261 46.2515 226.977 50.7601 224.752 55.8804C222.472 61.1278 222.342 67.0868 223.553 71.6256C226.672 83.3191 239.759 90.2522 252.495 86.8551C256.636 85.7505 260.771 83.5198 264.446 79.983L264.663 79.7896C265.782 78.8781 267.36 78.7424 268.626 79.4752C271.009 80.8548 273.816 81.3688 276.181 81.4947C277.339 81.5563 278.331 81.5222 279.022 81.4732C279.081 81.4691 279.137 81.4628 279.19 81.4586C279.211 81.3595 279.233 81.2433 279.252 81.107L279.257 81.0748L280.755 70.9605C277.79 70.2 275.709 67.9991 274.254 65.6011C272.661 62.9761 271.483 59.5936 270.517 55.9722C269.685 52.8551 267.561 42.0741 265.662 32.1353C264.704 27.1201 263.792 22.2532 263.11 18.566C262.695 16.3159 262.347 14.4032 262.134 13.1851L247.74 16.7574ZM320.472 26.9019C318.213 25.5188 315.599 25.2242 313.226 25.8746C308.497 27.17 303.386 29.565 298.969 32.1461C298.721 32.291 298.478 32.4469 298.241 32.6129C295.957 34.2157 293.71 35.8908 291.679 37.6451C290.98 38.2488 290.357 38.9714 289.844 39.8101L287.188 44.1451C284.532 48.4825 285.895 54.1527 290.232 56.8092C292.361 58.1127 294.803 58.4487 297.063 57.94C297.731 57.7896 298.419 57.6242 299.146 57.4488L301.044 56.9986C303.015 56.5447 305.185 56.1113 307.332 55.9761C310.235 55.7934 313.45 56.1244 316.38 57.9185L325.051 63.2281C327.98 65.0222 329.736 67.7362 330.893 70.4049C331.748 72.3783 332.349 74.508 332.841 76.4703L333.302 78.3648C333.476 79.0917 333.641 79.781 333.811 80.4439L333.928 80.8619C334.563 82.9386 335.927 84.793 337.923 86.0152C342.26 88.6713 347.93 87.3077 350.586 82.9703L353.241 78.6353L353.427 78.3189C353.843 77.576 354.143 76.8024 354.336 76.0172L354.568 75.0328C355.092 72.7199 355.495 70.3023 355.836 67.8843C355.876 67.5982 355.904 67.3109 355.921 67.024C356.212 61.9163 356.023 56.2747 355.028 51.4742C354.562 49.2234 353.265 47.1614 351.256 45.772C352.614 47.9212 352.725 50.7416 351.309 53.0543C350.999 53.5594 350.635 54.0105 350.229 54.4049C350.682 54.5398 351.127 54.7223 351.558 54.9566L351.865 55.1343L352.163 55.3277C355.173 57.3876 356.065 61.4669 354.142 64.608C352.156 67.8502 347.916 68.8729 344.669 66.8843C344.228 66.6143 343.829 66.3016 343.473 65.9566C343.309 66.4485 343.091 66.9304 342.809 67.3912C340.823 70.6339 336.583 71.6569 333.336 69.6685C330.089 67.6801 329.073 63.4378 331.059 60.1949C331.354 59.7126 331.7 59.2805 332.085 58.899C331.442 58.732 330.812 58.4692 330.216 58.1041C326.969 56.1155 325.953 51.874 327.938 48.6314C329.924 45.389 334.164 44.3659 337.411 46.3541C337.944 46.6805 338.417 47.0689 338.826 47.5025C338.994 46.9374 339.236 46.3844 339.559 45.858C340.981 43.5358 343.559 42.352 346.101 42.5972L320.472 26.9019ZM244.95 52.3648C248.238 51.4878 252.275 51.9728 254.839 54.4224L255.082 54.6656L255.229 54.8297C255.561 55.2227 255.803 55.6847 255.936 56.1832C257.364 61.5383 258.865 65.8217 260.41 69.3287C261.039 70.7562 260.647 72.428 259.449 73.4273C257.06 75.4204 254.606 76.8025 252.106 77.4693C244.532 79.4896 238.321 74.8746 236.6 68.4205C234.996 62.4076 237.333 54.3965 244.95 52.3648ZM249.503 59.2027C248.93 58.977 247.959 58.807 246.754 59.1285C244.071 59.8444 242.403 63.0162 243.363 66.6168C244.206 69.7763 246.889 71.6158 250.302 70.7056C251.071 70.5005 251.943 70.1301 252.914 69.5367C251.723 66.5258 250.585 63.1131 249.503 59.2027ZM281.178 68.4967C281.156 68.5613 281.137 68.6252 281.121 68.6881C281.139 68.6239 281.156 68.5597 281.178 68.4967ZM336.908 63.6861C336.898 63.6886 336.885 63.6929 336.871 63.7027C336.856 63.7138 336.845 63.7272 336.84 63.7349C336.835 63.7425 336.828 63.7589 336.825 63.7779C336.823 63.7947 336.824 63.8086 336.826 63.8189C336.829 63.8292 336.834 63.842 336.844 63.856C336.855 63.8719 336.869 63.8826 336.876 63.8873C336.883 63.8917 336.899 63.899 336.919 63.9019C336.936 63.9045 336.95 63.9034 336.96 63.901C336.97 63.8985 336.983 63.8933 336.997 63.8834C337.013 63.8721 337.024 63.8587 337.028 63.8511C337.052 63.8123 337.049 63.7641 337.024 63.7291L336.992 63.6988L336.991 63.6978C336.984 63.6934 336.968 63.687 336.949 63.6842C336.932 63.6816 336.919 63.6837 336.908 63.6861ZM348.324 60.9146C348.272 60.8831 348.203 60.9003 348.172 60.9517C348.148 60.9904 348.152 61.0386 348.177 61.0738L348.209 61.1041C348.248 61.1282 348.297 61.1246 348.332 61.0992L348.361 61.0679C348.385 61.0292 348.383 60.9802 348.357 60.9449L348.325 60.9156L348.324 60.9146ZM340.42 54.1812C340.252 54.7468 340.011 55.3009 339.688 55.8277C339.393 56.3097 339.047 56.7414 338.663 57.1226C339.197 57.2612 339.721 57.4664 340.225 57.7408L340.532 57.9185L340.83 58.1109C341.154 58.3327 341.452 58.5794 341.727 58.8443C341.89 58.353 342.11 57.872 342.392 57.4117C342.701 56.9064 343.065 56.4546 343.472 56.0601C342.91 55.8928 342.36 55.6523 341.836 55.3316C341.302 55.0047 340.83 54.6155 340.42 54.1812ZM314.006 30.7554C315.749 27.9172 319.465 27.0195 322.311 28.7623C325.154 30.5036 326.053 34.2208 324.307 37.0689L324.308 37.0699L323.48 38.4195L324.831 39.2467L324.835 39.2486C327.669 40.9901 328.575 44.7037 326.828 47.5562C325.086 50.4003 321.363 51.2967 318.517 49.5484L317.172 48.7252L316.345 50.0767L316.342 50.0806C314.599 52.9179 310.883 53.8166 308.037 52.0738C305.192 50.3315 304.293 46.6106 306.042 43.7623L306.866 42.4146L305.518 41.5904L305.513 41.5865C302.678 39.8451 301.773 36.1323 303.52 33.2799L303.688 33.0181C305.492 30.3833 309.07 29.5949 311.826 31.2847L313.176 32.1099L314.004 30.7593L314.006 30.7554ZM333.83 52.1197C333.802 52.1155 333.772 52.1225 333.749 52.1392L333.72 52.1715C333.688 52.2234 333.704 52.2919 333.756 52.3238C333.808 52.3558 333.876 52.3392 333.908 52.2877C333.932 52.2488 333.929 52.1999 333.903 52.1646L333.871 52.1353L333.83 52.1197ZM345.408 49.3482C345.398 49.3507 345.385 49.3559 345.371 49.3658L345.34 49.398C345.335 49.4056 345.328 49.4217 345.325 49.441C345.323 49.4578 345.324 49.4717 345.326 49.482C345.329 49.4923 345.334 49.5051 345.344 49.5191C345.355 49.535 345.369 49.5458 345.376 49.5504C345.428 49.5822 345.496 49.566 345.528 49.5142C345.533 49.5065 345.54 49.4901 345.543 49.4713C345.546 49.4545 345.544 49.4405 345.542 49.4302C345.54 49.42 345.534 49.4071 345.524 49.3931L345.492 49.3619L345.491 49.3609C345.484 49.3564 345.468 49.3501 345.449 49.3472C345.432 49.3447 345.418 49.3458 345.408 49.3482ZM315.244 40.2994C315.182 40.3161 315.12 40.331 315.057 40.3443C315.065 40.3752 315.075 40.4059 315.082 40.4371C315.09 40.4697 315.096 40.5029 315.103 40.5357C315.165 40.519 315.227 40.5041 315.29 40.4908C315.281 40.4588 315.273 40.4264 315.266 40.3941C315.258 40.3626 315.251 40.331 315.244 40.2994ZM161.13 155.428C161.13 158.56 160.259 161.924 158.18 164.588C156.015 167.362 152.708 169.144 148.479 169.144C141.564 169.144 135.119 163.571 135.119 155.428C135.119 152.912 135.77 149.573 137.758 146.757C139.867 143.769 143.323 141.623 148.213 141.623C151.055 141.623 153.449 142.306 155.39 143.544C157.318 144.775 158.595 146.421 159.43 148.037C161.043 151.161 161.13 154.426 161.13 155.428ZM176.13 80.2428C176.13 83.374 175.259 86.738 173.18 89.4029C171.015 92.1764 167.708 93.9595 163.479 93.9595C156.564 93.9595 150.118 88.386 150.118 80.2428C150.118 77.7268 150.771 74.3881 152.758 71.5728C154.867 68.5848 158.323 66.4381 163.213 66.4381C166.055 66.4381 168.448 67.1215 170.39 68.3599C172.318 69.59 173.595 71.2357 174.43 72.8512C176.043 75.9759 176.13 79.2399 176.13 80.2428ZM115.41 68.5416C115.41 70.0328 114.817 71.5141 114.113 72.7174C113.361 74.0034 112.284 75.3137 110.905 76.4898C108.116 78.8682 104.033 80.7476 98.7617 80.7476C88.4782 80.7475 78.8273 72.6062 78.8272 59.3023C78.8272 54.3437 80.1472 48.8037 83.7783 44.4381C87.5036 39.9593 93.3059 37.1462 101.338 37.1461C104.724 37.1461 108.035 37.7293 110.619 38.6871L113.113 26.3629C109.613 24.8708 105.257 24.0689 100.539 24.0689C94.8996 24.0689 84.9563 25.7175 76.544 31.0054C71.2328 34.3441 66.5092 39.1318 63.833 46.0172C64 45.5 63.5 47.5 63.5 47.5C63.5 47.5 60.5736 59.8142 62.3555 67.3863C66.2883 84.099 81.2222 94.358 97.0742 94.358C114.194 94.3579 130.353 82.7807 130.353 63.9215C130.353 59.6498 129.723 57.2069 128.831 55.8853C128.154 54.882 127.037 54.0963 124.348 54.0963C124.348 54.0963 124.342 54.0961 124.33 54.0963C124.318 54.0964 124.301 54.0968 124.279 54.0972C124.236 54.098 124.18 54.0993 124.109 54.1011C123.969 54.1049 123.784 54.1101 123.557 54.1177C123.103 54.133 122.495 54.1561 121.761 54.1851C120.293 54.2431 118.331 54.3256 116.098 54.4254C111.803 54.6172 106.518 54.8713 101.828 55.1265L101.982 64.2838C103.057 64.2236 104.521 64.1295 105.957 64.0377C107.775 63.9214 109.72 63.7975 110.399 63.7974H110.666C111.648 63.7974 113.058 64.0468 114.162 65.2125C115.232 66.3414 115.41 67.6999 115.41 68.5416ZM85.8272 59.3023C85.8273 68.7402 92.3441 73.7475 98.7617 73.7476C102.285 73.7476 104.777 72.5165 106.363 71.1637C106.42 71.1149 106.475 71.0641 106.529 71.0152C106.488 71.0179 106.445 71.0203 106.403 71.023C104.522 71.1433 102.423 71.2812 101.307 71.3277C101.258 71.3297 101.21 71.3306 101.161 71.3306H100.983C99.0338 71.3306 97.4104 70.4566 96.3565 69.1177C95.3941 67.8953 95.0074 66.432 94.9961 65.1353L94.8184 54.564C94.818 54.5444 94.8174 54.5241 94.8174 54.5045V54.3267C94.8176 50.9612 97.6048 48.3494 100.878 48.1676H100.88C110.522 47.6368 123.162 47.0963 124.348 47.0963C128.676 47.0963 132.312 48.5309 134.633 51.9693C136.346 54.5076 137.071 57.7736 137.282 61.3863C138.309 60.126 139.44 58.9624 140.664 57.9C146.788 52.5857 154.981 50.0025 163.479 50.0025C174.308 50.0025 182.295 54.2834 187.527 60.3433C188.884 61.9144 190.046 63.5971 191.024 65.3414L181.225 26.3902C180.52 23.5912 182.102 20.6362 185.032 19.899L202.349 15.5416C205.187 14.8275 207.896 16.5453 208.703 19.1978L208.775 19.4576L217.662 54.7769C217.867 54.2107 218.089 53.6476 218.331 53.0904C221.348 46.1474 227.252 40.077 236.852 37.5162C239.38 36.8418 241.973 36.4949 244.458 36.4L240.704 17.2496C240.329 15.3678 240.907 13.6304 241.984 12.3531C243.009 11.1378 244.411 10.3989 245.795 10.0299L245.854 10.0142L260.771 6.31111C262.422 5.88023 264.229 5.81305 265.857 6.65486C267.573 7.5417 268.375 9.06076 268.705 10.2994L268.773 10.5572L268.833 10.817C268.849 10.9046 268.862 10.9929 268.872 11.0816C268.875 11.0934 268.961 11.6176 269.174 12.8062C269.373 13.9192 269.655 15.4576 269.994 17.2945C270.673 20.9677 271.583 25.821 272.538 30.8228C274.466 40.9179 276.532 51.3614 277.28 54.1676C278.192 57.5848 279.166 60.2025 280.238 61.9693C281.179 63.5199 281.943 64.0176 282.461 64.1705L282.668 64.2174L282.712 64.2242C283.138 64.2955 284.053 64.4345 284.875 64.7515C285.718 65.0769 287.31 65.9182 287.839 67.901C287.884 68.0715 288.207 69.0736 287.929 70.3023L286.24 81.6959C292.427 73.2894 300.01 70.8721 306.662 71.108C313.615 71.3547 319.164 74.4668 320.616 75.3619C322.759 76.6827 324.715 78.5017 325.86 81.0719C327.014 83.6603 327.166 86.6122 326.421 89.8658C326.051 91.4876 325.48 93.3095 324.795 95.1744C326.05 94.8033 327.554 94.8069 328.999 95.5709L329.332 95.7613L329.522 95.8863C329.953 96.1871 330.294 96.5426 330.438 96.691C330.689 96.9519 330.962 97.2602 331.236 97.5806C331.789 98.2267 332.446 99.0435 333.117 99.9049C334.124 101.196 335.216 102.656 336.114 103.908L336.938 105.077L337.03 105.218C337.627 106.18 338.246 107.497 338.34 109.135C338.436 110.817 337.961 112.476 336.974 114.078L336.414 114.985C330.683 124.284 323.027 129.555 315.004 131.395C307.995 133.002 300.911 131.942 294.897 128.947C294.514 129.473 294.057 129.943 293.552 130.341L292.698 131.009C291.517 131.951 289.826 133.359 287.858 135.017C290.256 135.836 292.733 136.855 294.967 137.913C297.343 139.038 299.623 140.289 301.402 141.527C302.287 142.142 303.137 142.816 303.829 143.531C304.4 144.121 305.205 145.081 305.541 146.35L305.603 146.608L305.65 146.868C305.858 148.161 305.6 149.336 305.207 150.398C305.189 150.447 305.17 150.496 305.149 150.544L300.275 162.075C300.264 162.101 300.252 162.128 300.24 162.155C299.579 163.615 298.326 165.565 295.804 166.086C294.522 166.351 293.257 166.11 292.224 165.697C287.201 163.716 276.302 159.747 270.725 157.683L272.288 163.646C272.304 163.705 272.318 163.766 272.33 163.826C272.836 166.272 271.664 169.418 268.454 170.191L251.252 174.745C251.19 174.761 251.127 174.776 251.064 174.789C248.482 175.322 245.588 173.929 244.726 171.007C244.715 170.972 244.706 170.936 244.696 170.9L237.539 143.463C237.143 144.189 236.771 144.869 236.463 145.43C236.217 145.877 236.013 146.249 235.869 146.509C235.797 146.64 235.741 146.742 235.702 146.812C235.683 146.847 235.668 146.874 235.658 146.892C235.657 146.895 235.655 146.897 235.653 146.899C234.825 148.529 233.605 149.697 232.175 150.377C231.505 150.695 230.682 150.856 230.091 150.95C229.372 151.064 228.495 151.149 227.505 151.176C225.528 151.231 222.987 151.057 220.247 150.342C214.685 148.892 208.332 145.204 204.419 136.972L203.122 134.244C201.348 130.512 199.428 128.807 197.778 128.108C197.027 127.79 196.203 127.627 195.295 127.642L206.046 153.691C207.146 156.212 206.02 159.267 203.521 160.455L203.361 160.531C203.309 160.556 203.255 160.58 203.201 160.602L186.772 167.427C186.737 167.442 186.701 167.457 186.665 167.47C183.906 168.51 181.039 167.249 179.825 164.695C179.799 164.64 179.775 164.585 179.752 164.529L179.081 162.906C177.298 169.405 173.227 174.608 168.312 178.381C161.742 183.424 153.446 186.112 146.348 186.112C134.114 186.112 122.782 179.334 118.025 168.269L115.578 178.018C115.57 178.049 115.562 178.08 115.554 178.111C115.178 179.451 114.347 180.665 113.249 181.51C112.129 182.373 110.484 183.02 108.614 182.637L108.527 182.62C108.443 182.602 108.359 182.582 108.276 182.558L90.877 177.631C88.7527 177.061 87.4544 175.576 86.792 174.173C86.1753 172.868 85.9553 171.337 86.2227 170.032L86.2412 169.945L86.2842 169.76C86.3002 169.699 86.3176 169.638 86.3369 169.578L93.5381 147.136C90.9887 150.401 88.3331 153.781 86.1191 156.455L86.1182 156.454C85.0994 157.712 82.7663 159.578 79.2471 159.022C79.2395 159.021 79.2312 159.019 79.2236 159.018L70.1885 157.529C70.1438 157.522 70.099 157.514 70.0547 157.504C66.3846 156.752 65.2781 153.394 64.9326 152.139L64.4082 150.392C63.4833 147.27 62.4813 143.686 61.5254 140.259L59.2295 163.942C59.2176 164.064 59.1995 164.187 59.1748 164.307L59.1572 164.394C58.8221 166.029 57.6521 167.334 56.5811 168.117C55.3804 168.994 53.6376 169.714 51.5996 169.486C51.5909 169.485 51.582 169.484 51.5732 169.483L34.5781 167.451C34.4819 167.439 34.386 167.424 34.291 167.405L34.2041 167.387C30.521 166.632 29.151 162.987 29.6231 160.372C29.6279 160.34 29.6344 160.293 29.6436 160.233C29.6629 160.106 29.6921 159.918 29.7295 159.672C29.8044 159.181 29.9139 158.459 30.0537 157.541C30.3334 155.704 30.7335 153.079 31.2139 149.926C32.1746 143.621 33.4579 135.203 34.7471 126.755C35.934 118.978 37.1344 111.115 38.0938 104.857C37.7636 103.927 37.2874 102.543 36.8066 101.171C36.5349 100.396 36.25 99.5975 35.9697 98.8209C31.7057 100.758 28.0154 100.789 25.0654 99.9137C23.2515 99.3752 21.8698 98.5379 20.9307 97.8238C20.4596 97.4656 20.092 97.1329 19.8281 96.8726C19.6959 96.7422 19.5881 96.629 19.5059 96.5387C19.4958 96.5275 19.4859 96.5168 19.4766 96.5064C17.9975 95.0124 16.7189 94.3208 15.9209 94.0006C15.5115 93.8363 15.2124 93.7628 15.0576 93.732C14.98 93.7166 14.9365 93.7115 14.9365 93.7115C14.9365 93.7115 14.9451 93.713 14.9649 93.7144C14.9748 93.7152 14.9876 93.7155 15.0029 93.7164C15.0106 93.7168 15.0193 93.7179 15.0283 93.7183C15.0329 93.7186 15.0381 93.7181 15.043 93.7183C15.0452 93.7184 15.0475 93.7192 15.0498 93.7193H15.0537C14.8714 93.7122 14.6897 93.6903 14.5107 93.6549C13.8057 93.5153 13.1445 93.3414 12.5537 93.1119C11.9985 92.8961 11.2862 92.5486 10.6709 91.9488C9.98117 91.2762 9.37755 90.2303 9.42188 88.9097C9.46158 87.728 10.0073 86.8803 10.3643 86.4361C11.0342 85.6026 11.92 85.1046 12.2803 84.9097C12.5211 84.7795 12.7365 84.6774 12.8926 84.607C12.9721 84.5712 13.0405 84.5421 13.0928 84.5201C13.1189 84.5091 13.1417 84.4993 13.1602 84.4918L13.1992 84.4762L13.2012 84.4752C13.203 84.477 13.2371 84.559 14.4609 87.649L13.2031 84.4742C13.264 84.4501 13.3256 84.4275 13.3877 84.4068C14.5394 84.0239 15.6536 83.8648 16.6963 83.8521C12.4751 81.4795 8.90086 77.313 6.26758 70.8941C4.45835 66.4839 4.32685 62.1354 5.43165 58.1002C3.9109 55.9842 2.01057 52.2615 2.00001 46.8355C1.99801 45.7894 2.46414 44.7968 3.27051 44.1304L5.50001 46.8287C3.31457 44.1842 3.27364 44.1297 3.2754 44.1265C3.2754 44.1265 3.27944 44.1231 3.28126 44.1217C3.28479 44.1188 3.28836 44.1158 3.292 44.1129C3.29947 44.1068 3.30753 44.1006 3.31544 44.0943C3.33116 44.0817 3.3478 44.0688 3.36524 44.0552C3.40035 44.0281 3.43927 43.9989 3.48145 43.9683C3.56583 43.9072 3.6647 43.8399 3.77833 43.7681C4.00596 43.6244 4.29216 43.4643 4.64356 43.3013C5.34835 42.9745 6.30038 42.6429 7.54981 42.4049C9.79357 41.9775 12.9711 41.8563 17.3936 42.5738C20.2 40.5894 23.2947 38.9093 26.4941 37.5806L26.5215 37.5689C29.7274 36.2699 33.11 35.293 36.5059 34.733C39.148 31.1178 41.4923 28.9735 43.3877 27.7027C44.4434 26.9949 45.3539 26.5625 46.085 26.3004C46.4493 26.1697 46.7653 26.0825 47.0283 26.025C47.1597 25.9963 47.2777 25.9752 47.3809 25.9595C47.4324 25.9517 47.4803 25.9453 47.5244 25.94C47.5465 25.9374 47.5678 25.9353 47.5879 25.9332C47.5979 25.9321 47.6077 25.9312 47.6172 25.9302C47.622 25.9298 47.6272 25.9287 47.6318 25.9283C47.6342 25.9281 47.6387 25.9283 47.6387 25.9283C47.6424 25.9341 47.6576 26.0665 47.9121 28.9693L47.6455 25.9273C48.6854 25.8363 49.7118 26.2139 50.4443 26.9576C54.2544 30.8257 55.5169 34.8114 55.9199 37.3863C57.0351 38.0314 58.0861 38.7797 59.0596 39.6353C62.4346 33.2408 67.3802 28.4971 72.8184 25.0787C82.6016 18.929 93.9191 17.0689 100.539 17.0689C106.345 17.069 112.028 18.1112 116.77 20.3306C118.954 21.3339 120.207 23.6533 120.207 25.899V26.2545C120.207 26.4876 120.184 26.7203 120.138 26.9488L117.117 41.8736C117.113 41.8951 117.108 41.9166 117.104 41.9381C116.564 44.3676 114.232 46.2779 111.555 46.2779C110.767 46.2779 109.846 46.0751 109.013 45.6002C107.453 44.8468 104.597 44.1461 101.338 44.1461C95.0678 44.1462 91.3647 46.2635 89.1602 48.9136C86.8615 51.6772 85.8272 55.4661 85.8272 59.3023ZM234.253 135.911C234.256 135.949 234.261 135.99 234.267 136.033C234.261 135.992 234.257 135.951 234.253 135.911Z" fill="black"/>
</svg>
