<svg width="398" height="198" viewBox="0 0 398 198" fill="none" xmlns="http://www.w3.org/2000/svg">
<path d="M150.979 131.688C143.842 131.689 137.377 133.858 132.752 137.872C128.193 141.828 125.163 147.791 125.163 155.994C125.163 169.419 136.011 178.612 148.848 178.612C154.364 178.612 161.17 176.459 166.55 172.329C171.861 168.251 175.553 162.45 175.553 155.106C175.553 150.111 173.706 144.209 169.729 139.604C165.834 135.092 159.784 131.688 150.979 131.688ZM48.9414 96.1318C48.6437 98.0556 48.2289 100.753 47.7363 103.965C46.7513 110.389 45.4561 118.866 44.167 127.313C42.8779 135.759 41.5945 144.176 40.6338 150.481C40.1535 153.634 39.7533 156.258 39.4736 158.095C39.3408 158.967 39.2346 159.662 39.1602 160.15L54.834 162.024L58.4268 124.977C58.4386 124.854 58.4568 124.733 58.4815 124.612L58.6065 124.003C58.6857 123.616 58.8313 123.036 59.126 122.471C59.2662 122.202 59.5639 121.691 60.1094 121.237C60.6866 120.757 61.6834 120.249 62.9258 120.417L63.1777 120.46L63.418 120.518C64.5888 120.835 65.2841 121.603 65.5908 121.993C65.9326 122.428 66.1776 122.895 66.3184 123.17C66.3416 123.215 66.3646 123.261 66.3857 123.308C66.8038 124.222 67.3251 125.859 67.8604 127.646C68.4249 129.53 69.0886 131.874 69.792 134.387C71.031 138.813 72.3956 143.773 73.6152 147.891L74.1289 149.6L74.1611 149.715C74.2141 149.913 74.2658 150.073 74.3184 150.203L82.8506 151.609C82.9671 151.627 83.031 151.62 83.0547 151.616C83.0811 151.612 83.0983 151.605 83.1123 151.599C83.1293 151.59 83.1484 151.578 83.166 151.563C83.1755 151.555 83.1804 151.549 83.1816 151.548C83.1967 151.529 83.2121 151.51 83.2275 151.491C86.1393 147.974 89.8578 143.177 93.1514 138.959C94.7869 136.865 96.3193 134.912 97.5723 133.362C98.7517 131.904 99.8728 130.562 100.604 129.888C100.648 129.848 100.693 129.809 100.738 129.771C100.99 129.562 101.346 129.278 101.739 129.042C101.938 128.923 102.252 128.752 102.646 128.621C102.967 128.515 103.557 128.363 104.285 128.446L104.605 128.497L104.776 128.536C105.625 128.752 106.388 129.26 106.914 130.006C107.406 130.703 107.549 131.404 107.599 131.814C107.691 132.585 107.557 133.299 107.483 133.657L107.395 134.093C107.369 134.217 107.336 134.339 107.298 134.459L95.7246 170.521L111.496 174.987L127.802 110.044L111.865 105.935L111.772 105.916C111.784 105.918 111.736 105.908 111.623 105.911C111.514 105.914 111.389 105.929 111.267 105.953C111.237 105.959 111.21 105.968 111.186 105.974C106.059 110.097 95.6436 120.802 86.1426 131.442C86.095 131.496 86.0449 131.547 85.9941 131.598C85.9805 131.611 85.966 131.627 85.9404 131.652C85.9193 131.674 85.88 131.713 85.8408 131.752C85.7737 131.818 85.6094 131.98 85.3955 132.146C85.1786 132.315 84.7858 132.587 84.2354 132.771C83.6311 132.972 82.9678 133.022 82.3047 132.886C81.4856 132.718 80.6783 132.282 80.0703 131.521C79.6583 131.005 79.447 130.452 79.4004 130.337C79.3735 130.271 79.3489 130.203 79.3262 130.136C74.8006 116.687 69.4913 102.76 66.3945 96.8897C66.3513 96.8604 66.3021 96.8259 66.2451 96.791C66.0778 96.6885 65.8988 96.5947 65.7354 96.5234C65.5685 96.4507 65.4795 96.4282 65.4736 96.4268L65.4063 96.4131L49.2666 94.0332C49.1841 94.5592 49.0753 95.2665 48.9414 96.1318ZM156.63 154.929C156.63 154.243 156.539 152.355 155.71 150.749C155.323 149.999 154.812 149.385 154.125 148.946C153.451 148.516 152.401 148.123 150.713 148.123C148.14 148.123 146.799 149.13 145.977 150.295C145.032 151.633 144.619 153.447 144.619 154.929C144.619 159.045 147.767 161.644 150.979 161.645C153.058 161.645 154.327 160.851 155.161 159.782C156.08 158.605 156.63 156.861 156.63 154.929ZM236.038 99.8945L253.558 167.055L267.602 163.338L264.159 150.207C263.806 148.86 264.285 147.432 265.379 146.57L265.847 146.202C267.329 145.034 270.824 142.083 274.731 138.649C276.002 137.533 277.889 137.485 279.215 138.535C280.54 139.585 280.926 141.433 280.13 142.926L275.967 150.733C281.284 152.699 291.259 156.34 296.521 158.388L301.054 147.665C300.785 147.424 300.407 147.124 299.904 146.774C298.552 145.834 296.645 144.769 294.471 143.739C290.025 141.634 285.183 140.007 282.546 139.74C281.152 139.599 279.976 138.64 279.558 137.303C279.139 135.965 279.56 134.507 280.626 133.597C284.716 130.105 288.729 126.706 291.009 124.898L282.248 115.589C282.212 115.612 282.174 115.634 282.135 115.66C281.58 116.024 280.879 116.56 280.051 117.262C278.398 118.661 276.449 120.536 274.472 122.552C270.525 126.575 266.668 130.948 265.213 132.661C264.368 133.656 263.039 134.098 261.767 133.808C260.494 133.517 259.489 132.543 259.159 131.28L250.013 96.2695L236.038 99.8945ZM209.353 109.029C203.068 107.317 195.585 108.062 188.07 111.634C185.419 112.894 182.803 114.498 180.146 116.502C179.907 116.682 179.646 116.831 179.37 116.944L171.677 120.108L188.093 159.837L201.43 154.296L189.764 126.03C189.409 125.171 189.412 124.206 189.77 123.348C190.127 122.49 190.812 121.809 191.672 121.456C195.285 119.975 199.23 119.562 203.009 121.163C206.747 122.747 209.714 126.047 211.944 130.739L213.241 133.467C216.117 139.517 220.589 142.046 224.514 143.069C226.516 143.592 228.386 143.719 229.812 143.68C230.525 143.66 231.099 143.6 231.496 143.537C231.601 143.52 231.682 143.501 231.744 143.488C231.784 143.444 231.854 143.357 231.932 143.197L232.016 143.034L232.017 143.033V143.032C232.017 143.031 232.018 143.03 232.02 143.027C232.022 143.023 232.025 143.016 232.03 143.007C232.04 142.989 232.055 142.963 232.074 142.929C232.112 142.86 232.168 142.758 232.239 142.629C232.382 142.371 232.585 142.001 232.829 141.558C233.317 140.67 233.967 139.486 234.613 138.298C235.261 137.107 235.899 135.924 236.368 135.034C236.377 135.018 236.384 135.001 236.393 134.985C230.86 133.035 227.637 129.152 225.322 124.282L224.063 121.635C220.856 114.888 215.579 110.726 209.353 109.029ZM236.952 136.296C236.959 136.313 236.965 136.331 236.972 136.349C236.965 136.331 236.959 136.313 236.952 136.296ZM236.875 136.06C236.877 136.066 236.879 136.072 236.881 136.078C236.879 136.072 236.877 136.066 236.875 136.06ZM236.775 135.601C236.779 135.625 236.784 135.65 236.788 135.676C236.784 135.651 236.779 135.626 236.775 135.601ZM236.741 135.238C236.742 135.263 236.744 135.29 236.746 135.317C236.744 135.291 236.742 135.265 236.741 135.238ZM197.538 80.791C197.251 90.3489 192.254 97.7515 185.812 102.697C179.243 107.74 170.946 110.428 163.848 110.428C148.816 110.428 135.144 100.195 133.361 84.3496C128.292 91.4655 120.73 96.4284 112.411 98.9473C112.664 98.971 112.921 99.0059 113.178 99.0586L113.352 99.0947L113.523 99.1338L130.663 103.554L130.672 103.556C132.391 104.003 133.74 105.061 134.474 106.553C135.145 107.917 135.144 109.316 134.931 110.354L134.895 110.528C134.884 110.578 134.873 110.628 134.86 110.678L129.664 131.37C135.594 126.877 143.157 124.689 150.979 124.688C157.645 124.688 163.233 126.312 167.766 128.973L164.586 121.277C164.569 121.236 164.553 121.194 164.537 121.151C163.673 118.808 164.471 115.691 167.16 114.412L167.321 114.336L167.492 114.261L176.298 110.639C179.168 108.507 182.066 106.737 185.064 105.312C193.837 101.142 203.041 100.054 211.192 102.275C219.401 104.512 226.309 110.052 230.386 118.629L231.645 121.277C232.836 123.784 234.136 125.599 235.841 126.871L228.852 100.077C228.836 100.019 228.823 99.961 228.811 99.9024L228.775 99.7285L228.728 99.4639C228.31 96.7434 230.154 94.3168 232.45 93.5977L232.617 93.5498L237.498 92.2832C234.185 91.082 231.106 89.3396 228.425 87.1172L228.985 89.3447C229.695 92.1669 227.978 95.0398 225.156 95.75L207.84 100.106C205.018 100.817 202.145 99.0995 201.435 96.2774L197.538 80.791ZM308.914 77.6045C304.07 77.4327 298.077 79.1532 292.978 87.4268C288.089 95.3593 287.344 102.364 288.763 107.968C290.197 113.632 293.934 118.238 298.658 121.149C303.673 124.24 309.872 125.464 315.939 124.072C321.953 122.693 328.106 118.682 332.955 110.813L333.514 109.905C333.876 109.317 333.852 109.062 333.851 109.037C333.847 108.974 333.822 108.809 333.606 108.452C332.716 107.166 331.346 105.311 330.097 103.709C329.698 103.197 329.319 102.723 328.98 102.309C328.806 102.607 328.646 102.87 328.521 103.071C325.197 108.465 320.893 111.542 316.329 112.604C311.825 113.653 307.426 112.653 304.035 110.563C298.081 106.894 295.658 99.8761 299.129 94.2441C300.612 91.8382 302.689 90.5624 304.596 90.0166C305.526 89.7503 306.429 89.6522 307.228 89.6787C307.826 89.6986 308.806 89.7991 309.709 90.294L309.889 90.3984L310.081 90.5215C310.565 90.8425 311.277 91.4136 311.751 92.3731C312.291 93.4669 312.265 94.5364 312.174 95.2607C312.051 96.229 311.666 97.4836 311.174 98.9609C311.533 99.0603 311.922 99.1672 312.33 99.2764C313.904 99.6974 315.684 100.144 317.059 100.45C319.097 96.6514 321.277 91.4068 322.097 87.8106L322.098 87.8057C322.588 85.6671 322.366 84.3198 321.966 83.4209C321.557 82.5025 320.779 81.6445 319.443 80.8213C318.4 80.1782 314.088 77.7881 308.914 77.6045ZM283.593 87.791H283.591C283.589 87.7913 283.588 87.7917 283.586 87.792C283.582 87.7925 283.579 87.7933 283.574 87.794C283.565 87.7953 283.554 87.797 283.541 87.7988C283.516 87.8026 283.483 87.807 283.443 87.8125C283.364 87.8235 283.255 87.8377 283.121 87.8535C282.853 87.8851 282.478 87.9234 282.017 87.9561C281.095 88.0213 279.809 88.0652 278.309 87.9854C275.97 87.8609 272.954 87.4244 269.959 86.1826C265.897 89.603 261.394 91.8926 256.799 93.1182C256.682 93.1493 256.564 93.1772 256.447 93.207L264.273 123.166C265.846 121.441 267.647 119.512 269.474 117.65C271.514 115.571 273.636 113.52 275.527 111.919C276.471 111.12 277.411 110.388 278.293 109.809C279.092 109.284 280.165 108.665 281.318 108.427C281.438 108.402 281.558 108.382 281.678 108.365C280.39 101.987 281.273 94.8147 285.028 87.3174C284.689 87.4795 284.331 87.6139 283.952 87.7149C283.835 87.7462 283.715 87.7711 283.595 87.79L283.05 84.333C283.595 87.7903 283.594 87.7909 283.593 87.791ZM59.5264 73.7393C59.2689 74.0022 59.0172 74.2528 58.7725 74.4902C60.0355 75.8188 61.1455 77.5263 61.9981 79.6045C62.7733 81.4941 63.5092 83.7409 64.2188 85.8906C64.6052 87.0613 64.9878 88.2173 65.3789 89.332L66.5127 89.5L66.7041 89.5342L66.8789 89.5693C68.0331 89.8059 69.1273 90.3482 69.9014 90.8223C70.3128 91.0742 70.7263 91.3637 71.0947 91.6758C71.3517 91.8935 71.9232 92.3983 72.3213 93.1328L72.3242 93.1318C75.3233 98.6304 80.0568 110.834 84.2959 123.039C93.0172 113.469 102.189 104.146 107.119 100.263V100.264C107.153 100.236 107.187 100.209 107.222 100.184C104.692 100.629 102.128 100.858 99.5742 100.858C82.5702 100.858 65.7379 91.0487 59.5264 73.7393ZM165.979 56.5029C158.842 56.503 152.377 58.6739 147.752 62.6875C143.193 66.6438 140.163 72.6064 140.163 80.8096C140.163 94.2347 151.011 103.428 163.848 103.428C169.364 103.428 176.169 101.274 181.549 97.1445C186.861 93.0668 190.553 87.2647 190.553 79.9209C190.553 74.9251 188.706 69.0241 184.729 64.419C180.834 59.9073 174.784 56.5029 165.979 56.5029ZM313.876 18.6231C318.036 17.4833 322.652 17.9986 326.627 20.4326L356.976 39.0186C360.95 41.4526 363.506 45.3303 364.382 49.5537C365.541 55.1435 365.722 61.4377 365.409 66.9238V66.9248C365.389 67.2843 365.357 67.6438 365.313 68.0029L365.267 68.3623C364.912 70.8805 364.478 73.5064 363.895 76.084L363.635 77.1856C363.245 78.7752 362.606 80.3298 361.711 81.792L359.056 86.127C354.38 93.7613 344.401 96.1598 336.767 91.4844C333.14 89.2633 330.692 85.8391 329.627 82.0469L329.528 81.6787C329.344 80.9569 329.167 80.2183 328.994 79.4981L328.541 77.6387C328.086 75.8285 327.611 74.1678 326.97 72.6885C326.131 70.7535 325.145 69.4635 323.896 68.6982L315.225 63.3877C313.975 62.6225 312.377 62.3304 310.272 62.4629C308.127 62.598 305.828 63.1425 303.287 63.7549V63.7539C302.927 63.8407 302.563 63.929 302.197 64.0156L301.102 64.2695C297.136 65.1622 292.821 64.5718 289.077 62.2793C281.443 57.6039 279.044 47.6246 283.72 39.9902L286.374 35.6543C287.269 34.1922 288.364 32.9178 289.604 31.8477C291.884 29.8783 294.341 28.0532 296.721 26.3838C297.116 26.1063 297.522 25.8459 297.937 25.6035C302.681 22.8312 308.37 20.1315 313.876 18.6231ZM171.63 79.7432C171.63 79.0577 171.539 77.169 170.71 75.5635C170.323 74.8138 169.812 74.2001 169.125 73.7617C168.451 73.3317 167.401 72.9385 165.713 72.9385C163.14 72.9385 161.799 73.9453 160.977 75.1104C160.032 76.448 159.618 78.2616 159.618 79.7432C159.618 83.8595 162.767 86.4599 165.979 86.46C168.058 86.46 169.327 85.6664 170.161 84.5977C171.08 83.4204 171.63 81.6756 171.63 79.7432ZM190.911 25.7666L207.802 92.8975L221.776 89.3809L204.886 22.251L190.911 25.7666ZM51.0107 71.9531C51.013 71.9515 51.0199 71.9482 51.0293 71.9414C51.0487 71.9273 51.0824 71.9018 51.1299 71.8662C51.2254 71.7947 51.3751 71.6808 51.5693 71.5264C51.9585 71.217 52.5239 70.7484 53.1904 70.1377C54.4496 68.9841 56.0294 67.3604 57.4717 65.3828C57.1732 63.2721 57.0176 61.0777 57.0176 58.8027C57.0176 54.1815 57.6181 50.0272 58.6885 46.3008C57.3584 44.5006 55.6504 43.1999 53.6621 42.3027C52.3966 41.7317 51.5881 40.4664 51.6016 39.0781C51.6062 38.5994 51.5404 36.1062 49.5029 33.2148C48.2659 34.1065 46.3152 35.905 43.8818 39.458C43.3171 40.2826 42.427 40.8262 41.4356 40.9522C38.1759 41.3662 34.8378 42.2661 31.6602 43.5527C28.4894 44.8712 25.4851 46.5741 22.8848 48.5625C22.0905 49.1697 21.0743 49.408 20.0928 49.2178C15.861 48.3975 13.206 48.4884 11.6973 48.7236C12.2807 52.2121 13.9835 54.0342 14.3223 54.3711C15.3056 55.3486 15.6195 56.8151 15.1221 58.1094C13.9631 61.1252 13.8488 64.3394 15.2432 67.7383C18.0162 74.4978 21.5647 77.2163 24.9883 78.2568C28.6434 79.3677 32.882 78.7995 37.3867 77.5059C38.731 77.1198 40.1759 77.5709 41.0615 78.6533C41.9471 79.736 42.103 81.2422 41.458 82.4834C41.1604 83.0561 40.832 84.3154 41.3301 86.3047C41.6242 87.4798 41.2901 88.7237 40.4463 89.5928C40.3874 89.6534 40.3227 89.7135 40.2578 89.7783C40.605 89.7746 40.9548 89.8215 41.2949 89.9229C41.8727 90.0951 42.3877 90.4118 42.7988 90.833C43.0938 90.0105 43.5973 89.1392 44.3936 88.4063C45.5001 87.3877 46.9846 86.8193 48.6631 86.8984L49.001 86.9229L49.1719 86.9434L57.6045 88.1865C57.5933 88.1527 57.5824 88.1187 57.5713 88.085C56.835 85.8541 56.1824 83.8728 55.5215 82.2617C54.3321 79.3624 52.7491 78.3832 51.9873 78.1426C50.7208 77.7424 49.7898 76.6589 49.584 75.3467C49.3912 74.1166 49.8667 72.8833 50.8193 72.1006L51.0107 71.9531ZM34.1162 85.4268C31.7005 85.8226 29.1699 85.9883 26.6309 85.7041C26.6482 85.7161 26.6655 85.727 26.6816 85.7383C26.7643 85.7962 26.8326 85.8463 26.8857 85.8857C26.9041 85.8994 26.9208 85.9117 26.9356 85.9229C29.0163 87.4669 30.6403 87.4152 31.9063 87.0195C32.7403 86.7588 33.5054 86.3071 34.1533 85.8252C34.1393 85.6916 34.1264 85.5589 34.1162 85.4268ZM250.24 16.2578L254.664 38.8193C254.876 39.8978 254.568 41.0132 253.834 41.8311C253.1 42.6488 252.025 43.0747 250.93 42.9805C247.885 42.7184 244.401 42.914 241.156 43.7793C233.761 45.7519 229.477 50.2605 227.252 55.3809C224.972 60.6282 224.842 66.5873 226.053 71.126C229.172 82.8195 242.259 89.7526 254.995 86.3555C259.136 85.2509 263.271 83.0202 266.946 79.4834L267.163 79.29C268.282 78.3785 269.86 78.2428 271.126 78.9756C273.509 80.3552 276.316 80.8692 278.681 80.9951C279.839 81.0568 280.831 81.0226 281.522 80.9736C281.581 80.9695 281.637 80.9633 281.69 80.959C281.711 80.8599 281.733 80.7437 281.752 80.6074L281.757 80.5752L283.255 70.4609C280.29 69.7004 278.209 67.4995 276.754 65.1016C275.161 62.4766 273.983 59.094 273.017 55.4727C272.185 52.3555 270.061 41.5745 268.162 31.6357C267.204 26.6205 266.292 21.7536 265.61 18.0664C265.195 15.8163 264.847 13.9036 264.634 12.6856L250.24 16.2578ZM322.972 26.4023C320.713 25.0192 318.099 24.7247 315.726 25.375C310.997 26.6704 305.886 29.0654 301.469 31.6465C301.221 31.7914 300.978 31.9473 300.741 32.1133C298.457 33.7161 296.21 35.3912 294.179 37.1455C293.48 37.7492 292.857 38.4718 292.344 39.3106L289.688 43.6455C287.032 47.983 288.395 53.6532 292.732 56.3096C294.861 57.6131 297.303 57.9491 299.563 57.4404C300.231 57.29 300.919 57.1246 301.646 56.9492L303.544 56.499C305.515 56.0451 307.685 55.6117 309.832 55.4766C312.735 55.2938 315.95 55.6248 318.88 57.419L327.551 62.7285C330.48 64.5226 332.236 67.2366 333.393 69.9053C334.248 71.8787 334.849 74.0084 335.341 75.9707L335.802 77.8652V77.8662C335.976 78.5931 336.141 79.2814 336.311 79.9443L336.428 80.3623C337.063 82.439 338.427 84.2934 340.423 85.5156C344.76 88.1718 350.43 86.8081 353.086 82.4707L355.741 78.1357L355.927 77.8193C356.343 77.0765 356.643 76.3028 356.836 75.5176L357.068 74.5332C357.592 72.2203 357.995 69.8027 358.336 67.3848C358.376 67.0986 358.404 66.8113 358.421 66.5244C358.712 61.4168 358.523 55.7751 357.528 50.9746C357.062 48.7239 355.765 46.6618 353.756 45.2725C355.114 47.4216 355.225 50.242 353.809 52.5547C353.499 53.0598 353.135 53.5109 352.729 53.9053C353.182 54.0402 353.627 54.2227 354.058 54.457L354.365 54.6348L354.663 54.8281C357.673 56.888 358.565 60.9673 356.642 64.1084C354.656 67.3506 350.416 68.3733 347.169 66.3848C346.728 66.1147 346.329 65.802 345.973 65.457C345.809 65.9489 345.591 66.4308 345.309 66.8916C343.323 70.1343 339.083 71.1573 335.836 69.169C332.589 67.1806 331.573 62.9382 333.559 59.6953C333.854 59.213 334.2 58.7809 334.585 58.3994C333.942 58.2324 333.312 57.9696 332.716 57.6045C329.469 55.6159 328.453 51.3744 330.438 48.1318C332.424 44.8895 336.664 43.8663 339.911 45.8545C340.444 46.181 340.917 46.5694 341.326 47.0029C341.494 46.4378 341.736 45.8848 342.059 45.3584C343.481 43.0362 346.059 41.8524 348.601 42.0977L322.972 26.4023ZM247.45 51.8652C250.738 50.9882 254.775 51.4732 257.339 53.9229L257.582 54.166L257.729 54.3301C258.061 54.7232 258.303 55.1851 258.436 55.6836C259.864 61.0387 261.365 65.3221 262.91 68.8291C263.539 70.2566 263.147 71.9284 261.949 72.9277C259.56 74.9208 257.106 76.3029 254.606 76.9697C247.032 78.9901 240.821 74.375 239.1 67.9209C237.496 61.908 239.833 53.8969 247.45 51.8652ZM252.003 58.7031C251.43 58.4775 250.459 58.3075 249.254 58.6289C246.571 59.3448 244.903 62.5166 245.863 66.1172C246.706 69.2767 249.389 71.1162 252.802 70.2061C253.571 70.0009 254.443 69.6305 255.414 69.0371C254.223 66.0262 253.085 62.6135 252.003 58.7031ZM283.678 67.9971C283.656 68.0617 283.637 68.1256 283.621 68.1885C283.639 68.1244 283.656 68.0601 283.678 67.9971ZM339.408 63.1865C339.398 63.189 339.385 63.1933 339.371 63.2031C339.356 63.2142 339.345 63.2277 339.34 63.2354V63.2363C339.335 63.2439 339.328 63.2593 339.325 63.2783C339.323 63.2951 339.324 63.3091 339.326 63.3193C339.329 63.3296 339.334 63.3424 339.344 63.3565C339.355 63.3723 339.369 63.3831 339.376 63.3877C339.383 63.3922 339.399 63.3994 339.419 63.4024C339.436 63.4049 339.45 63.4039 339.46 63.4014C339.47 63.3989 339.483 63.3937 339.497 63.3838C339.513 63.3725 339.524 63.3591 339.528 63.3516C339.552 63.3127 339.549 63.2646 339.524 63.2295L339.492 63.1992L339.491 63.1982C339.484 63.1938 339.468 63.1874 339.449 63.1846C339.432 63.182 339.419 63.1841 339.408 63.1865ZM350.824 60.415C350.772 60.3835 350.703 60.4007 350.672 60.4522C350.648 60.4908 350.652 60.539 350.677 60.5742L350.709 60.6045C350.748 60.6287 350.797 60.625 350.832 60.5996L350.861 60.5684C350.885 60.5296 350.883 60.4806 350.857 60.4453L350.825 60.416L350.824 60.415ZM342.92 53.6816C342.752 54.2472 342.511 54.8013 342.188 55.3281C341.893 55.8101 341.547 56.2418 341.163 56.6231C341.697 56.7616 342.221 56.9668 342.725 57.2412L343.032 57.419L343.33 57.6113C343.654 57.8331 343.952 58.0798 344.227 58.3447C344.39 57.8534 344.61 57.3724 344.892 56.9121C345.201 56.4068 345.565 55.9551 345.972 55.5606C345.41 55.3932 344.86 55.1528 344.336 54.832C343.802 54.5051 343.33 54.1159 342.92 53.6816ZM316.506 30.2559C318.249 27.4176 321.965 26.5199 324.811 28.2627C327.654 30.004 328.553 33.7212 326.807 36.5693L326.808 36.5703L325.98 37.9199L327.331 38.7471L327.335 38.749C330.169 40.4905 331.075 44.2041 329.328 47.0566C327.586 49.9007 323.863 50.7971 321.017 49.0488V49.0479L319.672 48.2256L318.845 49.5772L318.842 49.5811C317.099 52.4183 313.383 53.317 310.537 51.5742C307.692 49.8319 306.793 46.111 308.542 43.2627L309.366 41.915L308.018 41.0908L308.013 41.0869C305.178 39.3455 304.273 35.6327 306.02 32.7803L306.188 32.5186C307.992 29.8838 311.57 29.0953 314.326 30.7852L315.676 31.6104L316.504 30.2598L316.506 30.2559ZM336.33 51.6201C336.302 51.616 336.272 51.623 336.249 51.6397L336.22 51.6719C336.188 51.7238 336.204 51.7923 336.256 51.8242C336.308 51.8562 336.376 51.8396 336.408 51.7881C336.432 51.7492 336.429 51.7004 336.403 51.665L336.371 51.6357L336.33 51.6201ZM347.908 48.8486C347.898 48.8511 347.885 48.8564 347.871 48.8662L347.84 48.8984C347.835 48.906 347.828 48.9221 347.825 48.9414C347.823 48.9583 347.824 48.9721 347.826 48.9824C347.829 48.9928 347.834 49.0056 347.844 49.0195C347.855 49.0354 347.869 49.0462 347.876 49.0508C347.928 49.0826 347.996 49.0664 348.028 49.0147V49.0137C348.033 49.0059 348.04 48.9905 348.043 48.9717C348.046 48.9549 348.044 48.941 348.042 48.9307C348.04 48.9204 348.034 48.9075 348.024 48.8936L347.992 48.8623L347.991 48.8613C347.984 48.8568 347.968 48.8505 347.949 48.8477C347.932 48.8451 347.918 48.8462 347.908 48.8486ZM317.744 39.7998C317.682 39.8165 317.62 39.8314 317.557 39.8447C317.565 39.8756 317.575 39.9063 317.582 39.9375C317.59 39.9702 317.596 40.0034 317.603 40.0361C317.665 40.0194 317.727 40.0045 317.79 39.9912C317.781 39.9592 317.773 39.9268 317.766 39.8945C317.758 39.863 317.751 39.8315 317.744 39.7998ZM163.63 154.929C163.63 158.06 162.759 161.424 160.68 164.089C158.515 166.862 155.208 168.645 150.979 168.645C144.064 168.644 137.619 163.072 137.619 154.929C137.619 152.413 138.27 149.073 140.258 146.258C142.367 143.27 145.823 141.123 150.713 141.123C153.555 141.123 155.949 141.807 157.89 143.045C159.818 144.275 161.095 145.922 161.93 147.537C163.543 150.662 163.63 153.926 163.63 154.929ZM178.63 79.7432C178.63 82.8744 177.759 86.2384 175.68 88.9033C173.515 91.6768 170.208 93.46 165.979 93.46C159.064 93.4599 152.618 87.8864 152.618 79.7432C152.618 77.2272 153.271 73.8886 155.258 71.0732C157.367 68.0852 160.823 65.9385 165.713 65.9385C168.555 65.9385 170.948 66.6219 172.89 67.8604C174.818 69.0904 176.095 70.7362 176.93 72.3516C178.543 75.4763 178.63 78.7404 178.63 79.7432ZM117.91 68.042C117.91 69.5332 117.317 71.0146 116.613 72.2178C115.861 73.5038 114.784 74.8141 113.405 75.9902C110.616 78.3686 106.533 80.2481 101.262 80.2481C90.9782 80.2479 81.3273 72.1067 81.3272 58.8027C81.3272 53.8441 82.6472 48.3041 86.2783 43.9385C90.0036 39.4597 95.8059 36.6466 103.838 36.6465C107.224 36.6465 110.535 37.2297 113.119 38.1875L115.613 25.8633C112.113 24.3712 107.757 23.5694 103.039 23.5693C97.3996 23.5693 87.4563 25.218 79.044 30.5059C73.7328 33.8445 69.0092 38.6322 66.333 45.5176C66.4978 45.8653 66.6562 46.2207 66.8057 46.585C70.0639 54.5272 67.9479 61.6532 64.8555 66.8867C68.5243 83.9663 83.7222 93.8584 99.5742 93.8584C116.694 93.8584 132.853 82.2812 132.853 63.4219C132.853 59.1502 132.223 56.7073 131.331 55.3857C130.654 54.3824 129.537 53.5968 126.848 53.5967C126.848 53.5967 126.842 53.5965 126.83 53.5967C126.818 53.5968 126.801 53.5973 126.779 53.5977C126.736 53.5985 126.68 53.5997 126.609 53.6016C126.469 53.6053 126.284 53.6105 126.057 53.6182C125.603 53.6335 124.995 53.6565 124.261 53.6856C122.793 53.7435 120.831 53.826 118.598 53.9258C114.303 54.1176 109.018 54.3717 104.328 54.627L104.482 63.7842C105.557 63.724 107.021 63.63 108.457 63.5381C110.275 63.4218 112.22 63.2979 112.899 63.2979H113.166C114.148 63.2979 115.558 63.5472 116.662 64.7129C117.732 65.8418 117.91 67.2003 117.91 68.042ZM88.3272 58.8027C88.3273 68.2406 94.8441 73.2479 101.262 73.2481C104.785 73.2481 107.277 72.0169 108.863 70.6641C108.92 70.6153 108.975 70.5645 109.029 70.5156C108.988 70.5183 108.945 70.5207 108.903 70.5234C107.022 70.6438 104.923 70.7816 103.807 70.8281C103.758 70.8301 103.71 70.8311 103.661 70.8311H103.483C101.534 70.8311 99.9104 69.957 98.8565 68.6182C97.8941 67.3957 97.5074 65.9324 97.4961 64.6357L97.3184 54.0645C97.318 54.0449 97.3174 54.0245 97.3174 54.0049V53.8272C97.3176 50.4616 100.105 47.8498 103.378 47.668H103.38C113.022 47.1372 125.662 46.5967 126.848 46.5967C131.176 46.5968 134.812 48.0313 137.133 51.4697C138.846 54.008 139.571 57.274 139.782 60.8867C140.809 59.6265 141.94 58.4629 143.164 57.4004C149.288 52.0861 157.481 49.503 165.979 49.5029C176.808 49.5029 184.795 53.7838 190.027 59.8438C191.384 61.4148 192.546 63.0975 193.524 64.8418L183.725 25.8906C183.02 23.0916 184.602 20.1366 187.532 19.3994L204.849 15.042C207.687 14.3279 210.396 16.0457 211.203 18.6982L211.275 18.958L220.162 54.2774C220.367 53.7112 220.589 53.148 220.831 52.5908C223.848 45.6479 229.752 39.5774 239.352 37.0166C241.88 36.3423 244.473 35.9953 246.958 35.9004L243.204 16.75V16.749C242.829 14.8672 243.407 13.1308 244.484 11.8535C245.509 10.6382 246.911 9.8993 248.295 9.53028L248.354 9.51466L263.271 5.81153V5.81251C264.922 5.38163 266.729 5.31347 268.357 6.15528C270.073 7.04212 270.875 8.56119 271.205 9.79981L271.273 10.0576L271.333 10.3174C271.349 10.405 271.362 10.4933 271.372 10.582C271.375 10.5938 271.461 11.118 271.674 12.3066C271.873 13.4197 272.155 14.958 272.494 16.7949C273.173 20.4681 274.083 25.3214 275.038 30.3232C276.966 40.4183 279.032 50.8618 279.78 53.668C280.692 57.0852 281.666 59.7029 282.738 61.4697C283.679 63.0203 284.443 63.518 284.961 63.6709L285.168 63.7178L285.212 63.7246C285.638 63.7959 286.553 63.9349 287.375 64.252C288.218 64.5773 289.81 65.4186 290.339 67.4014C290.384 67.572 290.707 68.574 290.429 69.8027L288.74 81.1963C294.927 72.7899 302.51 70.3725 309.162 70.6084C316.115 70.8551 321.664 73.9672 323.116 74.8623C325.259 76.1831 327.215 78.0021 328.36 80.5723C329.514 83.1607 329.666 86.1127 328.921 89.3662C328.551 90.988 327.98 92.8099 327.295 94.6748C328.55 94.3037 330.054 94.3073 331.499 95.0713L331.832 95.2617L332.022 95.3867C332.453 95.6876 332.794 96.043 332.938 96.1914C333.189 96.4523 333.462 96.7607 333.736 97.0811C334.289 97.7271 334.946 98.5439 335.617 99.4053C336.624 100.697 337.716 102.156 338.614 103.408L339.438 104.577L339.53 104.719C340.127 105.681 340.746 106.997 340.84 108.636C340.936 110.317 340.461 111.976 339.474 113.578L338.914 114.485C333.183 123.784 325.527 129.056 317.504 130.896C310.495 132.503 303.411 131.442 297.397 128.447C297.014 128.974 296.557 129.444 296.052 129.842L295.198 130.51C294.017 131.451 292.326 132.859 290.358 134.518C292.756 135.336 295.233 136.355 297.467 137.413C299.843 138.539 302.123 139.789 303.902 141.027C304.787 141.643 305.637 142.316 306.329 143.031C306.9 143.622 307.705 144.582 308.041 145.851L308.103 146.108L308.15 146.368C308.358 147.662 308.1 148.837 307.707 149.898C307.689 149.948 307.67 149.997 307.649 150.045L302.775 161.575C302.764 161.602 302.752 161.629 302.74 161.655C302.079 163.116 300.826 165.065 298.304 165.587C297.022 165.852 295.757 165.61 294.724 165.197V165.198C289.701 163.217 278.802 159.248 273.225 157.184L274.788 163.146C274.804 163.206 274.818 163.266 274.83 163.326C275.336 165.772 274.164 168.919 270.954 169.691L253.752 174.245C253.69 174.262 253.627 174.276 253.564 174.289C250.982 174.823 248.088 173.429 247.226 170.508C247.215 170.472 247.206 170.436 247.196 170.4L240.039 142.964C239.643 143.689 239.271 144.37 238.963 144.931C238.717 145.377 238.513 145.749 238.369 146.01C238.297 146.14 238.241 146.243 238.202 146.312C238.183 146.347 238.168 146.374 238.158 146.393C238.157 146.395 238.155 146.397 238.153 146.399C237.325 148.029 236.105 149.197 234.675 149.877C234.005 150.195 233.182 150.357 232.591 150.45C231.872 150.564 230.995 150.65 230.005 150.677C228.028 150.731 225.487 150.557 222.747 149.843C217.185 148.392 210.832 144.704 206.919 136.473L205.622 133.744C203.848 130.013 201.928 128.308 200.278 127.608C199.527 127.29 198.703 127.128 197.795 127.143L208.546 153.191C209.646 155.712 208.52 158.767 206.021 159.955L205.861 160.031C205.809 160.056 205.755 160.08 205.701 160.103L189.272 166.928C189.237 166.943 189.201 166.957 189.165 166.971C186.406 168.011 183.539 166.749 182.325 164.195C182.299 164.141 182.275 164.085 182.252 164.029L181.581 162.406C179.798 168.905 175.727 174.109 170.812 177.882C164.242 182.925 155.946 185.612 148.848 185.612C136.614 185.612 125.282 178.835 120.525 167.77L118.078 177.519C118.07 177.549 118.062 177.581 118.054 177.611C117.678 178.952 116.847 180.165 115.749 181.011C114.629 181.873 112.984 182.521 111.114 182.138L111.027 182.12C110.943 182.103 110.859 182.082 110.776 182.059L93.377 177.132V177.131C91.2527 176.56 89.9544 175.076 89.292 173.674C88.6753 172.368 88.4553 170.837 88.7227 169.532L88.7412 169.445L88.7842 169.261C88.8002 169.2 88.8176 169.138 88.8369 169.078L96.0381 146.637C93.4887 149.901 90.8331 153.281 88.6191 155.955L88.6182 155.954C87.5994 157.212 85.2663 159.078 81.7471 158.522C81.7395 158.521 81.7312 158.52 81.7236 158.519L72.6885 157.029C72.6438 157.022 72.599 157.014 72.5547 157.005C68.8846 156.253 67.7781 152.894 67.4326 151.64L66.9082 149.893C65.9833 146.77 64.9813 143.187 64.0254 139.76L61.7295 163.442C61.7176 163.565 61.6995 163.687 61.6748 163.808L61.6572 163.895C61.3221 165.53 60.1521 166.835 59.0811 167.617C57.8804 168.494 56.1376 169.214 54.0996 168.986C54.0909 168.985 54.082 168.984 54.0732 168.983L37.0781 166.951C36.9819 166.94 36.886 166.925 36.791 166.905L36.7041 166.888C33.021 166.133 31.651 162.488 32.1231 159.872C32.1279 159.84 32.1344 159.793 32.1436 159.733C32.1629 159.606 32.1921 159.418 32.2295 159.173C32.3044 158.681 32.4139 157.959 32.5537 157.041C32.8334 155.204 33.2335 152.579 33.7139 149.427C34.6746 143.121 35.9579 134.703 37.2471 126.256C38.434 118.479 39.6344 110.616 40.5938 104.357C40.2636 103.428 39.7874 102.043 39.3066 100.672C39.0349 99.8965 38.75 99.0979 38.4697 98.3213C34.2057 100.259 30.5154 100.29 27.5654 99.4141C25.7515 98.8757 24.3698 98.0383 23.4307 97.3242C22.9596 96.9661 22.592 96.6333 22.3281 96.3731C22.1959 96.2426 22.0881 96.1294 22.0059 96.0391C21.9958 96.028 21.9859 96.0173 21.9766 96.0068C20.4975 94.5129 19.2189 93.8212 18.4209 93.501C18.0115 93.3367 17.7124 93.2632 17.5576 93.2324C17.48 93.217 17.438 93.2121 17.4365 93.2119C17.4358 93.2118 17.4451 93.2134 17.4649 93.2149C17.4748 93.2156 17.4876 93.2159 17.5029 93.2168C17.5106 93.2172 17.5193 93.2183 17.5283 93.2188C17.5329 93.219 17.5381 93.2186 17.543 93.2188C17.5452 93.2189 17.5475 93.2196 17.5498 93.2197C17.551 93.2198 17.553 93.2197 17.5537 93.2197V93.2188C17.3714 93.2116 17.1897 93.1907 17.0107 93.1553C16.3057 93.0157 15.6445 92.8418 15.0537 92.6123C14.4985 92.3966 13.7862 92.0491 13.1709 91.4492C12.4812 90.7766 11.8776 89.7307 11.9219 88.4102C11.9616 87.2284 12.5073 86.3807 12.8643 85.9365C13.5342 85.1031 14.42 84.605 14.7803 84.4102C15.0211 84.2799 15.2365 84.1778 15.3926 84.1074C15.4721 84.0716 15.5405 84.0425 15.5928 84.0205C15.6189 84.0095 15.6417 83.9997 15.6602 83.9922L15.6992 83.9766L15.7012 83.9756C15.703 83.9774 15.7371 84.0595 16.9609 87.1494L15.7031 83.9746C15.764 83.9505 15.8256 83.9279 15.8877 83.9072C17.0394 83.5243 18.1536 83.3652 19.1963 83.3525C14.9751 80.9799 11.4009 76.8134 8.76758 70.3945C6.95835 65.9843 6.82685 61.6358 7.93165 57.6006C6.4109 55.4847 4.51057 51.762 4.50001 46.3359C4.49801 45.2899 4.96414 44.2973 5.77051 43.6309L8.00001 46.3291C5.81457 43.6846 5.77364 43.6302 5.7754 43.627C5.7763 43.6262 5.77944 43.6236 5.78126 43.6221C5.78479 43.6192 5.78836 43.6162 5.792 43.6133C5.79947 43.6072 5.80753 43.6011 5.81544 43.5947C5.83116 43.5822 5.8478 43.5692 5.86524 43.5557C5.90035 43.5285 5.93927 43.4993 5.98145 43.4688C6.06583 43.4076 6.1647 43.3403 6.27833 43.2686C6.50596 43.1249 6.79216 42.9647 7.14356 42.8018C7.84835 42.4749 8.80038 42.1433 10.0498 41.9053C12.2936 41.4779 15.4711 41.3568 19.8936 42.0742C22.7 40.0899 25.7947 38.4097 28.9941 37.0811L29.0215 37.0693C32.2274 35.7703 35.61 34.7934 39.0059 34.2334C41.648 30.6183 43.9923 28.4739 45.8877 27.2031C46.9434 26.4953 47.8539 26.0629 48.585 25.8008C48.9493 25.6701 49.2653 25.5829 49.5283 25.5254C49.6597 25.4967 49.7777 25.4756 49.8809 25.46C49.9324 25.4521 49.9803 25.4457 50.0244 25.4404C50.0465 25.4378 50.0678 25.4357 50.0879 25.4336C50.0979 25.4326 50.1077 25.4316 50.1172 25.4307C50.122 25.4302 50.1272 25.4291 50.1318 25.4287C50.1342 25.4285 50.1376 25.4288 50.1387 25.4287C50.1424 25.4345 50.1576 25.5669 50.4121 28.4697L50.1455 25.4277C51.1854 25.3367 52.2118 25.7144 52.9443 26.458C56.7544 30.3262 58.0169 34.3118 58.4199 36.8867C59.5351 37.5318 60.5861 38.2801 61.5596 39.1357C64.9346 32.7412 69.8802 27.9976 75.3184 24.5791C85.1016 18.4295 96.4191 16.5693 103.039 16.5693C108.845 16.5694 114.528 17.6116 119.27 19.8311H119.269C121.453 20.8343 122.707 23.1537 122.707 25.3994V25.7549C122.707 25.988 122.684 26.2207 122.638 26.4492L119.617 41.374C119.613 41.3956 119.608 41.417 119.604 41.4385C119.064 43.868 116.732 45.7783 114.055 45.7783C113.267 45.7783 112.346 45.5755 111.513 45.1006C109.953 44.3472 107.097 43.6465 103.838 43.6465C97.5678 43.6466 93.8647 45.7639 91.6602 48.4141C89.3615 51.1777 88.3272 54.9665 88.3272 58.8027ZM236.753 135.411C236.756 135.45 236.761 135.491 236.767 135.533C236.761 135.493 236.757 135.452 236.753 135.411Z" fill="white"/>
</svg>
